<svg width="20" height="19" viewBox="0 0 20 19" fill="none" xmlns="http://www.w3.org/2000/svg">
<path d="M20 10.5037V11.5066C20 11.7835 19.7761 12.0081 19.5 12.0081H18.82C17.8514 12.0267 17.0087 11.3464 16.82 10.3934L15.21 2.14937C15.1771 2.06462 15.0957 2.0088 15.005 2.0088C14.9143 2.0088 14.8329 2.06462 14.8 2.14937L12.17 16.1902C11.9716 17.223 11.0853 17.9794 10.0371 18.0107C8.98884 18.042 8.05928 17.3397 7.8 16.3206L5.26 6.15101C5.23734 6.05822 5.15524 5.99235 5.06 5.99055H4.87C4.78118 5.99255 4.70228 6.04794 4.67 6.13095L3.18 10.6341C2.90832 11.455 2.14248 12.0088 1.28 12.0081H0.5C0.223858 12.0081 0 11.7835 0 11.5066V10.5037C0 10.2267 0.223858 10.0022 0.5 10.0022H1.28L2.78 5.49912C3.07781 4.59487 3.92047 3.98427 4.87 3.98471H5.06C6.07144 3.98609 6.95286 4.67594 7.2 5.65958L9.74 15.8593C9.76266 15.952 9.84476 16.0179 9.94 16.0197C10.1 16.0197 10.18 15.9495 10.2 15.8492L12.83 1.80838C13.0306 0.765356 13.9408 0.0117188 15 0.0117188C16.0592 0.0117188 16.9694 0.765356 17.17 1.80838L18.82 10.0022H19.5C19.7761 10.0022 20 10.2267 20 10.5037Z" fill="#F1F2F3"/>
</svg>
