<svg width="32" height="32" viewBox="0 0 32 32" fill="none" xmlns="http://www.w3.org/2000/svg">
<path d="M28.6666 12V8.6667L15.9999 3.33334L3.33325 8.6667V12H5.33325V24.6668H3.33325V28.0001H28.6666V24.6668H26.6666V12H28.6666ZM9.33325 12H13.9999V24.6668H9.33325V12ZM22.6666 24.6668H17.9999V12H22.6666V24.6668Z" fill="#23B3A7"/>
<path d="M26.6666 24.6667H23.3333V26.6668H26.6666V24.6667Z" fill="#3DD9EB"/>
<path d="M9.33325 10H5.33325V12H9.33325V10Z" fill="#156C65"/>
<path d="M18 10H14V12H18V10Z" fill="#156C65"/>
<path d="M26.6667 10H22.6667V12H26.6667V10Z" fill="#156C65"/>
<path d="M16.0001 8.66671C16.7365 8.66671 17.3334 8.06975 17.3334 7.33337C17.3334 6.59699 16.7365 6.00003 16.0001 6.00003C15.2637 6.00003 14.6667 6.59699 14.6667 7.33337C14.6667 8.06975 15.2637 8.66671 16.0001 8.66671Z" fill="#9CE4DE"/>
<path d="M32 32.0001H18V22.6667H32V32.0001Z" fill="#0069F1"/>
<path d="M32 26.6668H18V24.6667H32V26.6668Z" fill="#09489A"/>
</svg>
