<svg width="16" height="16" viewBox="0 0 16 16" fill="none" xmlns="http://www.w3.org/2000/svg">
<path fill-rule="evenodd" clip-rule="evenodd" d="M15.2701 13.0867L8.5418 1.58004C8.45058 1.42751 8.28611 1.33391 8.10836 1.33337H7.90831C7.73056 1.33391 7.56609 1.42751 7.47488 1.58004L0.733281 13.0867C0.646686 13.2445 0.646686 13.4356 0.733281 13.5934L0.826637 13.7467C0.913051 13.9049 1.07982 14.0023 1.26007 14H14.7433C14.9235 14.0023 15.0903 13.9049 15.1767 13.7467L15.2701 13.5934C15.3567 13.4356 15.3567 13.2445 15.2701 13.0867ZM8.66853 11C8.66853 11.1841 8.51926 11.3333 8.33512 11.3333H7.66829C7.48415 11.3333 7.33488 11.1841 7.33488 11V10.3333C7.33488 10.1492 7.48415 10 7.66829 10H8.33512C8.51926 10 8.66853 10.1492 8.66853 10.3333V11ZM8.35517 8.66668C8.43996 8.66729 8.5117 8.60417 8.52187 8.52001L8.7886 6.37334C8.8001 6.27824 8.77012 6.18279 8.7063 6.11133C8.64249 6.03987 8.55101 5.99932 8.45519 6.00001H7.54831C7.45249 5.99932 7.36101 6.03987 7.29719 6.11133C7.23338 6.18279 7.2034 6.27824 7.2149 6.37334L7.48163 8.52001C7.4918 8.60417 7.56354 8.66729 7.64833 8.66668H8.35517Z" fill="#FD7A7C"/>
</svg>
