<svg width="32" height="32" viewBox="0 0 32 32" fill="none" xmlns="http://www.w3.org/2000/svg">
<path d="M30.6666 21.3334H1.33325V24.0001H30.6666V21.3334Z" fill="#1C8C83"/>
<path d="M30.6666 24.0001H1.33325V26.6668H30.6666V24.0001Z" fill="#27C5B8"/>
<path d="M30.6666 5.33334H1.33325V21.3334H30.6666V5.33334Z" fill="#27C5B8"/>
<path d="M28.6666 7.33337H3.33325V19.3334H28.6666V7.33337Z" fill="#9CE4DE"/>
<path d="M16 17.3334C18.2091 17.3334 20 15.5425 20 13.3334C20 11.1242 18.2091 9.33337 16 9.33337C13.7909 9.33337 12 11.1242 12 13.3334C12 15.5425 13.7909 17.3334 16 17.3334Z" fill="#27C5B8"/>
<path d="M9.99992 12.0001H5.33325V14.6667H9.99992V12.0001Z" fill="#27C5B8"/>
<path d="M26.6667 12.0001H22V14.6667H26.6667V12.0001Z" fill="#27C5B8"/>
</svg>
