<svg width="32" height="32" viewBox="0 0 32 32" fill="none" xmlns="http://www.w3.org/2000/svg">
<path d="M20.6667 4.00003H10.6667V28.0001H20.6667V4.00003Z" fill="#FF7BAC"/>
<path d="M30.6667 20.0001H6V4.00003H30.6667V20.0001Z" fill="#0069F1"/>
<path d="M25.9999 28.0001H1.33325V11.3334H25.9999V28.0001Z" fill="#27C5B8"/>
<path d="M26 11.3334H6V20.0001H26V11.3334Z" fill="#23B3A7"/>
<path d="M7.33333 23.3334H4V25.3334H7.33333V23.3334Z" fill="#9CE4DE"/>
<path d="M12.6666 23.3334H9.33325V25.3334H12.6666V23.3334Z" fill="#9CE4DE"/>
<path d="M18.0001 23.3334H14.6667V25.3334H18.0001V23.3334Z" fill="#9CE4DE"/>
<path d="M23.3333 23.3334H20V25.3334H23.3333V23.3334Z" fill="#9CE4DE"/>
<path d="M30.6667 11.3334H6V7.33337H30.6667V11.3334Z" fill="#09489A"/>
<path d="M23.3334 13.3334H18.6667V18.0001H23.3334V13.3334Z" fill="#9CE4DE"/>
</svg>
