<svg width="32" height="32" viewBox="0 0 32 32" fill="none" xmlns="http://www.w3.org/2000/svg">
<path d="M16.0001 29.3334C23.3634 29.3334 29.3334 23.3634 29.3334 16.0001C29.3334 8.63669 23.3634 2.66667 16.0001 2.66667C8.63675 2.66667 2.66675 8.63669 2.66675 16.0001C2.66675 23.3648 8.63541 29.3334 16.0001 29.3334Z" fill="#1C8C83"/>
<path d="M22 13.3334C22 11.5947 20.8853 10.1127 19.3333 9.56203V7.33336H16.6667V9.33337H14.6667V7.33336H12V9.33337H10V12H12V20.0001H10V22.6668H12V24.6668H14.6667V22.6668H16.6667V24.6668H19.3333V22.4381C20.8853 21.8881 22 20.4054 22 18.6667C22 17.6434 21.6133 16.7081 20.9787 16.0001C21.6133 15.2921 22 14.3567 22 13.3334ZM14.6667 12H18C18.7353 12 19.3333 12.598 19.3333 13.3334C19.3333 14.0687 18.7353 14.6667 18 14.6667H14.6667V12ZM18 20.0001H14.6667V17.3334H18C18.7353 17.3334 19.3333 17.9314 19.3333 18.6667C19.3333 19.4021 18.7353 20.0001 18 20.0001Z" fill="#52D1C6"/>
<path d="M14.6667 9.33337H12V12.0001H14.6667V9.33337Z" fill="#9CE4DE"/>
<path d="M14.6667 20.0001H12V22.6668H14.6667V20.0001Z" fill="#9CE4DE"/>
</svg>
