<svg width="20" height="20" viewBox="0 0 20 20" fill="none" xmlns="http://www.w3.org/2000/svg">
<path fill-rule="evenodd" clip-rule="evenodd" d="M-0.00012207 10C-0.00012207 4.47715 4.47703 0 9.99988 0C12.652 0 15.1956 1.05357 17.0709 2.92893C18.9463 4.8043 19.9999 7.34784 19.9999 10C19.9999 15.5228 15.5227 20 9.99988 20C4.47703 20 -0.00012207 15.5228 -0.00012207 10ZM1.99988 10C1.99988 14.4183 5.5816 18 9.99988 18C12.1216 18 14.1564 17.1571 15.6567 15.6569C17.157 14.1566 17.9999 12.1217 17.9999 10C17.9999 5.58172 14.4182 2 9.99988 2C5.5816 2 1.99988 5.58172 1.99988 10ZM9.99987 4.00002C11.2425 4.00002 12.2499 5.00738 12.2499 6.25002C12.2499 7.49266 11.2425 8.50002 9.99987 8.50002C8.75723 8.50002 7.74987 7.49266 7.74987 6.25002C7.7472 5.65247 7.98339 5.07862 8.40593 4.65608C8.82847 4.23354 9.40232 3.99735 9.99987 4.00002ZM5.10944 13.8928C5.24617 14.1152 5.48876 14.2505 5.74988 14.25H14.2499C14.5074 14.2437 14.7437 14.1056 14.8756 13.8844C15.0076 13.6631 15.0167 13.3896 14.8999 13.16L13.9999 11.35C13.6626 10.6807 12.9794 10.2561 12.2299 10.25H7.76988C7.02037 10.2561 6.33714 10.6807 5.99988 11.35L5.07988 13.16C4.96151 13.3928 4.9727 13.6703 5.10944 13.8928Z" fill="#4E4C6A"/>
</svg>
