<svg width="24" height="25" viewBox="0 0 24 25" fill="none" xmlns="http://www.w3.org/2000/svg">
<path fill-rule="evenodd" clip-rule="evenodd" d="M19.9024 3.93923L20.5609 4.5979C20.8416 4.87837 20.9995 5.25888 20.9999 5.65577V6.41424C21.0049 6.81803 20.8466 7.20672 20.5609 7.49206L18.7151 9.3084C18.6215 9.40287 18.4939 9.456 18.3609 9.456C18.2279 9.456 18.1004 9.40287 18.0067 9.3084L15.2032 6.46414C15.013 6.27011 15.013 5.95958 15.2032 5.76555L17.009 3.93923C17.2943 3.65347 17.6829 3.49512 18.0866 3.50011H18.8448C19.2416 3.50046 19.622 3.65841 19.9024 3.93923ZM16.8195 11.184C17.0096 10.9899 17.0096 10.6794 16.8195 10.4854L13.966 7.67104C13.8723 7.57657 13.7448 7.52344 13.6118 7.52344C13.4788 7.52344 13.3513 7.57657 13.2576 7.67104L5.20608 15.7248C5.01142 15.9178 4.85859 16.1488 4.75711 16.4034L3.04105 20.7347C2.94383 20.9595 3.02415 21.2217 3.23061 21.3534C3.37201 21.4947 3.58402 21.5379 3.76938 21.4632L8.09945 19.7068C8.35403 19.6053 8.58498 19.4524 8.7779 19.2577L16.8195 11.184Z" fill="#21A4B5"/>
</svg>
