<svg width="18" height="18" viewBox="0 0 18 18" fill="none" xmlns="http://www.w3.org/2000/svg">
<path fill-rule="evenodd" clip-rule="evenodd" d="M2 16H7.5C7.77614 16 8 16.2239 8 16.5V17.5C8 17.7761 7.77614 18 7.5 18H2C0.89543 18 0 17.1046 0 16V2C0 0.89543 0.89543 0 2 0H7.5C7.77614 0 8 0.223858 8 0.5V1.5C8 1.77614 7.77614 2 7.5 2H2V16ZM12.64 3.15181L17.78 8.28181C17.9189 8.42353 17.9977 8.61339 18 8.81181V9.1918C17.9998 9.39065 17.9207 9.58129 17.78 9.72181L12.64 14.8518C12.5461 14.9465 12.4183 14.9997 12.285 14.9997C12.1517 14.9997 12.0239 14.9465 11.93 14.8518L11.22 14.1518C11.1253 14.0579 11.0721 13.9301 11.0721 13.7968C11.0721 13.6635 11.1253 13.5357 11.22 13.4418L14.67 10.0018H4.5C4.22386 10.0018 4 9.77795 4 9.50181V8.50181C4 8.22566 4.22386 8.00181 4.5 8.00181H14.67L11.22 4.56181C11.1259 4.46964 11.0729 4.3435 11.0729 4.21181C11.0729 4.08012 11.1259 3.95397 11.22 3.86181L11.93 3.15181C12.0239 3.05715 12.1517 3.00391 12.285 3.00391C12.4183 3.00391 12.5461 3.05715 12.64 3.15181Z" fill="#F1F2F3"/>
</svg>
