<svg width="217" height="131" viewBox="0 0 217 131" fill="none" xmlns="http://www.w3.org/2000/svg">
<g filter="url(#filter0_d_1548_176560)">
<circle cx="168.878" cy="77.433" r="23.5486" fill="#6ED8CF"/>
<path d="M188.501 77.4341C188.501 88.2714 179.714 97.058 168.877 97.058C158.04 97.058 149.253 88.2714 149.253 77.4341C149.253 66.5968 158.04 57.8102 168.877 57.8102C179.714 57.8102 188.501 66.5968 188.501 77.4341Z" fill="#23B3A7"/>
<path d="M168.878 93.131C177.549 93.131 184.577 86.1023 184.577 77.4319C184.577 68.7616 177.549 61.7328 168.878 61.7328C160.208 61.7328 153.179 68.7616 153.179 77.4319C153.179 86.1023 160.208 93.131 168.878 93.131Z" fill="#6ED8CF"/>
<path d="M180.652 77.433C180.652 83.9354 175.38 89.2073 168.877 89.2073C162.375 89.2073 157.103 83.9354 157.103 77.433C157.103 70.9306 162.375 65.6587 168.877 65.6587C175.38 65.6587 180.652 70.9306 180.652 77.433Z" fill="#23B3A7"/>
<path d="M168.877 85.2836C173.212 85.2836 176.726 81.7693 176.726 77.4341C176.726 73.0989 173.212 69.5845 168.877 69.5845C164.542 69.5845 161.027 73.0989 161.027 77.4341C161.027 81.7693 164.542 85.2836 168.877 85.2836Z" fill="#6ED8CF"/>
<path d="M172.803 77.4319C172.803 79.5994 171.046 81.3567 168.878 81.3567C166.711 81.3567 164.954 79.5994 164.954 77.4319C164.954 75.2645 166.711 73.5071 168.878 73.5071C171.046 73.5071 172.803 75.2645 172.803 77.4319Z" fill="#23B3A7"/>
</g>
<path d="M123.54 74.3483C123.54 74.3483 59.0911 81.9286 15.8052 110.849" stroke="#3A3885" stroke-width="3.131" stroke-dasharray="5.01 5.01"/>
<g filter="url(#filter1_d_1548_176560)">
<path d="M126.825 75.5505L156.231 74.226L156.046 70.1092L126.64 71.4336L126.825 75.5505Z" fill="#0069F1"/>
<path d="M124.719 78.518L133.107 78.1402L134.847 73.151L132.666 68.3383L124.278 68.7161L126.459 73.5288L124.719 78.518Z" fill="#0069F1"/>
<path d="M162.884 71.4804L152.541 77.3408L153.492 72.2888L152.09 67.3428L162.884 71.4804Z" fill="#0069F1"/>
</g>
<g filter="url(#filter2_d_1548_176560)">
<g clip-path="url(#clip0_1548_176560)">
<path d="M146.428 92.6216L150.351 117.88L155.659 116.458L146.428 92.6216Z" fill="#FD7A7C"/>
<path d="M148.561 100.582L145.576 101.382C144.295 101.725 142.975 100.963 142.631 99.6825L142.098 97.6922L144.088 97.1589L144.622 99.1492C144.671 99.3316 144.86 99.4409 145.042 99.392L148.028 98.5921L148.561 100.582Z" fill="#FD7A7C"/>
<path d="M153.987 106.239L151.334 106.951L150.8 104.96L153.454 104.249C154.003 104.102 154.33 103.536 154.183 102.987L153.649 100.997L155.64 100.464L156.173 102.454C156.614 104.1 155.633 105.798 153.987 106.239Z" fill="#FD7A7C"/>
<path d="M150.54 109.296L146.559 110.363C144.913 110.804 143.215 109.823 142.774 108.177L142.24 106.187L144.231 105.654L144.764 107.644C144.911 108.193 145.477 108.519 146.026 108.372L150.006 107.306L150.54 109.296Z" fill="#FD7A7C"/>
<path d="M157.624 94.599L137.057 100.11C136.37 97.5449 137.892 94.9086 140.457 94.2213L151.735 91.1993C154.3 90.5121 156.937 92.0341 157.624 94.599Z" fill="#23B3A7"/>
<path d="M148.175 97.1309L146.428 92.6214L147.17 97.4L148.175 97.1309Z" fill="#156C65"/>
<path d="M144 96.8274L142.009 97.3607L142.365 98.6875L144.355 98.1542L144 96.8274Z" fill="#156C65"/>
<path d="M147.151 105.937L136.536 108.781C136.045 106.95 137.133 105.066 138.965 104.575L142.945 103.509C144.777 103.018 146.66 104.105 147.151 105.937Z" fill="#23B3A7"/>
<path d="M162.54 99.6806L151.925 102.525C151.435 100.693 152.522 98.8097 154.354 98.3189L158.334 97.2523C160.166 96.7615 162.05 97.8489 162.54 99.6806Z" fill="#23B3A7"/>
<path d="M144.142 105.322L142.151 105.855L142.507 107.182L144.497 106.649L144.142 105.322Z" fill="#156C65"/>
<path d="M155.55 100.131L153.56 100.664L153.916 101.991L155.906 101.458L155.55 100.131Z" fill="#156C65"/>
</g>
</g>
<g clip-path="url(#clip1_1548_176560)" filter="url(#filter3_d_1548_176560)">
<path d="M201.893 106.486L183.711 101.614L187.493 87.5005L198.425 83.066L205.679 92.3568L201.893 106.486Z" fill="#27C5B8"/>
<path d="M185.063 91.8713L183.874 88.9685L198.425 83.066L208.08 95.4324L205.621 97.3798L197.424 86.8432L185.063 91.8713Z" fill="#FD7A7C"/>
<path d="M186.475 91.2971L197.424 86.8432L204.663 96.1488L205.679 92.3568L198.425 83.066L187.493 87.5005L186.475 91.2971Z" fill="#DB3041"/>
<path d="M201.028 97.5929L194.967 95.9689L192.802 104.05L198.863 105.674L201.028 97.5929Z" fill="#0069F1"/>
<path d="M193.606 92.8891L189.061 91.6711L187.709 96.7137L192.255 97.9317L193.606 92.8891Z" fill="#0069F1"/>
</g>
<g filter="url(#filter4_d_1548_176560)">
<g clip-path="url(#clip2_1548_176560)">
<path d="M180.104 58.484L180.555 55.3019C180.223 55.1479 179.957 54.8534 179.855 54.4713C179.735 54.0255 179.833 53.5811 180.129 53.2695L178.118 45.7647L179.445 45.409L181.456 52.9131C181.868 53.0359 182.208 53.3636 182.327 53.8081C182.43 54.1896 182.348 54.5776 182.136 54.8776L183.985 57.4434L180.104 58.484Z" fill="#23B3A7"/>
<path d="M194.259 42.3137L196.606 51.0736L190.679 54.1622L184.001 54.4512L181.654 45.6912L194.259 42.3137Z" fill="#0069F1"/>
<path d="M197.292 40.3622L178.052 45.5174L178.586 47.5077L197.825 42.3525L197.292 40.3622Z" fill="#0069F1"/>
<path d="M193.974 41.251L181.369 44.6286L181.902 46.6189L194.508 43.2413L193.974 41.251Z" fill="#09489A"/>
<path d="M208.605 53.3529L185.375 59.5774L186.88 65.1953L210.11 58.9709L208.605 53.3529Z" fill="#FD7A7C"/>
<path d="M205.437 54.1784L202.643 54.9272L204.154 60.5664L206.948 59.8176L205.437 54.1784Z" fill="#DB3041"/>
<path d="M190.682 58.1553L188.028 58.8664L189.533 64.4843L192.187 63.7733L190.682 58.1553Z" fill="#DB3041"/>
<path d="M207.091 47.7038L183.861 53.9283L185.375 59.5787L208.605 53.3543L207.091 47.7038Z" fill="#23B3A7"/>
<path d="M203.901 48.5468L201.107 49.2956L202.618 54.9348L205.412 54.186L203.901 48.5468Z" fill="#1C8C83"/>
<path d="M189.165 52.4954L186.512 53.2065L188.026 58.8569L190.679 58.1459L189.165 52.4954Z" fill="#1C8C83"/>
<path d="M209.842 63.3031L206.131 60.0559L206.038 59.7063L211.338 58.2859L211.432 58.6356L209.842 63.3031Z" fill="#FD7A7C"/>
<path d="M208.397 62.0215L209.842 63.3034L210.451 61.4712L208.397 62.0215Z" fill="#09489A"/>
<path d="M201.08 41.2316L206.379 39.8116L211.419 58.6199L206.119 60.0399L201.08 41.2316Z" fill="#09489A"/>
<path d="M200.609 39.4737L205.904 38.0549L206.764 41.264L201.469 42.6827L200.609 39.4737Z" fill="#FD7A7C"/>
<path d="M201.796 43.7965L203.437 43.3567L207.788 59.5935L206.146 60.0335L201.796 43.7965Z" fill="#0069F1"/>
<path d="M205.443 42.8179L207.085 42.3781L211.436 58.6156L209.794 59.0554L205.443 42.8179Z" fill="#0069F1"/>
<path d="M201.853 44.1181L201.32 42.1278L206.615 40.7091L207.148 42.6994L201.853 44.1181Z" fill="#DB3041"/>
</g>
</g>
<g clip-path="url(#clip3_1548_176560)" filter="url(#filter5_d_1548_176560)">
<path d="M162.69 46.9305L158.177 45.7213C157.791 43.8119 156.363 42.1878 154.353 41.6493C152.343 41.1108 150.295 41.8034 149.005 43.2639L144.493 42.0546L143.274 46.6039L147.786 47.8131C148.016 48.946 148.612 49.9785 149.478 50.7434L148.117 55.8249L152.666 57.0438L154.027 51.9623C155.16 51.7332 156.193 51.1376 156.958 50.2705L161.471 51.4798L162.69 46.9305Z" fill="#0069F1"/>
<path d="M149.934 58.1403C143.663 56.4599 139.928 49.9909 141.608 43.7197C143.289 37.4486 149.758 33.7137 156.029 35.394C162.3 37.0744 166.035 43.5434 164.355 49.8146C162.674 56.0857 156.205 59.8206 149.934 58.1403ZM155.419 37.6687C150.403 36.3244 145.227 39.3125 143.883 44.3292C142.539 49.3459 145.527 54.5214 150.544 55.8657C155.56 57.2099 160.736 54.2218 162.08 49.2051C163.424 44.1884 160.436 39.0129 155.419 37.6687Z" fill="#0069F1"/>
<path d="M162.08 49.2052C161.87 49.9906 161.565 50.7257 161.183 51.4028L163.517 52.0281C163.864 51.333 164.146 50.5932 164.355 49.8147C164.563 49.0362 164.689 48.2543 164.736 47.4788L162.402 46.8535C162.395 47.6311 162.291 48.4199 162.08 49.2052Z" fill="#042E67"/>
<path d="M143.883 44.3293C144.093 43.544 144.398 42.8088 144.78 42.1318L142.446 41.5064C142.099 42.2015 141.817 42.9413 141.608 43.7198C141.4 44.4983 141.274 45.2802 141.227 46.0557L143.561 46.681C143.568 45.9034 143.672 45.1146 143.883 44.3293Z" fill="#042E67"/>
<path d="M152.27 58.5213L152.895 56.1875C152.118 56.1803 151.329 56.0762 150.544 55.8658C149.758 55.6554 149.023 55.3511 148.346 54.9686L147.721 57.3023C148.416 57.6495 149.155 57.9317 149.934 58.1404C150.713 58.3492 151.495 58.4744 152.27 58.5213Z" fill="#042E67"/>
<path d="M152.219 49.6106C153.79 50.0313 155.404 49.0995 155.825 47.5292C156.245 45.9589 155.313 44.3448 153.743 43.924C152.173 43.5033 150.559 44.4352 150.138 46.0055C149.717 47.5758 150.649 49.1898 152.219 49.6106Z" fill="#042E67"/>
</g>
<defs>
<filter id="filter0_d_1548_176560" x="142.824" y="53.8844" width="49.602" height="52.1069" filterUnits="userSpaceOnUse" color-interpolation-filters="sRGB">
<feFlood flood-opacity="0" result="BackgroundImageFix"/>
<feColorMatrix in="SourceAlpha" type="matrix" values="0 0 0 0 0 0 0 0 0 0 0 0 0 0 0 0 0 0 127 0" result="hardAlpha"/>
<feOffset dx="-2.5048" dy="5.0096"/>
<feColorMatrix type="matrix" values="0 0 0 0 0 0 0 0 0 0 0 0 0 0 0 0 0 0 0.25 0"/>
<feBlend mode="normal" in2="BackgroundImageFix" result="effect1_dropShadow_1548_176560"/>
<feBlend mode="normal" in="SourceGraphic" in2="effect1_dropShadow_1548_176560" result="shape"/>
</filter>
<filter id="filter1_d_1548_176560" x="120.521" y="67.3428" width="42.3636" height="21.1945" filterUnits="userSpaceOnUse" color-interpolation-filters="sRGB">
<feFlood flood-opacity="0" result="BackgroundImageFix"/>
<feColorMatrix in="SourceAlpha" type="matrix" values="0 0 0 0 0 0 0 0 0 0 0 0 0 0 0 0 0 0 127 0" result="hardAlpha"/>
<feOffset dx="-3.7572" dy="10.0192"/>
<feColorMatrix type="matrix" values="0 0 0 0 0 0 0 0 0 0 0 0 0 0 0 0 0 0 0.25 0"/>
<feBlend mode="normal" in2="BackgroundImageFix" result="effect1_dropShadow_1548_176560"/>
<feBlend mode="normal" in="SourceGraphic" in2="effect1_dropShadow_1548_176560" result="shape"/>
</filter>
<filter id="filter2_d_1548_176560" x="126.756" y="83.7112" width="42.8822" height="45.3871" filterUnits="userSpaceOnUse" color-interpolation-filters="sRGB">
<feFlood flood-opacity="0" result="BackgroundImageFix"/>
<feColorMatrix in="SourceAlpha" type="matrix" values="0 0 0 0 0 0 0 0 0 0 0 0 0 0 0 0 0 0 127 0" result="hardAlpha"/>
<feOffset dx="-2.5048" dy="5.0096"/>
<feColorMatrix type="matrix" values="0 0 0 0 0 0 0 0 0 0 0 0 0 0 0 0 0 0 0.25 0"/>
<feBlend mode="normal" in2="BackgroundImageFix" result="effect1_dropShadow_1548_176560"/>
<feBlend mode="normal" in="SourceGraphic" in2="effect1_dropShadow_1548_176560" result="shape"/>
</filter>
<filter id="filter3_d_1548_176560" x="177.499" y="79.084" width="33.2441" height="35.7489" filterUnits="userSpaceOnUse" color-interpolation-filters="sRGB">
<feFlood flood-opacity="0" result="BackgroundImageFix"/>
<feColorMatrix in="SourceAlpha" type="matrix" values="0 0 0 0 0 0 0 0 0 0 0 0 0 0 0 0 0 0 127 0" result="hardAlpha"/>
<feOffset dx="-2.5048" dy="5.0096"/>
<feColorMatrix type="matrix" values="0 0 0 0 0 0 0 0 0 0 0 0 0 0 0 0 0 0 0.25 0"/>
<feBlend mode="normal" in2="BackgroundImageFix" result="effect1_dropShadow_1548_176560"/>
<feBlend mode="normal" in="SourceGraphic" in2="effect1_dropShadow_1548_176560" result="shape"/>
</filter>
<filter id="filter4_d_1548_176560" x="172.798" y="31.9079" width="43.35" height="45.5124" filterUnits="userSpaceOnUse" color-interpolation-filters="sRGB">
<feFlood flood-opacity="0" result="BackgroundImageFix"/>
<feColorMatrix in="SourceAlpha" type="matrix" values="0 0 0 0 0 0 0 0 0 0 0 0 0 0 0 0 0 0 127 0" result="hardAlpha"/>
<feOffset dx="-2.5048" dy="5.0096"/>
<feColorMatrix type="matrix" values="0 0 0 0 0 0 0 0 0 0 0 0 0 0 0 0 0 0 0.25 0"/>
<feBlend mode="normal" in2="BackgroundImageFix" result="effect1_dropShadow_1548_176560"/>
<feBlend mode="normal" in="SourceGraphic" in2="effect1_dropShadow_1548_176560" result="shape"/>
</filter>
<filter id="filter5_d_1548_176560" x="133.172" y="29.4626" width="37.1142" height="39.6189" filterUnits="userSpaceOnUse" color-interpolation-filters="sRGB">
<feFlood flood-opacity="0" result="BackgroundImageFix"/>
<feColorMatrix in="SourceAlpha" type="matrix" values="0 0 0 0 0 0 0 0 0 0 0 0 0 0 0 0 0 0 127 0" result="hardAlpha"/>
<feOffset dx="-2.5048" dy="5.0096"/>
<feColorMatrix type="matrix" values="0 0 0 0 0 0 0 0 0 0 0 0 0 0 0 0 0 0 0.25 0"/>
<feBlend mode="normal" in2="BackgroundImageFix" result="effect1_dropShadow_1548_176560"/>
<feBlend mode="normal" in="SourceGraphic" in2="effect1_dropShadow_1548_176560" result="shape"/>
</filter>
<clipPath id="clip0_1548_176560">
<rect width="32.9681" height="32.9681" fill="white" transform="translate(129.261 92.244) rotate(-15)"/>
</clipPath>
<clipPath id="clip1_1548_176560">
<rect width="25.0985" height="25.0985" fill="white" transform="translate(186.5 79.084) rotate(15)"/>
</clipPath>
<clipPath id="clip2_1548_176560">
<rect width="32.9681" height="32.9681" fill="white" transform="translate(175.303 40.566) rotate(-15)"/>
</clipPath>
<clipPath id="clip3_1548_176560">
<rect width="28.2584" height="28.2584" fill="white" transform="translate(142.991 29.4626) rotate(15)"/>
</clipPath>
</defs>
</svg>
