<svg width="60" height="60" viewBox="0 0 60 60" fill="none" xmlns="http://www.w3.org/2000/svg">
<path d="M34.0537 33.3862L30.9462 29.47L41.25 21.2925V11.25H46.25V23.7075L34.0537 33.3862Z" fill="#0069F1"/>
<path d="M25.9462 33.3862L13.75 23.7075V11.25H18.75V21.2925L29.0538 29.47L25.9462 33.3862Z" fill="#0069F1"/>
<path d="M33.15 44.0125L19.8375 56.25H8.75L28.0875 38.4875L33.15 44.0125Z" fill="#0069F1"/>
<path d="M40 7.5H38.75H21.25H20H0V11.25H20H21.25H38.75H40H60V7.5H40Z" fill="#F75E61"/>
<path d="M46.25 7.5H41.25V11.25H46.25V7.5Z" fill="#09489A"/>
<path d="M18.75 7.5H13.75V11.25H18.75V7.5Z" fill="#09489A"/>
<path d="M24.375 19.375C24.375 22.5 26.875 25 30 25C33.125 25 35.625 22.5 35.625 19.375C35.625 16.25 33 13.75 30 13.75C26.875 13.75 24.375 16.25 24.375 19.375Z" fill="#FD9596"/>
<path d="M35 26.25H25V41.25H35V26.25Z" fill="#09489A"/>
<path d="M5 7.5V11.25H8.75V16.25H2.5V2.5H8.75V7.5H5Z" fill="#F75E61"/>
<path d="M8.75 7.5H2.5V11.25H8.75V7.5Z" fill="#DB3041"/>
<path d="M57.5 2.5V16.25H51.25V11.25H55V7.5H51.25V2.5H57.5Z" fill="#F75E61"/>
<path d="M57.5 7.5H51.25V11.25H57.5V7.5Z" fill="#DB3041"/>
<path d="M45 56.25H37.5V48.75H25V41.25H45V56.25Z" fill="#0069F1"/>
</svg>
