<svg width="18" height="18" viewBox="0 0 18 18" fill="none" xmlns="http://www.w3.org/2000/svg">
<path fill-rule="evenodd" clip-rule="evenodd" d="M17.9989 1.47795V6.47795C17.9989 6.75409 17.7749 6.97795 17.4986 6.97795H12.4952C12.2188 6.97795 11.9948 6.75409 11.9948 6.47795V6.18795C11.9929 6.05236 12.0472 5.92203 12.1449 5.82795L13.9261 4.04795C12.625 2.72624 10.8481 1.98067 8.99276 1.97795C5.18862 1.99196 2.09103 5.03751 2.01517 8.83831C1.93931 12.6391 4.91291 15.8057 8.71346 15.9713C12.514 16.1368 15.7521 13.2409 16.0076 9.44795C16.0235 9.18359 16.2429 8.97747 16.5079 8.97795H17.5086C17.645 8.982 17.7744 9.03947 17.8688 9.13795C17.9608 9.23843 18.0078 9.37206 17.9989 9.50795C17.7593 13.7447 14.5908 17.2387 10.3951 17.8926C6.19934 18.5466 2.11652 16.183 0.597149 12.2203C-0.922227 8.25772 0.534693 3.77289 4.09346 1.45767C7.65222 -0.857555 12.3458 -0.374062 15.3571 2.61795L16.8482 1.12795C16.9423 1.03029 17.0727 0.975985 17.2084 0.977951H17.4986C17.7749 0.977951 17.9989 1.20181 17.9989 1.47795ZM9.87327 8.61852V4.47852C9.87327 4.20237 9.64926 3.97852 9.37293 3.97852H8.6124C8.33607 3.97852 8.11206 4.20237 8.11206 4.47852V9.13852C8.11698 9.26974 8.17047 9.39446 8.26216 9.48852L11.5544 12.7785C11.6484 12.8732 11.7763 12.9264 11.9097 12.9264C12.0431 12.9264 12.171 12.8732 12.2649 12.7785L12.7953 12.2485C12.89 12.1546 12.9433 12.0268 12.9433 11.8935C12.9433 11.7602 12.89 11.6324 12.7953 11.5385L9.87327 8.61852Z" fill="#D5D3DF"/>
</svg>
