<svg width="24" height="24" viewBox="0 0 24 24" fill="none" xmlns="http://www.w3.org/2000/svg">
<path fill-rule="evenodd" clip-rule="evenodd" d="M20.9989 4.47795V9.47795C20.9989 9.75409 20.7749 9.97795 20.4986 9.97795H15.4952C15.2188 9.97795 14.9948 9.75409 14.9948 9.47795V9.18795C14.9929 9.05236 15.0472 8.92203 15.1449 8.82795L16.9261 7.04795C15.625 5.72624 13.8481 4.98067 11.9928 4.97795C8.18862 4.99196 5.09103 8.03751 5.01517 11.8383C4.93931 15.6391 7.91291 18.8057 11.7135 18.9713C15.514 19.1368 18.7521 16.2409 19.0076 12.448C19.0235 12.1836 19.2429 11.9775 19.5079 11.978H20.5086C20.645 11.982 20.7744 12.0395 20.8688 12.138C20.9608 12.2384 21.0078 12.3721 20.9989 12.508C20.7593 16.7447 17.5908 20.2387 13.3951 20.8926C9.19934 21.5466 5.11652 19.183 3.59715 15.2203C2.07777 11.2577 3.53469 6.77289 7.09346 4.45767C10.6522 2.14244 15.3458 2.62594 18.3571 5.61795L19.8482 4.12795C19.9423 4.03029 20.0727 3.97598 20.2084 3.97795H20.4986C20.7749 3.97795 20.9989 4.20181 20.9989 4.47795ZM12.8733 11.6185V7.47852C12.8733 7.20237 12.6493 6.97852 12.3729 6.97852H11.6124C11.3361 6.97852 11.1121 7.20237 11.1121 7.47852V12.1385C11.117 12.2697 11.1705 12.3945 11.2622 12.4885L14.5544 15.7785C14.6484 15.8732 14.7763 15.9264 14.9097 15.9264C15.0431 15.9264 15.171 15.8732 15.2649 15.7785L15.7953 15.2485C15.89 15.1546 15.9433 15.0268 15.9433 14.8935C15.9433 14.7602 15.89 14.6324 15.7953 14.5385L12.8733 11.6185Z" fill="#D5D3DF"/>
</svg>
