<svg width="20" height="20" viewBox="0 0 20 20" fill="none" xmlns="http://www.w3.org/2000/svg">
<path fill-rule="evenodd" clip-rule="evenodd" d="M16 0H4C1.79086 0 0 1.79086 0 4V19.5C0 19.7761 0.223858 20 0.5 20C0.632118 19.9992 0.758327 19.9451 0.85 19.85L3.85 16.85C4.42433 16.2908 5.19856 15.9847 6 16H16C18.2091 16 20 14.2091 20 12V4C20 1.79086 18.2091 0 16 0ZM6 14C4.67301 13.9976 3.39951 14.5229 2.46 15.46L2 15.88V4C2 2.89543 2.89543 2 4 2H16C17.1046 2 18 2.89543 18 4V12C18 13.1046 17.1046 14 16 14H6ZM6.5 9H5.5C5.22386 9 5 8.77614 5 8.5V7.5C5 7.22386 5.22386 7 5.5 7H6.5C6.77614 7 7 7.22386 7 7.5V8.5C7 8.77614 6.77614 9 6.5 9ZM9.5 9H10.5C10.7761 9 11 8.77614 11 8.5V7.5C11 7.22386 10.7761 7 10.5 7H9.5C9.22386 7 9 7.22386 9 7.5V8.5C9 8.77614 9.22386 9 9.5 9ZM14.5 9H13.5C13.2239 9 13 8.77614 13 8.5V7.5C13 7.22386 13.2239 7 13.5 7H14.5C14.7761 7 15 7.22386 15 7.5V8.5C15 8.77614 14.7761 9 14.5 9Z" fill="#F1F2F3"/>
</svg>
