<svg width="24" height="24" viewBox="0 0 24 24" fill="none" xmlns="http://www.w3.org/2000/svg">
    <path
        d="M1.45586 14.666C1.3454 14.666 1.25566 14.5765 1.25772 14.466C1.29754 12.3261 1.97569 10.2466 3.20508 8.49463C3.26853 8.40421 3.39381 8.38477 3.48304 8.44989L4.70581 9.34234C4.79503 9.40746 4.81436 9.53246 4.75128 9.62313C3.76056 11.0472 3.21122 12.7317 3.17194 14.466C3.16944 14.5764 3.08014 14.666 2.96968 14.666H1.45586Z"
        fill="#F1F2F3" stroke="#F1F2F3" />
    <path
        d="M4.85508 6.91172C4.78024 6.83049 4.78529 6.70381 4.8679 6.63049C6.41572 5.25667 8.32755 4.35907 10.3733 4.04574C10.4824 4.02902 10.5831 4.10605 10.5978 4.21552L10.7702 5.50028C10.7849 5.60975 10.708 5.71018 10.5989 5.72729C8.8983 5.99383 7.30892 6.74005 6.01756 7.87819C5.9347 7.95123 5.80831 7.94624 5.73346 7.86501L4.85508 6.91172Z"
        fill="#F1F2F3" stroke="#F1F2F3" />
    <path
        d="M12.9352 4.16343C12.945 4.0534 13.0421 3.97196 13.1519 3.98381C15.2004 4.20469 17.1423 5.01002 18.7459 6.30367C18.8319 6.37303 18.8429 6.49933 18.772 6.58399L17.8664 7.66473C17.7955 7.74939 17.6695 7.76032 17.5832 7.69129C16.2636 6.63494 14.6713 5.97458 12.9914 5.78702C12.8816 5.77476 12.8003 5.67786 12.8101 5.56784L12.9352 4.16343Z"
        fill="#F1F2F3" stroke="#F1F2F3" />
    <path
        d="M20.2024 8.04032C20.2883 7.97092 20.4144 7.98421 20.4822 8.07141C21.921 9.92201 22.7152 12.1927 22.7434 14.5366C22.7447 14.6471 22.6544 14.7361 22.5439 14.7353L21.1791 14.7264C21.0687 14.7256 20.98 14.6355 20.9782 14.525C20.9478 12.5887 20.2921 10.7138 19.109 9.18059C19.0416 9.09314 19.0548 8.96735 19.1407 8.89794L20.2024 8.04032Z"
        fill="#F1F2F3" stroke="#F1F2F3" />
    <ellipse cx="12" cy="17.9204" rx="1.84615" ry="1.84615" fill="#F1F2F3" stroke="#F1F2F3" />
    <path
        d="M13.2842 10.1955C13.3164 10.0787 13.4897 10.1089 13.4804 10.2297L12.924 17.4308C12.9194 17.4896 12.8652 17.5317 12.8071 17.5216L11.4489 17.2847C11.3908 17.2745 11.354 17.2165 11.3696 17.1597L13.2842 10.1955Z"
        fill="#F1F2F3" stroke="#F1F2F3" />
</svg>
