<svg width="24" height="24" viewBox="0 0 24 24" fill="none" xmlns="http://www.w3.org/2000/svg">
<path fill-rule="evenodd" clip-rule="evenodd" d="M12 2C6.47715 2 2 6.47715 2 12C2 17.5228 6.47715 22 12 22C17.5228 22 22 17.5228 22 12C22 9.34784 20.9464 6.8043 19.0711 4.92893C17.1957 3.05357 14.6522 2 12 2ZM12 20C7.58172 20 4 16.4183 4 12C4 7.58172 7.58172 4 12 4C16.4183 4 20 7.58172 20 12C20 14.1217 19.1571 16.1566 17.6569 17.6569C16.1566 19.1571 14.1217 20 12 20ZM6.00009 11.451C6.25695 8.54651 8.56471 6.24719 11.4701 6.00096C11.6132 5.99208 11.7532 6.04506 11.8546 6.14645C11.956 6.24783 12.009 6.38786 12.0001 6.53096V7.53096C11.9914 7.77552 11.8035 7.97615 11.5601 8.00096C9.68178 8.19837 8.19749 9.68266 8.00009 11.561C7.97403 11.8158 7.75614 12.0075 7.50009 12.001H6.50009C6.36026 11.9995 6.22689 11.9419 6.13009 11.841C6.03888 11.7321 5.99241 11.5927 6.00009 11.451Z" fill="#D5D3DF"/>
</svg>
