<svg width="20" height="20" viewBox="0 0 20 20" fill="none" xmlns="http://www.w3.org/2000/svg">
<path fill-rule="evenodd" clip-rule="evenodd" d="M0 10C0 4.47715 4.47715 0 10 0C12.6522 0 15.1957 1.05357 17.0711 2.92893C18.9464 4.8043 20 7.34784 20 10C20 15.5228 15.5228 20 10 20C4.47715 20 0 15.5228 0 10ZM2 10C2 14.4183 5.58172 18 10 18C12.1217 18 14.1566 17.1571 15.6569 15.6569C17.1571 14.1566 18 12.1217 18 10C18 5.58172 14.4183 2 10 2C5.58172 2 2 5.58172 2 10ZM9.5 14C9.22386 14 9 14.2239 9 14.5V15.5C9 15.7761 9.22386 16 9.5 16H10.5C10.7761 16 11 15.7761 11 15.5V14.5C11 14.2239 10.7761 14 10.5 14H9.5ZM11.0001 4.11914C12.5907 4.11914 13.8801 5.40856 13.8801 6.99914L13.9501 7.55914C13.9417 8.80514 13.1356 9.90545 11.9501 10.2891L11.0001 10.5991C10.9359 10.6039 10.8849 10.6549 10.8801 10.7191V11.4991C10.8801 11.7753 10.6563 11.9991 10.3801 11.9991H9.62012C9.34398 11.9991 9.12012 11.7753 9.12012 11.4991V10.7191C9.12228 9.91003 9.64188 9.19306 10.4101 8.93914L11.3601 8.62914C11.8158 8.47122 12.1211 8.04145 12.1201 7.55914V6.99914C12.1201 6.38058 11.6187 5.87914 11.0001 5.87914H9.00012C8.70307 5.87914 8.4182 5.99714 8.20816 6.20718C7.99812 6.41722 7.88012 6.7021 7.88012 6.99914V7.49914C7.88012 7.77528 7.65626 7.99914 7.38012 7.99914H6.62012C6.34397 7.99914 6.12012 7.77528 6.12012 7.49914V6.99914C6.12012 5.40856 7.40954 4.11914 9.00012 4.11914H11.0001Z" fill="#F1F2F3"/>
</svg>
