<svg width="343" height="176" viewBox="0 0 343 176" fill="none" xmlns="http://www.w3.org/2000/svg">
<g clip-path="url(#clip0_2140_6805)">
<path d="M0 16C0 7.16344 7.16344 0 16 0H327C335.837 0 343 7.16344 343 16V160C343 168.837 335.837 176 327 176H16C7.16345 176 0 168.837 0 160V16Z" fill="#28265B"/>
<g filter="url(#filter0_d_2140_6805)">
<circle cx="268.66" cy="102.512" r="37.6057" fill="#6ED8CF"/>
<path d="M299.996 102.514C299.996 119.82 285.965 133.852 268.658 133.852C251.352 133.852 237.32 119.82 237.32 102.514C237.32 85.2074 251.352 71.1758 268.658 71.1758C285.965 71.1758 299.996 85.2074 299.996 102.514Z" fill="#23B3A7"/>
<path d="M268.66 127.581C282.506 127.581 293.731 116.357 293.731 102.511C293.731 88.6646 282.506 77.4402 268.66 77.4402C254.814 77.4402 243.59 88.6646 243.59 102.511C243.59 116.357 254.814 127.581 268.66 127.581Z" fill="#6ED8CF"/>
<path d="M287.463 102.513C287.463 112.896 279.044 121.315 268.66 121.315C258.276 121.315 249.857 112.896 249.857 102.513C249.857 92.1287 258.276 83.7097 268.66 83.7097C279.044 83.7097 287.463 92.1287 287.463 102.513Z" fill="#23B3A7"/>
<path d="M268.658 115.049C275.581 115.049 281.193 109.437 281.193 102.514C281.193 95.591 275.581 89.9788 268.658 89.9788C261.735 89.9788 256.123 95.591 256.123 102.514C256.123 109.437 261.735 115.049 268.658 115.049Z" fill="#6ED8CF"/>
<path d="M274.928 102.51C274.928 105.971 272.121 108.778 268.66 108.778C265.199 108.778 262.393 105.971 262.393 102.51C262.393 99.0488 265.199 96.2424 268.66 96.2424C272.121 96.2424 274.928 99.0488 274.928 102.51Z" fill="#23B3A7"/>
</g>
<path d="M196.259 97.5859C196.259 97.5859 93.3377 109.691 24.2129 155.875" stroke="#3A3885" stroke-width="5" stroke-dasharray="8 8"/>
<g filter="url(#filter1_d_2140_6805)">
<path d="M201.505 99.5057L248.465 97.3906L248.169 90.8163L201.209 92.9314L201.505 99.5057Z" fill="#0069F1"/>
<path d="M198.141 104.245L211.536 103.641L214.315 95.6739L210.831 87.9884L197.436 88.5918L200.92 96.2772L198.141 104.245Z" fill="#0069F1"/>
<path d="M259.089 93.006L242.571 102.365L244.09 94.2969L241.852 86.3984L259.089 93.006Z" fill="#0069F1"/>
</g>
<g filter="url(#filter2_d_2140_6805)">
<g clip-path="url(#clip1_2140_6805)">
<path d="M232.81 126.768L239.076 167.103L247.552 164.832L232.81 126.768Z" fill="#FD7A7C"/>
<path d="M236.213 139.48L231.446 140.758C229.401 141.306 227.292 140.088 226.744 138.043L225.893 134.865L229.071 134.013L229.923 137.192C230.001 137.483 230.303 137.658 230.594 137.58L235.362 136.302L236.213 139.48Z" fill="#FD7A7C"/>
<path d="M244.883 148.515L240.645 149.65L239.793 146.472L244.031 145.336C244.907 145.102 245.429 144.198 245.194 143.321L244.343 140.143L247.521 139.291L248.373 142.47C249.077 145.098 247.511 147.81 244.883 148.515Z" fill="#FD7A7C"/>
<path d="M239.376 153.397L233.02 155.1C230.391 155.804 227.679 154.239 226.975 151.61L226.123 148.432L229.301 147.58L230.153 150.758C230.388 151.635 231.292 152.157 232.168 151.922L238.525 150.218L239.376 153.397Z" fill="#FD7A7C"/>
<path d="M250.686 129.925L217.843 138.726C216.745 134.63 219.176 130.42 223.272 129.322L241.282 124.496C245.378 123.399 249.588 125.83 250.686 129.925Z" fill="#23B3A7"/>
<path d="M235.599 133.969L232.81 126.768L233.995 134.399L235.599 133.969Z" fill="#156C65"/>
<path d="M228.93 133.485L225.752 134.336L226.32 136.455L229.498 135.604L228.93 133.485Z" fill="#156C65"/>
<path d="M233.963 148.032L217.011 152.574C216.227 149.649 217.964 146.641 220.889 145.857L227.246 144.154C230.171 143.37 233.179 145.107 233.963 148.032Z" fill="#23B3A7"/>
<path d="M258.539 138.041L241.587 142.583C240.804 139.658 242.54 136.65 245.465 135.866L251.822 134.163C254.747 133.379 257.755 135.115 258.539 138.041Z" fill="#23B3A7"/>
<path d="M229.159 147.05L225.98 147.902L226.548 150.021L229.727 149.169L229.159 147.05Z" fill="#156C65"/>
<path d="M247.378 138.76L244.199 139.612L244.767 141.731L247.945 140.879L247.378 138.76Z" fill="#156C65"/>
</g>
</g>
<g clip-path="url(#clip2_2140_6805)" filter="url(#filter3_d_2140_6805)">
<path d="M321.383 148.908L292.347 141.127L298.386 118.589L315.844 111.507L327.429 126.344L321.383 148.908Z" fill="#27C5B8"/>
<path d="M294.505 125.57L292.607 120.934L315.843 111.508L331.263 131.256L327.335 134.366L314.245 117.54L294.505 125.57Z" fill="#FD7A7C"/>
<path d="M296.762 124.652L314.246 117.539L325.807 132.4L327.429 126.344L315.844 111.507L298.386 118.589L296.762 124.652Z" fill="#DB3041"/>
<path d="M320.003 134.706L310.324 132.113L306.866 145.018L316.545 147.611L320.003 134.706Z" fill="#0069F1"/>
<path d="M308.152 127.194L300.893 125.249L298.735 133.302L305.994 135.247L308.152 127.194Z" fill="#0069F1"/>
</g>
<g filter="url(#filter4_d_2140_6805)">
<g clip-path="url(#clip3_2140_6805)">
<path d="M287.021 72.1347L287.742 67.0531C287.21 66.8071 286.787 66.337 286.623 65.7267C286.433 65.0147 286.589 64.3052 287.061 63.8075L283.849 51.8229L285.969 51.2548L289.18 63.2383C289.838 63.4345 290.381 63.9578 290.572 64.6676C290.735 65.2768 290.605 65.8965 290.266 66.3755L293.218 70.4729L287.021 72.1347Z" fill="#23B3A7"/>
<path d="M309.626 46.3121L313.374 60.3012L303.908 65.2335L293.244 65.6949L289.496 51.7058L309.626 46.3121Z" fill="#0069F1"/>
<path d="M314.468 43.1949L283.744 51.4275L284.596 54.6059L315.32 46.3733L314.468 43.1949Z" fill="#0069F1"/>
<path d="M309.173 44.6148L289.043 50.0085L289.895 53.1869L310.024 47.7932L309.173 44.6148Z" fill="#09489A"/>
<path d="M332.534 63.9403L295.438 73.8804L297.841 82.8519L334.938 72.9118L332.534 63.9403Z" fill="#FD7A7C"/>
<path d="M327.478 65.2586L323.016 66.4543L325.429 75.4597L329.891 74.264L327.478 65.2586Z" fill="#DB3041"/>
<path d="M303.914 71.6098L299.676 72.7454L302.08 81.7169L306.318 80.5813L303.914 71.6098Z" fill="#DB3041"/>
<path d="M330.12 54.9193L293.023 64.8594L295.441 73.8828L332.538 63.9427L330.12 54.9193Z" fill="#23B3A7"/>
<path d="M325.025 56.266L320.562 57.4617L322.975 66.4671L327.438 65.2714L325.025 56.266Z" fill="#1C8C83"/>
<path d="M301.494 62.5718L297.256 63.7073L299.674 72.7307L303.912 71.5952L301.494 62.5718Z" fill="#1C8C83"/>
<path d="M334.511 79.8303L328.585 74.6448L328.436 74.0864L336.901 71.8182L337.05 72.3766L334.511 79.8303Z" fill="#FD7A7C"/>
<path d="M332.205 77.7839L334.511 79.831L335.485 76.905L332.205 77.7839Z" fill="#09489A"/>
<path d="M320.52 44.5835L328.982 42.3159L337.031 72.3515L328.568 74.6191L320.52 44.5835Z" fill="#09489A"/>
<path d="M319.768 41.7769L328.223 39.5112L329.596 44.6358L321.141 46.9015L319.768 41.7769Z" fill="#FD7A7C"/>
<path d="M321.663 48.6799L324.284 47.9776L331.232 73.9067L328.61 74.6093L321.663 48.6799Z" fill="#0069F1"/>
<path d="M327.488 47.1177L330.109 46.4154L337.057 72.3456L334.436 73.0479L327.488 47.1177Z" fill="#0069F1"/>
<path d="M321.756 49.1938L320.904 46.0154L329.36 43.7497L330.211 46.9281L321.756 49.1938Z" fill="#DB3041"/>
</g>
</g>
<g clip-path="url(#clip4_2140_6805)" filter="url(#filter5_d_2140_6805)">
<path d="M258.776 53.8013L251.57 51.8703C250.953 48.8212 248.673 46.2275 245.463 45.3676C242.254 44.5077 238.982 45.6136 236.924 47.9459L229.717 46.0149L227.77 53.2798L234.977 55.2108C235.343 57.0199 236.295 58.6688 237.679 59.8902L235.504 68.0051L242.769 69.9517L244.944 61.8368C246.753 61.4709 248.401 60.5199 249.623 59.1352L256.83 61.0662L258.776 53.8013Z" fill="#0069F1"/>
<path d="M238.408 71.7023C228.393 69.0189 222.429 58.6882 225.112 48.6736C227.795 38.659 238.126 32.6946 248.141 35.378C258.155 38.0614 264.12 48.3921 261.436 58.4067C258.753 68.4213 248.422 74.3857 238.408 71.7023ZM247.167 39.0104C239.156 36.8638 230.891 41.6356 228.744 49.6469C226.598 57.6582 231.37 65.9232 239.381 68.0698C247.392 70.2165 255.657 65.4447 257.804 57.4334C259.95 49.422 255.179 41.1571 247.167 39.0104Z" fill="#0069F1"/>
<path d="M257.807 57.4333C257.47 58.6874 256.985 59.8614 256.374 60.9426L260.101 61.9412C260.655 60.8313 261.106 59.6498 261.439 58.4066C261.772 57.1634 261.972 55.9148 262.047 54.6763L258.32 53.6777C258.309 54.9195 258.143 56.1792 257.807 57.4333Z" fill="#042E67"/>
<path d="M228.747 49.6475C229.083 48.3934 229.569 47.2193 230.18 46.1382L226.453 45.1396C225.899 46.2495 225.448 47.431 225.115 48.6742C224.781 49.9174 224.581 51.166 224.506 52.4044L228.233 53.403C228.245 52.1613 228.411 50.9016 228.747 49.6475Z" fill="#042E67"/>
<path d="M242.137 72.3112L243.136 68.5843C241.894 68.5728 240.634 68.4065 239.38 68.0705C238.126 67.7345 236.952 67.2486 235.871 66.6377L234.872 70.3646C235.982 70.9189 237.163 71.3696 238.407 71.7029C239.651 72.0363 240.899 72.2363 242.137 72.3112Z" fill="#042E67"/>
<path d="M242.058 58.0819C244.566 58.7538 247.144 57.2656 247.816 54.758C248.488 52.2503 246.999 49.6727 244.492 49.0008C241.984 48.3289 239.406 49.817 238.735 52.3247C238.063 54.8324 239.551 57.41 242.058 58.0819Z" fill="#042E67"/>
</g>
<path d="M21.98 36.16C20.94 36.16 20.0333 35.9933 19.26 35.66C18.4867 35.3267 17.8867 34.86 17.46 34.26C17.0467 33.66 16.84 32.9533 16.84 32.14V31.64C16.84 31.5733 16.86 31.52 16.9 31.48C16.9533 31.4267 17.0133 31.4 17.08 31.4H18.86C18.9267 31.4 18.98 31.4267 19.02 31.48C19.0733 31.52 19.1 31.5733 19.1 31.64V32.02C19.1 32.6333 19.3733 33.1467 19.92 33.56C20.4667 33.96 21.2133 34.16 22.16 34.16C22.9733 34.16 23.5867 33.9867 24 33.64C24.4133 33.2933 24.62 32.8467 24.62 32.3C24.62 31.9267 24.5067 31.6133 24.28 31.36C24.0533 31.0933 23.7267 30.8533 23.3 30.64C22.8867 30.4267 22.26 30.16 21.42 29.84C20.4733 29.4933 19.7067 29.1667 19.12 28.86C18.5333 28.5533 18.04 28.14 17.64 27.62C17.2533 27.0867 17.06 26.4267 17.06 25.64C17.06 24.4667 17.4867 23.54 18.34 22.86C19.1933 22.18 20.3333 21.84 21.76 21.84C22.76 21.84 23.64 22.0133 24.4 22.36C25.1733 22.7067 25.7733 23.1933 26.2 23.82C26.6267 24.4333 26.84 25.1467 26.84 25.96V26.3C26.84 26.3667 26.8133 26.4267 26.76 26.48C26.72 26.52 26.6667 26.54 26.6 26.54H24.8C24.7333 26.54 24.6733 26.52 24.62 26.48C24.58 26.4267 24.56 26.3667 24.56 26.3V26.08C24.56 25.4533 24.3 24.9267 23.78 24.5C23.2733 24.06 22.5667 23.84 21.66 23.84C20.9267 23.84 20.3533 23.9933 19.94 24.3C19.54 24.6067 19.34 25.04 19.34 25.6C19.34 26 19.4467 26.3267 19.66 26.58C19.8733 26.8333 20.1933 27.0667 20.62 27.28C21.0467 27.48 21.7067 27.74 22.6 28.06C23.5467 28.42 24.3 28.7467 24.86 29.04C25.4333 29.3333 25.92 29.7467 26.32 30.28C26.7333 30.8 26.94 31.4533 26.94 32.24C26.94 33.44 26.4933 34.3933 25.6 35.1C24.72 35.8067 23.5133 36.16 21.98 36.16ZM37.6764 29.74C37.7297 30.0733 37.7564 30.4467 37.7564 30.86L37.7364 31.48C37.7364 31.64 37.6564 31.72 37.4964 31.72H31.2364C31.1697 31.72 31.1364 31.7533 31.1364 31.82C31.1764 32.26 31.2364 32.56 31.3164 32.72C31.6364 33.68 32.4164 34.1667 33.6564 34.18C34.5631 34.18 35.2831 33.8067 35.8164 33.06C35.8697 32.98 35.9364 32.94 36.0164 32.94C36.0697 32.94 36.1164 32.96 36.1564 33L37.3964 34.02C37.5164 34.1133 37.5364 34.22 37.4564 34.34C37.0431 34.9267 36.4897 35.38 35.7964 35.7C35.1164 36.02 34.3564 36.18 33.5164 36.18C32.4764 36.18 31.5897 35.9467 30.8564 35.48C30.1364 35.0133 29.6097 34.36 29.2764 33.52C28.9697 32.8 28.8164 31.8 28.8164 30.52C28.8164 29.7467 28.8964 29.12 29.0564 28.64C29.3231 27.7067 29.8231 26.9733 30.5564 26.44C31.3031 25.8933 32.1964 25.62 33.2364 25.62C35.8631 25.62 37.3431 26.9933 37.6764 29.74ZM33.2364 27.62C32.7431 27.62 32.3297 27.7467 31.9964 28C31.6764 28.24 31.4497 28.58 31.3164 29.02C31.2364 29.2467 31.1831 29.54 31.1564 29.9C31.1297 29.9667 31.1564 30 31.2364 30H35.2964C35.3631 30 35.3964 29.9667 35.3964 29.9C35.3697 29.5667 35.3297 29.3133 35.2764 29.14C35.1564 28.66 34.9164 28.2867 34.5564 28.02C34.2097 27.7533 33.7697 27.62 33.2364 27.62ZM45.1014 27.42C45.1014 27.4867 45.0747 27.5467 45.0214 27.6C44.9814 27.64 44.9281 27.66 44.8614 27.66H42.8214C42.7547 27.66 42.7214 27.6933 42.7214 27.76V32.58C42.7214 33.0867 42.8281 33.4533 43.0414 33.68C43.2681 33.9067 43.6214 34.02 44.1014 34.02H44.7014C44.7681 34.02 44.8214 34.0467 44.8614 34.1C44.9147 34.14 44.9414 34.1933 44.9414 34.26V35.76C44.9414 35.9067 44.8614 35.9933 44.7014 36.02L43.6614 36.04C42.6081 36.04 41.8214 35.86 41.3014 35.5C40.7814 35.14 40.5147 34.46 40.5014 33.46V27.76C40.5014 27.6933 40.4681 27.66 40.4014 27.66H39.2614C39.1947 27.66 39.1347 27.64 39.0814 27.6C39.0414 27.5467 39.0214 27.4867 39.0214 27.42V26.02C39.0214 25.9533 39.0414 25.9 39.0814 25.86C39.1347 25.8067 39.1947 25.78 39.2614 25.78H40.4014C40.4681 25.78 40.5014 25.7467 40.5014 25.68V23.34C40.5014 23.2733 40.5214 23.22 40.5614 23.18C40.6147 23.1267 40.6747 23.1 40.7414 23.1H42.4814C42.5481 23.1 42.6014 23.1267 42.6414 23.18C42.6947 23.22 42.7214 23.2733 42.7214 23.34V25.68C42.7214 25.7467 42.7547 25.78 42.8214 25.78H44.8614C44.9281 25.78 44.9814 25.8067 45.0214 25.86C45.0747 25.9 45.1014 25.9533 45.1014 26.02V27.42ZM50.9658 39.98C50.9258 39.98 50.8924 39.9533 50.8658 39.9C50.8391 39.86 50.8258 39.8067 50.8258 39.74V38.3C50.8258 38.2333 50.8458 38.1733 50.8858 38.12C50.9391 38.08 50.9991 38.06 51.0658 38.06H51.0858C51.6324 38.0467 52.0591 37.9867 52.3658 37.88C52.6724 37.7867 52.9258 37.6 53.1258 37.32C53.3258 37.04 53.5058 36.62 53.6658 36.06C53.6791 36.0333 53.6791 35.9933 53.6658 35.94L50.3658 26.04C50.3524 26.0133 50.3458 25.98 50.3458 25.94C50.3458 25.82 50.4124 25.76 50.5458 25.76H52.5058C52.6524 25.76 52.7458 25.8267 52.7858 25.96L54.7858 33C54.7991 33.04 54.8191 33.06 54.8458 33.06C54.8724 33.06 54.8924 33.04 54.9058 33L56.9058 25.96C56.9458 25.8267 57.0391 25.76 57.1858 25.76H59.0858C59.1658 25.76 59.2191 25.7867 59.2458 25.84C59.2858 25.88 59.2924 25.9467 59.2658 26.04L55.7458 36.56C55.4124 37.5067 55.0858 38.2133 54.7658 38.68C54.4458 39.1467 54.0058 39.48 53.4458 39.68C52.8991 39.88 52.1191 39.98 51.1058 39.98H50.9658ZM64.7441 36.16C63.6907 36.16 62.7841 35.8933 62.0241 35.36C61.2774 34.8267 60.7507 34.0867 60.4441 33.14C60.2174 32.42 60.1041 31.66 60.1041 30.86C60.1041 30.0067 60.2107 29.2467 60.4241 28.58C60.7307 27.6467 61.2641 26.92 62.0241 26.4C62.7841 25.88 63.6974 25.62 64.7641 25.62C65.7774 25.62 66.6507 25.88 67.3841 26.4C68.1307 26.92 68.6574 27.64 68.9641 28.56C69.2041 29.2 69.3241 29.96 69.3241 30.84C69.3241 31.68 69.2107 32.44 68.9841 33.12C68.6774 34.0667 68.1507 34.8133 67.4041 35.36C66.6574 35.8933 65.7707 36.16 64.7441 36.16ZM64.7441 34.16C65.2374 34.16 65.6574 34.02 66.0041 33.74C66.3641 33.46 66.6241 33.0667 66.7841 32.56C66.9174 32.12 66.9841 31.56 66.9841 30.88C66.9841 30.16 66.9174 29.6 66.7841 29.2C66.6374 28.6933 66.3841 28.3067 66.0241 28.04C65.6641 27.76 65.2241 27.62 64.7041 27.62C64.2107 27.62 63.7841 27.76 63.4241 28.04C63.0641 28.3067 62.8041 28.6933 62.6441 29.2C62.5107 29.6667 62.4441 30.2267 62.4441 30.88C62.4441 31.5333 62.5107 32.0933 62.6441 32.56C62.7907 33.0667 63.0441 33.46 63.4041 33.74C63.7774 34.02 64.2241 34.16 64.7441 34.16ZM77.5573 26.02C77.5573 25.9533 77.5773 25.9 77.6173 25.86C77.6707 25.8067 77.7307 25.78 77.7973 25.78H79.6173C79.684 25.78 79.7373 25.8067 79.7773 25.86C79.8307 25.9 79.8573 25.9533 79.8573 26.02V35.76C79.8573 35.8267 79.8307 35.8867 79.7773 35.94C79.7373 35.98 79.684 36 79.6173 36H77.7973C77.7307 36 77.6707 35.98 77.6173 35.94C77.5773 35.8867 77.5573 35.8267 77.5573 35.76V35.12C77.5573 35.08 77.544 35.0533 77.5173 35.04C77.4907 35.0267 77.464 35.04 77.4373 35.08C76.8907 35.7867 76.0707 36.14 74.9773 36.14C73.964 36.14 73.1107 35.8467 72.4173 35.26C71.7373 34.6733 71.3973 33.84 71.3973 32.76V26.02C71.3973 25.9533 71.4173 25.9 71.4573 25.86C71.5107 25.8067 71.5707 25.78 71.6373 25.78H73.4773C73.544 25.78 73.5973 25.8067 73.6373 25.86C73.6907 25.9 73.7173 25.9533 73.7173 26.02V32.1C73.7173 32.7267 73.8773 33.2267 74.1973 33.6C74.5307 33.9733 74.9907 34.16 75.5773 34.16C76.1773 34.16 76.6573 33.9733 77.0173 33.6C77.3773 33.2267 77.5573 32.7267 77.5573 32.1V26.02ZM87.0977 25.66C87.5243 25.66 87.8977 25.7467 88.2177 25.92C88.3243 25.9733 88.3643 26.0733 88.3377 26.22L87.9977 28.02C87.9843 28.18 87.891 28.2267 87.7177 28.16C87.5177 28.0933 87.2843 28.06 87.0177 28.06C86.8443 28.06 86.711 28.0667 86.6177 28.08C86.0577 28.1067 85.591 28.3067 85.2177 28.68C84.8443 29.04 84.6577 29.5133 84.6577 30.1V35.76C84.6577 35.8267 84.631 35.8867 84.5777 35.94C84.5377 35.98 84.4843 36 84.4177 36H82.5777C82.511 36 82.451 35.98 82.3977 35.94C82.3577 35.8867 82.3377 35.8267 82.3377 35.76V26.02C82.3377 25.9533 82.3577 25.9 82.3977 25.86C82.451 25.8067 82.511 25.78 82.5777 25.78H84.4177C84.4843 25.78 84.5377 25.8067 84.5777 25.86C84.631 25.9 84.6577 25.9533 84.6577 26.02V26.92C84.6577 26.9733 84.6643 27.0067 84.6777 27.02C84.7043 27.02 84.731 27 84.7577 26.96C85.3177 26.0933 86.0977 25.66 87.0977 25.66ZM100.121 26.02C100.121 25.9533 100.141 25.9 100.181 25.86C100.234 25.8067 100.294 25.78 100.361 25.78H102.201C102.268 25.78 102.321 25.8067 102.361 25.86C102.414 25.9 102.441 25.9533 102.441 26.02V35.32C102.441 36.9867 101.961 38.1733 101.001 38.88C100.054 39.6 98.8078 39.96 97.2611 39.96C96.8478 39.96 96.4411 39.94 96.0411 39.9C95.8944 39.8867 95.8211 39.8 95.8211 39.64L95.8811 38C95.8811 37.8533 95.9744 37.78 96.1611 37.78C96.5478 37.82 96.8944 37.84 97.2011 37.84C98.2011 37.84 98.9344 37.64 99.4011 37.24C99.8811 36.8533 100.121 36.1933 100.121 35.26V35.1C100.121 35.06 100.108 35.04 100.081 35.04C100.054 35.0267 100.028 35.0333 100.001 35.06C99.4544 35.6467 98.6811 35.94 97.6811 35.94C96.8144 35.94 96.0211 35.72 95.3011 35.28C94.5811 34.84 94.0811 34.1667 93.8011 33.26C93.6278 32.6333 93.5411 31.8267 93.5411 30.84C93.5411 29.7333 93.6478 28.8867 93.8611 28.3C94.1278 27.4867 94.5878 26.84 95.2411 26.36C95.8944 25.8667 96.6611 25.62 97.5411 25.62C98.5944 25.62 99.4144 25.9267 100.001 26.54C100.028 26.58 100.054 26.5933 100.081 26.58C100.108 26.5667 100.121 26.54 100.121 26.5V26.02ZM99.9811 32.6C100.034 32.4 100.068 32.1867 100.081 31.96C100.108 31.72 100.121 31.34 100.121 30.82C100.121 30.3133 100.108 29.9533 100.081 29.74C100.068 29.5133 100.028 29.2933 99.9611 29.08C99.8544 28.64 99.6344 28.2867 99.3011 28.02C98.9811 27.7533 98.5678 27.62 98.0611 27.62C97.5811 27.62 97.1744 27.7533 96.8411 28.02C96.5078 28.2867 96.2678 28.64 96.1211 29.08C95.9611 29.4533 95.8811 30.04 95.8811 30.84C95.8811 31.6667 95.9478 32.2467 96.0811 32.58C96.2144 33.0067 96.4544 33.36 96.8011 33.64C97.1611 33.9067 97.5878 34.04 98.0811 34.04C98.6011 34.04 99.0211 33.9067 99.3411 33.64C99.6611 33.3733 99.8744 33.0267 99.9811 32.6ZM109.178 36.16C108.124 36.16 107.218 35.8933 106.458 35.36C105.711 34.8267 105.184 34.0867 104.878 33.14C104.651 32.42 104.538 31.66 104.538 30.86C104.538 30.0067 104.644 29.2467 104.858 28.58C105.164 27.6467 105.698 26.92 106.458 26.4C107.218 25.88 108.131 25.62 109.198 25.62C110.211 25.62 111.084 25.88 111.818 26.4C112.564 26.92 113.091 27.64 113.398 28.56C113.638 29.2 113.758 29.96 113.758 30.84C113.758 31.68 113.644 32.44 113.418 33.12C113.111 34.0667 112.584 34.8133 111.838 35.36C111.091 35.8933 110.204 36.16 109.178 36.16ZM109.178 34.16C109.671 34.16 110.091 34.02 110.438 33.74C110.798 33.46 111.058 33.0667 111.218 32.56C111.351 32.12 111.418 31.56 111.418 30.88C111.418 30.16 111.351 29.6 111.218 29.2C111.071 28.6933 110.818 28.3067 110.458 28.04C110.098 27.76 109.658 27.62 109.138 27.62C108.644 27.62 108.218 27.76 107.858 28.04C107.498 28.3067 107.238 28.6933 107.078 29.2C106.944 29.6667 106.878 30.2267 106.878 30.88C106.878 31.5333 106.944 32.0933 107.078 32.56C107.224 33.0667 107.478 33.46 107.838 33.74C108.211 34.02 108.658 34.16 109.178 34.16ZM119.851 25.62C120.691 25.62 121.431 25.7667 122.071 26.06C122.711 26.3533 123.204 26.76 123.551 27.28C123.898 27.7867 124.071 28.3667 124.071 29.02V35.76C124.071 35.8267 124.044 35.8867 123.991 35.94C123.951 35.98 123.898 36 123.831 36H121.991C121.924 36 121.864 35.98 121.811 35.94C121.771 35.8867 121.751 35.8267 121.751 35.76V35.12C121.751 35.08 121.738 35.06 121.711 35.06C121.684 35.0467 121.658 35.0533 121.631 35.08C120.978 35.8 120.031 36.16 118.791 36.16C117.791 36.16 116.964 35.9067 116.311 35.4C115.671 34.8933 115.351 34.14 115.351 33.14C115.351 32.1 115.711 31.2933 116.431 30.72C117.164 30.1333 118.191 29.84 119.511 29.84H121.651C121.718 29.84 121.751 29.8067 121.751 29.74V29.26C121.751 28.74 121.598 28.34 121.291 28.06C120.984 27.7667 120.524 27.62 119.911 27.62C119.404 27.62 118.991 27.7133 118.671 27.9C118.364 28.0733 118.171 28.32 118.091 28.64C118.051 28.8 117.958 28.8667 117.811 28.84L115.871 28.6C115.804 28.5867 115.744 28.5667 115.691 28.54C115.651 28.5 115.638 28.4533 115.651 28.4C115.758 27.5867 116.191 26.92 116.951 26.4C117.724 25.88 118.691 25.62 119.851 25.62ZM119.371 34.32C120.024 34.32 120.584 34.1467 121.051 33.8C121.518 33.4533 121.751 33.0133 121.751 32.48V31.54C121.751 31.4733 121.718 31.44 121.651 31.44H119.971C119.264 31.44 118.704 31.5733 118.291 31.84C117.891 32.1067 117.691 32.4867 117.691 32.98C117.691 33.4067 117.844 33.74 118.151 33.98C118.471 34.2067 118.878 34.32 119.371 34.32ZM126.64 36C126.573 36 126.513 35.98 126.46 35.94C126.42 35.8867 126.4 35.8267 126.4 35.76V22.24C126.4 22.1733 126.42 22.12 126.46 22.08C126.513 22.0267 126.573 22 126.64 22H128.48C128.547 22 128.6 22.0267 128.64 22.08C128.693 22.12 128.72 22.1733 128.72 22.24V35.76C128.72 35.8267 128.693 35.8867 128.64 35.94C128.6 35.98 128.547 36 128.48 36H126.64ZM134.985 36.12C134.145 36.12 133.405 36 132.765 35.76C132.139 35.5067 131.652 35.1667 131.305 34.74C130.959 34.3 130.785 33.8133 130.785 33.28V33.1C130.785 33.0333 130.805 32.98 130.845 32.94C130.899 32.8867 130.959 32.86 131.025 32.86H132.785C132.852 32.86 132.905 32.8867 132.945 32.94C132.999 32.98 133.025 33.0333 133.025 33.1V33.14C133.025 33.4733 133.205 33.7667 133.565 34.02C133.939 34.26 134.405 34.38 134.965 34.38C135.499 34.38 135.932 34.2733 136.265 34.06C136.599 33.8333 136.765 33.5533 136.765 33.22C136.765 32.9133 136.625 32.6867 136.345 32.54C136.079 32.38 135.639 32.2133 135.025 32.04L134.265 31.8C133.585 31.6 133.012 31.3867 132.545 31.16C132.079 30.9333 131.685 30.6267 131.365 30.24C131.045 29.84 130.885 29.3333 130.885 28.72C130.885 27.7867 131.252 27.0467 131.985 26.5C132.719 25.94 133.685 25.66 134.885 25.66C135.699 25.66 136.412 25.7933 137.025 26.06C137.639 26.3133 138.112 26.6733 138.445 27.14C138.779 27.5933 138.945 28.1133 138.945 28.7C138.945 28.7667 138.919 28.8267 138.865 28.88C138.825 28.92 138.772 28.94 138.705 28.94H137.005C136.939 28.94 136.879 28.92 136.825 28.88C136.785 28.8267 136.765 28.7667 136.765 28.7C136.765 28.3533 136.592 28.0667 136.245 27.84C135.912 27.6 135.452 27.48 134.865 27.48C134.345 27.48 133.919 27.58 133.585 27.78C133.265 27.9667 133.105 28.2333 133.105 28.58C133.105 28.9 133.259 29.1467 133.565 29.32C133.885 29.48 134.412 29.66 135.145 29.86L135.585 29.98C136.292 30.1933 136.885 30.4133 137.365 30.64C137.845 30.8533 138.252 31.16 138.585 31.56C138.919 31.9467 139.085 32.4533 139.085 33.08C139.085 34.0267 138.712 34.7733 137.965 35.32C137.219 35.8533 136.225 36.12 134.985 36.12ZM150.473 27.42C150.473 27.4867 150.446 27.5467 150.393 27.6C150.353 27.64 150.299 27.66 150.233 27.66H148.193C148.126 27.66 148.093 27.6933 148.093 27.76V32.58C148.093 33.0867 148.199 33.4533 148.413 33.68C148.639 33.9067 148.993 34.02 149.473 34.02H150.073C150.139 34.02 150.193 34.0467 150.233 34.1C150.286 34.14 150.313 34.1933 150.313 34.26V35.76C150.313 35.9067 150.233 35.9933 150.073 36.02L149.033 36.04C147.979 36.04 147.193 35.86 146.673 35.5C146.153 35.14 145.886 34.46 145.873 33.46V27.76C145.873 27.6933 145.839 27.66 145.773 27.66H144.633C144.566 27.66 144.506 27.64 144.453 27.6C144.413 27.5467 144.393 27.4867 144.393 27.42V26.02C144.393 25.9533 144.413 25.9 144.453 25.86C144.506 25.8067 144.566 25.78 144.633 25.78H145.773C145.839 25.78 145.873 25.7467 145.873 25.68V23.34C145.873 23.2733 145.893 23.22 145.933 23.18C145.986 23.1267 146.046 23.1 146.113 23.1H147.853C147.919 23.1 147.973 23.1267 148.013 23.18C148.066 23.22 148.093 23.2733 148.093 23.34V25.68C148.093 25.7467 148.126 25.78 148.193 25.78H150.233C150.299 25.78 150.353 25.8067 150.393 25.86C150.446 25.9 150.473 25.9533 150.473 26.02V27.42ZM156.678 36.16C155.624 36.16 154.718 35.8933 153.958 35.36C153.211 34.8267 152.684 34.0867 152.378 33.14C152.151 32.42 152.038 31.66 152.038 30.86C152.038 30.0067 152.144 29.2467 152.358 28.58C152.664 27.6467 153.198 26.92 153.958 26.4C154.718 25.88 155.631 25.62 156.698 25.62C157.711 25.62 158.584 25.88 159.318 26.4C160.064 26.92 160.591 27.64 160.898 28.56C161.138 29.2 161.258 29.96 161.258 30.84C161.258 31.68 161.144 32.44 160.918 33.12C160.611 34.0667 160.084 34.8133 159.338 35.36C158.591 35.8933 157.704 36.16 156.678 36.16ZM156.678 34.16C157.171 34.16 157.591 34.02 157.938 33.74C158.298 33.46 158.558 33.0667 158.718 32.56C158.851 32.12 158.918 31.56 158.918 30.88C158.918 30.16 158.851 29.6 158.718 29.2C158.571 28.6933 158.318 28.3067 157.958 28.04C157.598 27.76 157.158 27.62 156.638 27.62C156.144 27.62 155.718 27.76 155.358 28.04C154.998 28.3067 154.738 28.6933 154.578 29.2C154.444 29.6667 154.378 30.2267 154.378 30.88C154.378 31.5333 154.444 32.0933 154.578 32.56C154.724 33.0667 154.978 33.46 155.338 33.74C155.711 34.02 156.158 34.16 156.678 34.16ZM172.775 25.76C172.842 25.76 172.895 25.7867 172.935 25.84C172.988 25.88 173.015 25.9333 173.015 26V27.58C173.015 27.6467 172.988 27.7067 172.935 27.76C172.895 27.8 172.842 27.82 172.775 27.82H170.795C170.728 27.82 170.695 27.8533 170.695 27.92V35.76C170.695 35.8267 170.668 35.8867 170.615 35.94C170.575 35.98 170.522 36 170.455 36H168.615C168.548 36 168.488 35.98 168.435 35.94C168.395 35.8867 168.375 35.8267 168.375 35.76V27.92C168.375 27.8533 168.342 27.82 168.275 27.82H167.035C166.968 27.82 166.908 27.8 166.855 27.76C166.815 27.7067 166.795 27.6467 166.795 27.58V26C166.795 25.9333 166.815 25.88 166.855 25.84C166.908 25.7867 166.968 25.76 167.035 25.76H168.275C168.342 25.76 168.375 25.7267 168.375 25.66V25.3C168.375 24.4333 168.488 23.7667 168.715 23.3C168.942 22.82 169.315 22.48 169.835 22.28C170.355 22.08 171.088 21.9867 172.035 22H172.735C172.802 22 172.855 22.0267 172.895 22.08C172.948 22.12 172.975 22.1733 172.975 22.24V23.64C172.975 23.7067 172.948 23.7667 172.895 23.82C172.855 23.86 172.802 23.88 172.735 23.88H172.215C171.642 23.88 171.242 23.9933 171.015 24.22C170.802 24.4467 170.695 24.86 170.695 25.46V25.66C170.695 25.7267 170.728 25.76 170.795 25.76H172.775ZM176.295 24.38C175.882 24.38 175.542 24.2467 175.275 23.98C175.008 23.7133 174.875 23.3733 174.875 22.96C174.875 22.5467 175.008 22.2067 175.275 21.94C175.542 21.6733 175.882 21.54 176.295 21.54C176.708 21.54 177.048 21.6733 177.315 21.94C177.582 22.2067 177.715 22.5467 177.715 22.96C177.715 23.3733 177.582 23.7133 177.315 23.98C177.048 24.2467 176.708 24.38 176.295 24.38ZM175.335 36C175.268 36 175.208 35.98 175.155 35.94C175.115 35.8867 175.095 35.8267 175.095 35.76V26C175.095 25.9333 175.115 25.88 175.155 25.84C175.208 25.7867 175.268 25.76 175.335 25.76H177.175C177.242 25.76 177.295 25.7867 177.335 25.84C177.388 25.88 177.415 25.9333 177.415 26V35.76C177.415 35.8267 177.388 35.8867 177.335 35.94C177.295 35.98 177.242 36 177.175 36H175.335ZM184.972 25.62C186.052 25.62 186.912 25.94 187.552 26.58C188.205 27.22 188.532 28.0933 188.532 29.2V35.76C188.532 35.8267 188.505 35.8867 188.452 35.94C188.412 35.98 188.359 36 188.292 36H186.452C186.385 36 186.325 35.98 186.272 35.94C186.232 35.8867 186.212 35.8267 186.212 35.76V29.68C186.212 29.0667 186.039 28.5733 185.692 28.2C185.345 27.8133 184.885 27.62 184.312 27.62C183.739 27.62 183.272 27.8067 182.912 28.18C182.565 28.5533 182.392 29.0467 182.392 29.66V35.76C182.392 35.8267 182.365 35.8867 182.312 35.94C182.272 35.98 182.219 36 182.152 36H180.312C180.245 36 180.185 35.98 180.132 35.94C180.092 35.8867 180.072 35.8267 180.072 35.76V26.02C180.072 25.9533 180.092 25.9 180.132 25.86C180.185 25.8067 180.245 25.78 180.312 25.78H182.152C182.219 25.78 182.272 25.8067 182.312 25.86C182.365 25.9 182.392 25.9533 182.392 26.02V26.66C182.392 26.7 182.405 26.7267 182.432 26.74C182.459 26.7533 182.479 26.74 182.492 26.7C183.039 25.98 183.865 25.62 184.972 25.62ZM197.213 22.24C197.213 22.1733 197.233 22.12 197.273 22.08C197.326 22.0267 197.386 22 197.453 22H199.293C199.359 22 199.413 22.0267 199.453 22.08C199.506 22.12 199.533 22.1733 199.533 22.24V35.76C199.533 35.8267 199.506 35.8867 199.453 35.94C199.413 35.98 199.359 36 199.293 36H197.453C197.386 36 197.326 35.98 197.273 35.94C197.233 35.8867 197.213 35.8267 197.213 35.76V35.16C197.213 35.12 197.199 35.0933 197.173 35.08C197.146 35.0667 197.119 35.08 197.093 35.12C196.506 35.8133 195.739 36.16 194.793 36.16C193.846 36.16 193.046 35.9133 192.393 35.42C191.739 34.9267 191.266 34.24 190.973 33.36C190.733 32.6133 190.613 31.78 190.613 30.86C190.613 29.9133 190.726 29.1 190.953 28.42C191.246 27.54 191.719 26.8533 192.373 26.36C193.026 25.8667 193.846 25.62 194.833 25.62C195.753 25.62 196.506 25.9533 197.093 26.62C197.119 26.6467 197.146 26.66 197.173 26.66C197.199 26.6467 197.213 26.62 197.213 26.58V22.24ZM196.733 33.2C197.039 32.6533 197.193 31.88 197.193 30.88C197.193 29.84 197.026 29.0467 196.693 28.5C196.333 27.9133 195.826 27.62 195.173 27.62C194.493 27.62 193.959 27.9 193.573 28.46C193.173 29.0467 192.973 29.86 192.973 30.9C192.973 31.8333 193.133 32.6 193.453 33.2C193.826 33.84 194.393 34.16 195.153 34.16C195.833 34.16 196.359 33.84 196.733 33.2ZM21.58 60.16C20.5267 60.16 19.62 59.8933 18.86 59.36C18.1133 58.8267 17.5867 58.0867 17.28 57.14C17.0533 56.42 16.94 55.66 16.94 54.86C16.94 54.0067 17.0467 53.2467 17.26 52.58C17.5667 51.6467 18.1 50.92 18.86 50.4C19.62 49.88 20.5333 49.62 21.6 49.62C22.6133 49.62 23.4867 49.88 24.22 50.4C24.9667 50.92 25.4933 51.64 25.8 52.56C26.04 53.2 26.16 53.96 26.16 54.84C26.16 55.68 26.0467 56.44 25.82 57.12C25.5133 58.0667 24.9867 58.8133 24.24 59.36C23.4933 59.8933 22.6067 60.16 21.58 60.16ZM21.58 58.16C22.0733 58.16 22.4933 58.02 22.84 57.74C23.2 57.46 23.46 57.0667 23.62 56.56C23.7533 56.12 23.82 55.56 23.82 54.88C23.82 54.16 23.7533 53.6 23.62 53.2C23.4733 52.6933 23.22 52.3067 22.86 52.04C22.5 51.76 22.06 51.62 21.54 51.62C21.0467 51.62 20.62 51.76 20.26 52.04C19.9 52.3067 19.64 52.6933 19.48 53.2C19.3467 53.6667 19.28 54.2267 19.28 54.88C19.28 55.5333 19.3467 56.0933 19.48 56.56C19.6267 57.0667 19.88 57.46 20.24 57.74C20.6133 58.02 21.06 58.16 21.58 58.16ZM34.3933 50.02C34.3933 49.9533 34.4133 49.9 34.4533 49.86C34.5066 49.8067 34.5666 49.78 34.6333 49.78H36.4533C36.5199 49.78 36.5733 49.8067 36.6133 49.86C36.6666 49.9 36.6933 49.9533 36.6933 50.02V59.76C36.6933 59.8267 36.6666 59.8867 36.6133 59.94C36.5733 59.98 36.5199 60 36.4533 60H34.6333C34.5666 60 34.5066 59.98 34.4533 59.94C34.4133 59.8867 34.3933 59.8267 34.3933 59.76V59.12C34.3933 59.08 34.3799 59.0533 34.3533 59.04C34.3266 59.0267 34.2999 59.04 34.2733 59.08C33.7266 59.7867 32.9066 60.14 31.8133 60.14C30.7999 60.14 29.9466 59.8467 29.2533 59.26C28.5733 58.6733 28.2333 57.84 28.2333 56.76V50.02C28.2333 49.9533 28.2533 49.9 28.2933 49.86C28.3466 49.8067 28.4066 49.78 28.4733 49.78H30.3133C30.3799 49.78 30.4333 49.8067 30.4733 49.86C30.5266 49.9 30.5533 49.9533 30.5533 50.02V56.1C30.5533 56.7267 30.7133 57.2267 31.0333 57.6C31.3666 57.9733 31.8266 58.16 32.4133 58.16C33.0133 58.16 33.4933 57.9733 33.8533 57.6C34.2133 57.2267 34.3933 56.7267 34.3933 56.1V50.02ZM44.5936 51.42C44.5936 51.4867 44.5669 51.5467 44.5136 51.6C44.4736 51.64 44.4203 51.66 44.3536 51.66H42.3136C42.2469 51.66 42.2136 51.6933 42.2136 51.76V56.58C42.2136 57.0867 42.3203 57.4533 42.5336 57.68C42.7603 57.9067 43.1136 58.02 43.5936 58.02H44.1936C44.2603 58.02 44.3136 58.0467 44.3536 58.1C44.4069 58.14 44.4336 58.1933 44.4336 58.26V59.76C44.4336 59.9067 44.3536 59.9933 44.1936 60.02L43.1536 60.04C42.1003 60.04 41.3136 59.86 40.7936 59.5C40.2736 59.14 40.0069 58.46 39.9936 57.46V51.76C39.9936 51.6933 39.9603 51.66 39.8936 51.66H38.7536C38.6869 51.66 38.6269 51.64 38.5736 51.6C38.5336 51.5467 38.5136 51.4867 38.5136 51.42V50.02C38.5136 49.9533 38.5336 49.9 38.5736 49.86C38.6269 49.8067 38.6869 49.78 38.7536 49.78H39.8936C39.9603 49.78 39.9936 49.7467 39.9936 49.68V47.34C39.9936 47.2733 40.0136 47.22 40.0536 47.18C40.1069 47.1267 40.1669 47.1 40.2336 47.1H41.9736C42.0403 47.1 42.0936 47.1267 42.1336 47.18C42.1869 47.22 42.2136 47.2733 42.2136 47.34V49.68C42.2136 49.7467 42.2469 49.78 42.3136 49.78H44.3536C44.4203 49.78 44.4736 49.8067 44.5136 49.86C44.5669 49.9 44.5936 49.9533 44.5936 50.02V51.42ZM56.078 51.42C56.078 51.4867 56.0513 51.5467 55.998 51.6C55.958 51.64 55.9046 51.66 55.838 51.66H53.798C53.7313 51.66 53.698 51.6933 53.698 51.76V56.58C53.698 57.0867 53.8046 57.4533 54.018 57.68C54.2446 57.9067 54.598 58.02 55.078 58.02H55.678C55.7446 58.02 55.798 58.0467 55.838 58.1C55.8913 58.14 55.918 58.1933 55.918 58.26V59.76C55.918 59.9067 55.838 59.9933 55.678 60.02L54.638 60.04C53.5846 60.04 52.798 59.86 52.278 59.5C51.758 59.14 51.4913 58.46 51.478 57.46V51.76C51.478 51.6933 51.4446 51.66 51.378 51.66H50.238C50.1713 51.66 50.1113 51.64 50.058 51.6C50.018 51.5467 49.998 51.4867 49.998 51.42V50.02C49.998 49.9533 50.018 49.9 50.058 49.86C50.1113 49.8067 50.1713 49.78 50.238 49.78H51.378C51.4446 49.78 51.478 49.7467 51.478 49.68V47.34C51.478 47.2733 51.498 47.22 51.538 47.18C51.5913 47.1267 51.6513 47.1 51.718 47.1H53.458C53.5246 47.1 53.578 47.1267 53.618 47.18C53.6713 47.22 53.698 47.2733 53.698 47.34V49.68C53.698 49.7467 53.7313 49.78 53.798 49.78H55.838C55.9046 49.78 55.958 49.8067 55.998 49.86C56.0513 49.9 56.078 49.9533 56.078 50.02V51.42ZM63.0384 49.62C64.1184 49.62 64.9784 49.94 65.6184 50.58C66.2718 51.22 66.5984 52.0933 66.5984 53.2V59.76C66.5984 59.8267 66.5718 59.8867 66.5184 59.94C66.4784 59.98 66.4251 60 66.3584 60H64.5184C64.4518 60 64.3918 59.98 64.3384 59.94C64.2984 59.8867 64.2784 59.8267 64.2784 59.76V53.68C64.2784 53.0667 64.1051 52.5733 63.7584 52.2C63.4118 51.8133 62.9518 51.62 62.3784 51.62C61.8051 51.62 61.3384 51.8067 60.9784 52.18C60.6318 52.5533 60.4584 53.0467 60.4584 53.66V59.76C60.4584 59.8267 60.4318 59.8867 60.3784 59.94C60.3384 59.98 60.2851 60 60.2184 60H58.3784C58.3118 60 58.2518 59.98 58.1984 59.94C58.1584 59.8867 58.1384 59.8267 58.1384 59.76V46.24C58.1384 46.1733 58.1584 46.12 58.1984 46.08C58.2518 46.0267 58.3118 46 58.3784 46H60.2184C60.2851 46 60.3384 46.0267 60.3784 46.08C60.4318 46.12 60.4584 46.1733 60.4584 46.24V50.66C60.4584 50.7 60.4718 50.7267 60.4984 50.74C60.5251 50.7533 60.5451 50.74 60.5584 50.7C61.1051 49.98 61.9318 49.62 63.0384 49.62ZM77.5592 53.74C77.6126 54.0733 77.6392 54.4467 77.6392 54.86L77.6192 55.48C77.6192 55.64 77.5392 55.72 77.3792 55.72H71.1192C71.0526 55.72 71.0192 55.7533 71.0192 55.82C71.0592 56.26 71.1192 56.56 71.1992 56.72C71.5192 57.68 72.2992 58.1667 73.5392 58.18C74.4459 58.18 75.1659 57.8067 75.6992 57.06C75.7526 56.98 75.8192 56.94 75.8992 56.94C75.9526 56.94 75.9992 56.96 76.0392 57L77.2792 58.02C77.3992 58.1133 77.4192 58.22 77.3392 58.34C76.9259 58.9267 76.3726 59.38 75.6792 59.7C74.9992 60.02 74.2392 60.18 73.3992 60.18C72.3592 60.18 71.4726 59.9467 70.7392 59.48C70.0192 59.0133 69.4926 58.36 69.1592 57.52C68.8526 56.8 68.6992 55.8 68.6992 54.52C68.6992 53.7467 68.7792 53.12 68.9392 52.64C69.2059 51.7067 69.7059 50.9733 70.4392 50.44C71.1859 49.8933 72.0792 49.62 73.1192 49.62C75.7459 49.62 77.2259 50.9933 77.5592 53.74ZM73.1192 51.62C72.6259 51.62 72.2126 51.7467 71.8792 52C71.5592 52.24 71.3326 52.58 71.1992 53.02C71.1192 53.2467 71.0659 53.54 71.0392 53.9C71.0126 53.9667 71.0392 54 71.1192 54H75.1792C75.2459 54 75.2792 53.9667 75.2792 53.9C75.2526 53.5667 75.2126 53.3133 75.1592 53.14C75.0392 52.66 74.7992 52.2867 74.4392 52.02C74.0926 51.7533 73.6526 51.62 73.1192 51.62ZM88.5234 49.66C88.9501 49.66 89.3234 49.7467 89.6434 49.92C89.7501 49.9733 89.7901 50.0733 89.7634 50.22L89.4234 52.02C89.4101 52.18 89.3168 52.2267 89.1434 52.16C88.9434 52.0933 88.7101 52.06 88.4434 52.06C88.2701 52.06 88.1368 52.0667 88.0434 52.08C87.4834 52.1067 87.0168 52.3067 86.6434 52.68C86.2701 53.04 86.0834 53.5133 86.0834 54.1V59.76C86.0834 59.8267 86.0568 59.8867 86.0034 59.94C85.9634 59.98 85.9101 60 85.8434 60H84.0034C83.9368 60 83.8768 59.98 83.8234 59.94C83.7834 59.8867 83.7634 59.8267 83.7634 59.76V50.02C83.7634 49.9533 83.7834 49.9 83.8234 49.86C83.8768 49.8067 83.9368 49.78 84.0034 49.78H85.8434C85.9101 49.78 85.9634 49.8067 86.0034 49.86C86.0568 49.9 86.0834 49.9533 86.0834 50.02V50.92C86.0834 50.9733 86.0901 51.0067 86.1034 51.02C86.1301 51.02 86.1568 51 86.1834 50.96C86.7434 50.0933 87.5234 49.66 88.5234 49.66ZM92.603 48.38C92.1896 48.38 91.8496 48.2467 91.583 47.98C91.3163 47.7133 91.183 47.3733 91.183 46.96C91.183 46.5467 91.3163 46.2067 91.583 45.94C91.8496 45.6733 92.1896 45.54 92.603 45.54C93.0163 45.54 93.3563 45.6733 93.623 45.94C93.8896 46.2067 94.023 46.5467 94.023 46.96C94.023 47.3733 93.8896 47.7133 93.623 47.98C93.3563 48.2467 93.0163 48.38 92.603 48.38ZM91.643 60C91.5763 60 91.5163 59.98 91.463 59.94C91.423 59.8867 91.403 59.8267 91.403 59.76V50C91.403 49.9333 91.423 49.88 91.463 49.84C91.5163 49.7867 91.5763 49.76 91.643 49.76H93.483C93.5496 49.76 93.603 49.7867 93.643 49.84C93.6963 49.88 93.723 49.9333 93.723 50V59.76C93.723 59.8267 93.6963 59.8867 93.643 59.94C93.603 59.98 93.5496 60 93.483 60H91.643ZM102.641 50.02C102.641 49.9533 102.661 49.9 102.701 49.86C102.754 49.8067 102.814 49.78 102.881 49.78H104.721C104.787 49.78 104.841 49.8067 104.881 49.86C104.934 49.9 104.961 49.9533 104.961 50.02V59.32C104.961 60.9867 104.481 62.1733 103.521 62.88C102.574 63.6 101.327 63.96 99.7806 63.96C99.3673 63.96 98.9606 63.94 98.5606 63.9C98.414 63.8867 98.3406 63.8 98.3406 63.64L98.4006 62C98.4006 61.8533 98.494 61.78 98.6806 61.78C99.0673 61.82 99.414 61.84 99.7206 61.84C100.721 61.84 101.454 61.64 101.921 61.24C102.401 60.8533 102.641 60.1933 102.641 59.26V59.1C102.641 59.06 102.627 59.04 102.601 59.04C102.574 59.0267 102.547 59.0333 102.521 59.06C101.974 59.6467 101.201 59.94 100.201 59.94C99.334 59.94 98.5406 59.72 97.8206 59.28C97.1006 58.84 96.6006 58.1667 96.3206 57.26C96.1473 56.6333 96.0606 55.8267 96.0606 54.84C96.0606 53.7333 96.1673 52.8867 96.3806 52.3C96.6473 51.4867 97.1073 50.84 97.7606 50.36C98.414 49.8667 99.1806 49.62 100.061 49.62C101.114 49.62 101.934 49.9267 102.521 50.54C102.547 50.58 102.574 50.5933 102.601 50.58C102.627 50.5667 102.641 50.54 102.641 50.5V50.02ZM102.501 56.6C102.554 56.4 102.587 56.1867 102.601 55.96C102.627 55.72 102.641 55.34 102.641 54.82C102.641 54.3133 102.627 53.9533 102.601 53.74C102.587 53.5133 102.547 53.2933 102.481 53.08C102.374 52.64 102.154 52.2867 101.821 52.02C101.501 51.7533 101.087 51.62 100.581 51.62C100.101 51.62 99.694 51.7533 99.3606 52.02C99.0273 52.2867 98.7873 52.64 98.6406 53.08C98.4806 53.4533 98.4006 54.04 98.4006 54.84C98.4006 55.6667 98.4673 56.2467 98.6006 56.58C98.734 57.0067 98.974 57.36 99.3206 57.64C99.6806 57.9067 100.107 58.04 100.601 58.04C101.121 58.04 101.541 57.9067 101.861 57.64C102.181 57.3733 102.394 57.0267 102.501 56.6ZM112.257 49.62C113.337 49.62 114.197 49.94 114.837 50.58C115.491 51.22 115.817 52.0933 115.817 53.2V59.76C115.817 59.8267 115.791 59.8867 115.737 59.94C115.697 59.98 115.644 60 115.577 60H113.737C113.671 60 113.611 59.98 113.557 59.94C113.517 59.8867 113.497 59.8267 113.497 59.76V53.68C113.497 53.0667 113.324 52.5733 112.977 52.2C112.631 51.8133 112.171 51.62 111.597 51.62C111.024 51.62 110.557 51.8067 110.197 52.18C109.851 52.5533 109.677 53.0467 109.677 53.66V59.76C109.677 59.8267 109.651 59.8867 109.597 59.94C109.557 59.98 109.504 60 109.437 60H107.597C107.531 60 107.471 59.98 107.417 59.94C107.377 59.8867 107.357 59.8267 107.357 59.76V46.24C107.357 46.1733 107.377 46.12 107.417 46.08C107.471 46.0267 107.531 46 107.597 46H109.437C109.504 46 109.557 46.0267 109.597 46.08C109.651 46.12 109.677 46.1733 109.677 46.24V50.66C109.677 50.7 109.691 50.7267 109.717 50.74C109.744 50.7533 109.764 50.74 109.777 50.7C110.324 49.98 111.151 49.62 112.257 49.62ZM123.656 51.42C123.656 51.4867 123.629 51.5467 123.576 51.6C123.536 51.64 123.483 51.66 123.416 51.66H121.376C121.309 51.66 121.276 51.6933 121.276 51.76V56.58C121.276 57.0867 121.383 57.4533 121.596 57.68C121.823 57.9067 122.176 58.02 122.656 58.02H123.256C123.323 58.02 123.376 58.0467 123.416 58.1C123.469 58.14 123.496 58.1933 123.496 58.26V59.76C123.496 59.9067 123.416 59.9933 123.256 60.02L122.216 60.04C121.163 60.04 120.376 59.86 119.856 59.5C119.336 59.14 119.069 58.46 119.056 57.46V51.76C119.056 51.6933 119.023 51.66 118.956 51.66H117.816C117.749 51.66 117.689 51.64 117.636 51.6C117.596 51.5467 117.576 51.4867 117.576 51.42V50.02C117.576 49.9533 117.596 49.9 117.636 49.86C117.689 49.8067 117.749 49.78 117.816 49.78H118.956C119.023 49.78 119.056 49.7467 119.056 49.68V47.34C119.056 47.2733 119.076 47.22 119.116 47.18C119.169 47.1267 119.229 47.1 119.296 47.1H121.036C121.103 47.1 121.156 47.1267 121.196 47.18C121.249 47.22 121.276 47.2733 121.276 47.34V49.68C121.276 49.7467 121.309 49.78 121.376 49.78H123.416C123.483 49.78 123.536 49.8067 123.576 49.86C123.629 49.9 123.656 49.9533 123.656 50.02V51.42ZM18.56 72.38C18.1467 72.38 17.8067 72.2467 17.54 71.98C17.2733 71.7133 17.14 71.3733 17.14 70.96C17.14 70.5467 17.2733 70.2067 17.54 69.94C17.8067 69.6733 18.1467 69.54 18.56 69.54C18.9733 69.54 19.3133 69.6733 19.58 69.94C19.8467 70.2067 19.98 70.5467 19.98 70.96C19.98 71.3733 19.8467 71.7133 19.58 71.98C19.3133 72.2467 18.9733 72.38 18.56 72.38ZM17.6 84C17.5333 84 17.4733 83.98 17.42 83.94C17.38 83.8867 17.36 83.8267 17.36 83.76V74C17.36 73.9333 17.38 73.88 17.42 73.84C17.4733 73.7867 17.5333 73.76 17.6 73.76H19.44C19.5067 73.76 19.56 73.7867 19.6 73.84C19.6533 73.88 19.68 73.9333 19.68 74V83.76C19.68 83.8267 19.6533 83.8867 19.6 83.94C19.56 83.98 19.5067 84 19.44 84H17.6ZM27.2377 73.62C28.3177 73.62 29.1777 73.94 29.8177 74.58C30.471 75.22 30.7977 76.0933 30.7977 77.2V83.76C30.7977 83.8267 30.771 83.8867 30.7177 83.94C30.6777 83.98 30.6243 84 30.5577 84H28.7177C28.651 84 28.591 83.98 28.5377 83.94C28.4977 83.8867 28.4777 83.8267 28.4777 83.76V77.68C28.4777 77.0667 28.3043 76.5733 27.9577 76.2C27.611 75.8133 27.151 75.62 26.5777 75.62C26.0043 75.62 25.5377 75.8067 25.1777 76.18C24.831 76.5533 24.6577 77.0467 24.6577 77.66V83.76C24.6577 83.8267 24.631 83.8867 24.5777 83.94C24.5377 83.98 24.4843 84 24.4177 84H22.5777C22.511 84 22.451 83.98 22.3977 83.94C22.3577 83.8867 22.3377 83.8267 22.3377 83.76V74.02C22.3377 73.9533 22.3577 73.9 22.3977 73.86C22.451 73.8067 22.511 73.78 22.5777 73.78H24.4177C24.4843 73.78 24.5377 73.8067 24.5777 73.86C24.631 73.9 24.6577 73.9533 24.6577 74.02V74.66C24.6577 74.7 24.671 74.7267 24.6977 74.74C24.7243 74.7533 24.7443 74.74 24.7577 74.7C25.3043 73.98 26.131 73.62 27.2377 73.62ZM35.625 84C35.4917 84 35.405 83.9333 35.365 83.8L32.145 74.04C32.1317 74.0133 32.125 73.98 32.125 73.94C32.125 73.82 32.1983 73.76 32.345 73.76H34.385C34.5317 73.76 34.625 73.8267 34.665 73.96L36.605 80.64C36.6183 80.68 36.6383 80.7 36.665 80.7C36.6917 80.7 36.7117 80.68 36.725 80.64L38.665 73.96C38.705 73.8267 38.7983 73.76 38.945 73.76L40.985 73.8C41.065 73.8 41.125 73.8267 41.165 73.88C41.205 73.92 41.2117 73.9867 41.185 74.08L37.985 83.8C37.945 83.9333 37.8583 84 37.725 84H35.625ZM51.0163 77.74C51.0696 78.0733 51.0963 78.4467 51.0963 78.86L51.0763 79.48C51.0763 79.64 50.9963 79.72 50.8363 79.72H44.5763C44.5096 79.72 44.4763 79.7533 44.4763 79.82C44.5163 80.26 44.5763 80.56 44.6563 80.72C44.9763 81.68 45.7563 82.1667 46.9963 82.18C47.9029 82.18 48.6229 81.8067 49.1563 81.06C49.2096 80.98 49.2763 80.94 49.3563 80.94C49.4096 80.94 49.4563 80.96 49.4963 81L50.7363 82.02C50.8563 82.1133 50.8763 82.22 50.7963 82.34C50.3829 82.9267 49.8296 83.38 49.1363 83.7C48.4563 84.02 47.6963 84.18 46.8563 84.18C45.8163 84.18 44.9296 83.9467 44.1963 83.48C43.4763 83.0133 42.9496 82.36 42.6163 81.52C42.3096 80.8 42.1563 79.8 42.1563 78.52C42.1563 77.7467 42.2363 77.12 42.3963 76.64C42.6629 75.7067 43.1629 74.9733 43.8963 74.44C44.6429 73.8933 45.5363 73.62 46.5763 73.62C49.2029 73.62 50.6829 74.9933 51.0163 77.74ZM46.5763 75.62C46.0829 75.62 45.6696 75.7467 45.3363 76C45.0163 76.24 44.7896 76.58 44.6563 77.02C44.5763 77.2467 44.5229 77.54 44.4963 77.9C44.4696 77.9667 44.4963 78 44.5763 78H48.6363C48.7029 78 48.7363 77.9667 48.7363 77.9C48.7096 77.5667 48.6696 77.3133 48.6163 77.14C48.4963 76.66 48.2563 76.2867 47.8963 76.02C47.5496 75.7533 47.1096 75.62 46.5763 75.62ZM56.8603 84.12C56.0203 84.12 55.2803 84 54.6403 83.76C54.0136 83.5067 53.527 83.1667 53.1803 82.74C52.8336 82.3 52.6603 81.8133 52.6603 81.28V81.1C52.6603 81.0333 52.6803 80.98 52.7203 80.94C52.7736 80.8867 52.8336 80.86 52.9003 80.86H54.6603C54.727 80.86 54.7803 80.8867 54.8203 80.94C54.8736 80.98 54.9003 81.0333 54.9003 81.1V81.14C54.9003 81.4733 55.0803 81.7667 55.4403 82.02C55.8136 82.26 56.2803 82.38 56.8403 82.38C57.3736 82.38 57.807 82.2733 58.1403 82.06C58.4736 81.8333 58.6403 81.5533 58.6403 81.22C58.6403 80.9133 58.5003 80.6867 58.2203 80.54C57.9536 80.38 57.5136 80.2133 56.9003 80.04L56.1403 79.8C55.4603 79.6 54.887 79.3867 54.4203 79.16C53.9536 78.9333 53.5603 78.6267 53.2403 78.24C52.9203 77.84 52.7603 77.3333 52.7603 76.72C52.7603 75.7867 53.127 75.0467 53.8603 74.5C54.5936 73.94 55.5603 73.66 56.7603 73.66C57.5736 73.66 58.287 73.7933 58.9003 74.06C59.5136 74.3133 59.987 74.6733 60.3203 75.14C60.6536 75.5933 60.8203 76.1133 60.8203 76.7C60.8203 76.7667 60.7936 76.8267 60.7403 76.88C60.7003 76.92 60.647 76.94 60.5803 76.94H58.8803C58.8136 76.94 58.7536 76.92 58.7003 76.88C58.6603 76.8267 58.6403 76.7667 58.6403 76.7C58.6403 76.3533 58.467 76.0667 58.1203 75.84C57.787 75.6 57.327 75.48 56.7403 75.48C56.2203 75.48 55.7936 75.58 55.4603 75.78C55.1403 75.9667 54.9803 76.2333 54.9803 76.58C54.9803 76.9 55.1336 77.1467 55.4403 77.32C55.7603 77.48 56.287 77.66 57.0203 77.86L57.4603 77.98C58.167 78.1933 58.7603 78.4133 59.2403 78.64C59.7203 78.8533 60.127 79.16 60.4603 79.56C60.7936 79.9467 60.9603 80.4533 60.9603 81.08C60.9603 82.0267 60.587 82.7733 59.8403 83.32C59.0936 83.8533 58.1003 84.12 56.8603 84.12ZM68.3241 75.42C68.3241 75.4867 68.2974 75.5467 68.2441 75.6C68.2041 75.64 68.1507 75.66 68.0841 75.66H66.0441C65.9774 75.66 65.9441 75.6933 65.9441 75.76V80.58C65.9441 81.0867 66.0507 81.4533 66.2641 81.68C66.4907 81.9067 66.8441 82.02 67.3241 82.02H67.9241C67.9907 82.02 68.0441 82.0467 68.0841 82.1C68.1374 82.14 68.1641 82.1933 68.1641 82.26V83.76C68.1641 83.9067 68.0841 83.9933 67.9241 84.02L66.8841 84.04C65.8307 84.04 65.0441 83.86 64.5241 83.5C64.0041 83.14 63.7374 82.46 63.7241 81.46V75.76C63.7241 75.6933 63.6907 75.66 63.6241 75.66H62.4841C62.4174 75.66 62.3574 75.64 62.3041 75.6C62.2641 75.5467 62.2441 75.4867 62.2441 75.42V74.02C62.2441 73.9533 62.2641 73.9 62.3041 73.86C62.3574 73.8067 62.4174 73.78 62.4841 73.78H63.6241C63.6907 73.78 63.7241 73.7467 63.7241 73.68V71.34C63.7241 71.2733 63.7441 71.22 63.7841 71.18C63.8374 71.1267 63.8974 71.1 63.9641 71.1H65.7041C65.7707 71.1 65.8241 71.1267 65.8641 71.18C65.9174 71.22 65.9441 71.2733 65.9441 71.34V73.68C65.9441 73.7467 65.9774 73.78 66.0441 73.78H68.0841C68.1507 73.78 68.2041 73.8067 68.2441 73.86C68.2974 73.9 68.3241 73.9533 68.3241 74.02V75.42ZM81.3245 73.62C82.3512 73.62 83.1512 73.9333 83.7245 74.56C84.3112 75.1733 84.6045 76.0333 84.6045 77.14V83.76C84.6045 83.8267 84.5779 83.8867 84.5245 83.94C84.4845 83.98 84.4312 84 84.3645 84H82.5445C82.4779 84 82.4179 83.98 82.3645 83.94C82.3245 83.8867 82.3045 83.8267 82.3045 83.76V77.62C82.3045 77.0067 82.1379 76.52 81.8045 76.16C81.4845 75.8 81.0512 75.62 80.5045 75.62C79.9579 75.62 79.5112 75.8 79.1645 76.16C78.8179 76.52 78.6445 77 78.6445 77.6V83.76C78.6445 83.8267 78.6179 83.8867 78.5645 83.94C78.5245 83.98 78.4712 84 78.4045 84H76.5845C76.5179 84 76.4579 83.98 76.4045 83.94C76.3645 83.8867 76.3445 83.8267 76.3445 83.76V77.62C76.3445 77.0067 76.1779 76.52 75.8445 76.16C75.5112 75.8 75.0712 75.62 74.5245 75.62C74.0179 75.62 73.5979 75.7667 73.2645 76.06C72.9445 76.3533 72.7579 76.7533 72.7045 77.26V83.76C72.7045 83.8267 72.6779 83.8867 72.6245 83.94C72.5845 83.98 72.5312 84 72.4645 84H70.6245C70.5579 84 70.4979 83.98 70.4445 83.94C70.4045 83.8867 70.3845 83.8267 70.3845 83.76V74.02C70.3845 73.9533 70.4045 73.9 70.4445 73.86C70.4979 73.8067 70.5579 73.78 70.6245 73.78H72.4645C72.5312 73.78 72.5845 73.8067 72.6245 73.86C72.6779 73.9 72.7045 73.9533 72.7045 74.02V74.68C72.7045 74.72 72.7179 74.7467 72.7445 74.76C72.7712 74.7733 72.7979 74.76 72.8245 74.72C73.1179 74.3467 73.4779 74.0733 73.9045 73.9C74.3445 73.7133 74.8312 73.62 75.3645 73.62C76.0179 73.62 76.5912 73.7533 77.0845 74.02C77.5779 74.2867 77.9579 74.6733 78.2245 75.18C78.2645 75.2333 78.3112 75.2333 78.3645 75.18C78.6579 74.6467 79.0645 74.2533 79.5845 74C80.1045 73.7467 80.6845 73.62 81.3245 73.62ZM95.5084 77.74C95.5618 78.0733 95.5884 78.4467 95.5884 78.86L95.5684 79.48C95.5684 79.64 95.4884 79.72 95.3284 79.72H89.0684C89.0018 79.72 88.9684 79.7533 88.9684 79.82C89.0084 80.26 89.0684 80.56 89.1484 80.72C89.4684 81.68 90.2484 82.1667 91.4884 82.18C92.3951 82.18 93.1151 81.8067 93.6484 81.06C93.7018 80.98 93.7684 80.94 93.8484 80.94C93.9018 80.94 93.9484 80.96 93.9884 81L95.2284 82.02C95.3484 82.1133 95.3684 82.22 95.2884 82.34C94.8751 82.9267 94.3218 83.38 93.6284 83.7C92.9484 84.02 92.1884 84.18 91.3484 84.18C90.3084 84.18 89.4218 83.9467 88.6884 83.48C87.9684 83.0133 87.4418 82.36 87.1084 81.52C86.8018 80.8 86.6484 79.8 86.6484 78.52C86.6484 77.7467 86.7284 77.12 86.8884 76.64C87.1551 75.7067 87.6551 74.9733 88.3884 74.44C89.1351 73.8933 90.0284 73.62 91.0684 73.62C93.6951 73.62 95.1751 74.9933 95.5084 77.74ZM91.0684 75.62C90.5751 75.62 90.1618 75.7467 89.8284 76C89.5084 76.24 89.2818 76.58 89.1484 77.02C89.0684 77.2467 89.0151 77.54 88.9884 77.9C88.9618 77.9667 88.9884 78 89.0684 78H93.1284C93.1951 78 93.2284 77.9667 93.2284 77.9C93.2018 77.5667 93.1618 77.3133 93.1084 77.14C92.9884 76.66 92.7484 76.2867 92.3884 76.02C92.0418 75.7533 91.6018 75.62 91.0684 75.62ZM102.609 73.62C103.689 73.62 104.549 73.94 105.189 74.58C105.842 75.22 106.169 76.0933 106.169 77.2V83.76C106.169 83.8267 106.142 83.8867 106.089 83.94C106.049 83.98 105.995 84 105.929 84H104.089C104.022 84 103.962 83.98 103.909 83.94C103.869 83.8867 103.849 83.8267 103.849 83.76V77.68C103.849 77.0667 103.675 76.5733 103.329 76.2C102.982 75.8133 102.522 75.62 101.949 75.62C101.375 75.62 100.909 75.8067 100.549 76.18C100.202 76.5533 100.029 77.0467 100.029 77.66V83.76C100.029 83.8267 100.002 83.8867 99.9488 83.94C99.9088 83.98 99.8554 84 99.7888 84H97.9488C97.8821 84 97.8221 83.98 97.7688 83.94C97.7288 83.8867 97.7088 83.8267 97.7088 83.76V74.02C97.7088 73.9533 97.7288 73.9 97.7688 73.86C97.8221 73.8067 97.8821 73.78 97.9488 73.78H99.7888C99.8554 73.78 99.9088 73.8067 99.9488 73.86C100.002 73.9 100.029 73.9533 100.029 74.02V74.66C100.029 74.7 100.042 74.7267 100.069 74.74C100.095 74.7533 100.115 74.74 100.129 74.7C100.675 73.98 101.502 73.62 102.609 73.62ZM114.008 75.42C114.008 75.4867 113.981 75.5467 113.928 75.6C113.888 75.64 113.834 75.66 113.768 75.66H111.728C111.661 75.66 111.628 75.6933 111.628 75.76V80.58C111.628 81.0867 111.734 81.4533 111.948 81.68C112.174 81.9067 112.528 82.02 113.008 82.02H113.608C113.674 82.02 113.728 82.0467 113.768 82.1C113.821 82.14 113.848 82.1933 113.848 82.26V83.76C113.848 83.9067 113.768 83.9933 113.608 84.02L112.568 84.04C111.514 84.04 110.728 83.86 110.208 83.5C109.688 83.14 109.421 82.46 109.408 81.46V75.76C109.408 75.6933 109.374 75.66 109.308 75.66H108.168C108.101 75.66 108.041 75.64 107.988 75.6C107.948 75.5467 107.928 75.4867 107.928 75.42V74.02C107.928 73.9533 107.948 73.9 107.988 73.86C108.041 73.8067 108.101 73.78 108.168 73.78H109.308C109.374 73.78 109.408 73.7467 109.408 73.68V71.34C109.408 71.2733 109.428 71.22 109.468 71.18C109.521 71.1267 109.581 71.1 109.648 71.1H111.388C111.454 71.1 111.508 71.1267 111.548 71.18C111.601 71.22 111.628 71.2733 111.628 71.34V73.68C111.628 73.7467 111.661 73.78 111.728 73.78H113.768C113.834 73.78 113.888 73.8067 113.928 73.86C113.981 73.9 114.008 73.9533 114.008 74.02V75.42ZM119.868 84.12C119.028 84.12 118.288 84 117.648 83.76C117.021 83.5067 116.535 83.1667 116.188 82.74C115.841 82.3 115.668 81.8133 115.668 81.28V81.1C115.668 81.0333 115.688 80.98 115.728 80.94C115.781 80.8867 115.841 80.86 115.908 80.86H117.668C117.735 80.86 117.788 80.8867 117.828 80.94C117.881 80.98 117.908 81.0333 117.908 81.1V81.14C117.908 81.4733 118.088 81.7667 118.448 82.02C118.821 82.26 119.288 82.38 119.848 82.38C120.381 82.38 120.815 82.2733 121.148 82.06C121.481 81.8333 121.648 81.5533 121.648 81.22C121.648 80.9133 121.508 80.6867 121.228 80.54C120.961 80.38 120.521 80.2133 119.908 80.04L119.148 79.8C118.468 79.6 117.895 79.3867 117.428 79.16C116.961 78.9333 116.568 78.6267 116.248 78.24C115.928 77.84 115.768 77.3333 115.768 76.72C115.768 75.7867 116.135 75.0467 116.868 74.5C117.601 73.94 118.568 73.66 119.768 73.66C120.581 73.66 121.295 73.7933 121.908 74.06C122.521 74.3133 122.995 74.6733 123.328 75.14C123.661 75.5933 123.828 76.1133 123.828 76.7C123.828 76.7667 123.801 76.8267 123.748 76.88C123.708 76.92 123.655 76.94 123.588 76.94H121.888C121.821 76.94 121.761 76.92 121.708 76.88C121.668 76.8267 121.648 76.7667 121.648 76.7C121.648 76.3533 121.475 76.0667 121.128 75.84C120.795 75.6 120.335 75.48 119.748 75.48C119.228 75.48 118.801 75.58 118.468 75.78C118.148 75.9667 117.988 76.2333 117.988 76.58C117.988 76.9 118.141 77.1467 118.448 77.32C118.768 77.48 119.295 77.66 120.028 77.86L120.468 77.98C121.175 78.1933 121.768 78.4133 122.248 78.64C122.728 78.8533 123.135 79.16 123.468 79.56C123.801 79.9467 123.968 80.4533 123.968 81.08C123.968 82.0267 123.595 82.7733 122.848 83.32C122.101 83.8533 121.108 84.12 119.868 84.12Z" fill="white"/>
<g clip-path="url(#clip5_2140_6805)">
<path d="M16 136C16 131.582 19.5817 128 24 128H126C130.418 128 134 131.582 134 136V152C134 156.418 130.418 160 126 160H24C19.5817 160 16 156.418 16 152V136Z" fill="#FFF203"/>
<path d="M36.5776 149.112C35.8496 149.112 35.2149 148.995 34.6736 148.762C34.1323 148.529 33.7123 148.202 33.4136 147.782C33.1243 147.362 32.9796 146.867 32.9796 146.298V145.948C32.9796 145.901 32.9936 145.864 33.0216 145.836C33.0589 145.799 33.1009 145.78 33.1476 145.78H34.3936C34.4403 145.78 34.4776 145.799 34.5056 145.836C34.5429 145.864 34.5616 145.901 34.5616 145.948V146.214C34.5616 146.643 34.7529 147.003 35.1356 147.292C35.5183 147.572 36.0409 147.712 36.7036 147.712C37.2729 147.712 37.7023 147.591 37.9916 147.348C38.2809 147.105 38.4256 146.793 38.4256 146.41C38.4256 146.149 38.3463 145.929 38.1876 145.752C38.0289 145.565 37.8003 145.397 37.5016 145.248C37.2123 145.099 36.7736 144.912 36.1856 144.688C35.5229 144.445 34.9863 144.217 34.5756 144.002C34.1649 143.787 33.8196 143.498 33.5396 143.134C33.2689 142.761 33.1336 142.299 33.1336 141.748C33.1336 140.927 33.4323 140.278 34.0296 139.802C34.6269 139.326 35.4249 139.088 36.4236 139.088C37.1236 139.088 37.7396 139.209 38.2716 139.452C38.8129 139.695 39.2329 140.035 39.5316 140.474C39.8303 140.903 39.9796 141.403 39.9796 141.972V142.21C39.9796 142.257 39.9609 142.299 39.9236 142.336C39.8956 142.364 39.8583 142.378 39.8116 142.378H38.5516C38.5049 142.378 38.4629 142.364 38.4256 142.336C38.3976 142.299 38.3836 142.257 38.3836 142.21V142.056C38.3836 141.617 38.2016 141.249 37.8376 140.95C37.4829 140.642 36.9883 140.488 36.3536 140.488C35.8403 140.488 35.4389 140.595 35.1496 140.81C34.8696 141.025 34.7296 141.328 34.7296 141.72C34.7296 142 34.8043 142.229 34.9536 142.406C35.1029 142.583 35.3269 142.747 35.6256 142.896C35.9243 143.036 36.3863 143.218 37.0116 143.442C37.6743 143.694 38.2016 143.923 38.5936 144.128C38.9949 144.333 39.3356 144.623 39.6156 144.996C39.9049 145.36 40.0496 145.817 40.0496 146.368C40.0496 147.208 39.7369 147.875 39.1116 148.37C38.4956 148.865 37.6509 149.112 36.5776 149.112ZM47.5651 144.618C47.6024 144.851 47.6211 145.113 47.6211 145.402L47.6071 145.836C47.6071 145.948 47.5511 146.004 47.4391 146.004H43.0571C43.0104 146.004 42.9871 146.027 42.9871 146.074C43.0151 146.382 43.0571 146.592 43.1131 146.704C43.3371 147.376 43.8831 147.717 44.7511 147.726C45.3858 147.726 45.8898 147.465 46.2631 146.942C46.3004 146.886 46.3471 146.858 46.4031 146.858C46.4404 146.858 46.4731 146.872 46.5011 146.9L47.3691 147.614C47.4531 147.679 47.4671 147.754 47.4111 147.838C47.1218 148.249 46.7344 148.566 46.2491 148.79C45.7731 149.014 45.2411 149.126 44.6531 149.126C43.9251 149.126 43.3044 148.963 42.7911 148.636C42.2871 148.309 41.9184 147.852 41.6851 147.264C41.4704 146.76 41.3631 146.06 41.3631 145.164C41.3631 144.623 41.4191 144.184 41.5311 143.848C41.7178 143.195 42.0678 142.681 42.5811 142.308C43.1038 141.925 43.7291 141.734 44.4571 141.734C46.2958 141.734 47.3318 142.695 47.5651 144.618ZM44.4571 143.134C44.1118 143.134 43.8224 143.223 43.5891 143.4C43.3651 143.568 43.2064 143.806 43.1131 144.114C43.0571 144.273 43.0198 144.478 43.0011 144.73C42.9824 144.777 43.0011 144.8 43.0571 144.8H45.8991C45.9458 144.8 45.9691 144.777 45.9691 144.73C45.9504 144.497 45.9224 144.319 45.8851 144.198C45.8011 143.862 45.6331 143.601 45.3811 143.414C45.1384 143.227 44.8304 143.134 44.4571 143.134ZM52.7626 142.994C52.7626 143.041 52.7439 143.083 52.7066 143.12C52.6786 143.148 52.6413 143.162 52.5946 143.162H51.1666C51.1199 143.162 51.0966 143.185 51.0966 143.232V146.606C51.0966 146.961 51.1713 147.217 51.3206 147.376C51.4793 147.535 51.7266 147.614 52.0626 147.614H52.4826C52.5293 147.614 52.5666 147.633 52.5946 147.67C52.6319 147.698 52.6506 147.735 52.6506 147.782V148.832C52.6506 148.935 52.5946 148.995 52.4826 149.014L51.7546 149.028C51.0173 149.028 50.4666 148.902 50.1026 148.65C49.7386 148.398 49.5519 147.922 49.5426 147.222V143.232C49.5426 143.185 49.5193 143.162 49.4726 143.162H48.6746C48.6279 143.162 48.5859 143.148 48.5486 143.12C48.5206 143.083 48.5066 143.041 48.5066 142.994V142.014C48.5066 141.967 48.5206 141.93 48.5486 141.902C48.5859 141.865 48.6279 141.846 48.6746 141.846H49.4726C49.5193 141.846 49.5426 141.823 49.5426 141.776V140.138C49.5426 140.091 49.5566 140.054 49.5846 140.026C49.6219 139.989 49.6639 139.97 49.7106 139.97H50.9286C50.9753 139.97 51.0126 139.989 51.0406 140.026C51.0779 140.054 51.0966 140.091 51.0966 140.138V141.776C51.0966 141.823 51.1199 141.846 51.1666 141.846H52.5946C52.6413 141.846 52.6786 141.865 52.7066 141.902C52.7439 141.93 52.7626 141.967 52.7626 142.014V142.994ZM61.3896 142.014C61.3896 141.967 61.4036 141.93 61.4316 141.902C61.469 141.865 61.511 141.846 61.5576 141.846H62.8456C62.8923 141.846 62.9296 141.865 62.9576 141.902C62.995 141.93 63.0136 141.967 63.0136 142.014V148.524C63.0136 149.691 62.6776 150.521 62.0056 151.016C61.343 151.52 60.4703 151.772 59.3876 151.772C59.0983 151.772 58.8136 151.758 58.5336 151.73C58.431 151.721 58.3796 151.66 58.3796 151.548L58.4216 150.4C58.4216 150.297 58.487 150.246 58.6176 150.246C58.8883 150.274 59.131 150.288 59.3456 150.288C60.0456 150.288 60.559 150.148 60.8856 149.868C61.2216 149.597 61.3896 149.135 61.3896 148.482V148.37C61.3896 148.342 61.3803 148.328 61.3616 148.328C61.343 148.319 61.3243 148.323 61.3056 148.342C60.923 148.753 60.3816 148.958 59.6816 148.958C59.075 148.958 58.5196 148.804 58.0156 148.496C57.5116 148.188 57.1616 147.717 56.9656 147.082C56.8443 146.643 56.7836 146.079 56.7836 145.388C56.7836 144.613 56.8583 144.021 57.0076 143.61C57.1943 143.041 57.5163 142.588 57.9736 142.252C58.431 141.907 58.9676 141.734 59.5836 141.734C60.321 141.734 60.895 141.949 61.3056 142.378C61.3243 142.406 61.343 142.415 61.3616 142.406C61.3803 142.397 61.3896 142.378 61.3896 142.35V142.014ZM61.2916 146.62C61.329 146.48 61.3523 146.331 61.3616 146.172C61.3803 146.004 61.3896 145.738 61.3896 145.374C61.3896 145.019 61.3803 144.767 61.3616 144.618C61.3523 144.459 61.3243 144.305 61.2776 144.156C61.203 143.848 61.049 143.601 60.8156 143.414C60.5916 143.227 60.3023 143.134 59.9476 143.134C59.6116 143.134 59.327 143.227 59.0936 143.414C58.8603 143.601 58.6923 143.848 58.5896 144.156C58.4776 144.417 58.4216 144.828 58.4216 145.388C58.4216 145.967 58.4683 146.373 58.5616 146.606C58.655 146.905 58.823 147.152 59.0656 147.348C59.3176 147.535 59.6163 147.628 59.9616 147.628C60.3256 147.628 60.6196 147.535 60.8436 147.348C61.0676 147.161 61.217 146.919 61.2916 146.62ZM67.7292 149.112C66.9919 149.112 66.3572 148.925 65.8252 148.552C65.3026 148.179 64.9339 147.661 64.7192 146.998C64.5606 146.494 64.4812 145.962 64.4812 145.402C64.4812 144.805 64.5559 144.273 64.7052 143.806C64.9199 143.153 65.2932 142.644 65.8252 142.28C66.3572 141.916 66.9966 141.734 67.7432 141.734C68.4526 141.734 69.0639 141.916 69.5772 142.28C70.0999 142.644 70.4686 143.148 70.6832 143.792C70.8512 144.24 70.9352 144.772 70.9352 145.388C70.9352 145.976 70.8559 146.508 70.6972 146.984C70.4826 147.647 70.1139 148.169 69.5912 148.552C69.0686 148.925 68.4479 149.112 67.7292 149.112ZM67.7292 147.712C68.0746 147.712 68.3686 147.614 68.6112 147.418C68.8632 147.222 69.0452 146.947 69.1572 146.592C69.2506 146.284 69.2972 145.892 69.2972 145.416C69.2972 144.912 69.2506 144.52 69.1572 144.24C69.0546 143.885 68.8772 143.615 68.6252 143.428C68.3732 143.232 68.0652 143.134 67.7012 143.134C67.3559 143.134 67.0572 143.232 66.8052 143.428C66.5532 143.615 66.3712 143.885 66.2592 144.24C66.1659 144.567 66.1192 144.959 66.1192 145.416C66.1192 145.873 66.1659 146.265 66.2592 146.592C66.3619 146.947 66.5392 147.222 66.7912 147.418C67.0526 147.614 67.3652 147.712 67.7292 147.712ZM75.2005 141.734C75.7885 141.734 76.3065 141.837 76.7545 142.042C77.2025 142.247 77.5479 142.532 77.7905 142.896C78.0332 143.251 78.1545 143.657 78.1545 144.114V148.832C78.1545 148.879 78.1359 148.921 78.0985 148.958C78.0705 148.986 78.0332 149 77.9865 149H76.6985C76.6519 149 76.6099 148.986 76.5725 148.958C76.5445 148.921 76.5305 148.879 76.5305 148.832V148.384C76.5305 148.356 76.5212 148.342 76.5025 148.342C76.4839 148.333 76.4652 148.337 76.4465 148.356C75.9892 148.86 75.3265 149.112 74.4585 149.112C73.7585 149.112 73.1799 148.935 72.7225 148.58C72.2745 148.225 72.0505 147.698 72.0505 146.998C72.0505 146.27 72.3025 145.705 72.8065 145.304C73.3199 144.893 74.0385 144.688 74.9625 144.688H76.4605C76.5072 144.688 76.5305 144.665 76.5305 144.618V144.282C76.5305 143.918 76.4232 143.638 76.2085 143.442C75.9939 143.237 75.6719 143.134 75.2425 143.134C74.8879 143.134 74.5985 143.199 74.3745 143.33C74.1599 143.451 74.0245 143.624 73.9685 143.848C73.9405 143.96 73.8752 144.007 73.7725 143.988L72.4145 143.82C72.3679 143.811 72.3259 143.797 72.2885 143.778C72.2605 143.75 72.2512 143.717 72.2605 143.68C72.3352 143.111 72.6385 142.644 73.1705 142.28C73.7119 141.916 74.3885 141.734 75.2005 141.734ZM74.8645 147.824C75.3219 147.824 75.7139 147.703 76.0405 147.46C76.3672 147.217 76.5305 146.909 76.5305 146.536V145.878C76.5305 145.831 76.5072 145.808 76.4605 145.808H75.2845C74.7899 145.808 74.3979 145.901 74.1085 146.088C73.8285 146.275 73.6885 146.541 73.6885 146.886C73.6885 147.185 73.7959 147.418 74.0105 147.586C74.2345 147.745 74.5192 147.824 74.8645 147.824ZM79.953 149C79.9063 149 79.8643 148.986 79.827 148.958C79.799 148.921 79.785 148.879 79.785 148.832V139.368C79.785 139.321 79.799 139.284 79.827 139.256C79.8643 139.219 79.9063 139.2 79.953 139.2H81.241C81.2877 139.2 81.325 139.219 81.353 139.256C81.3903 139.284 81.409 139.321 81.409 139.368V148.832C81.409 148.879 81.3903 148.921 81.353 148.958C81.325 148.986 81.2877 149 81.241 149H79.953ZM85.7946 149.084C85.2066 149.084 84.6886 149 84.2406 148.832C83.8019 148.655 83.4613 148.417 83.2186 148.118C82.9759 147.81 82.8546 147.469 82.8546 147.096V146.97C82.8546 146.923 82.8686 146.886 82.8966 146.858C82.9339 146.821 82.9759 146.802 83.0226 146.802H84.2546C84.3013 146.802 84.3386 146.821 84.3666 146.858C84.4039 146.886 84.4226 146.923 84.4226 146.97V146.998C84.4226 147.231 84.5486 147.437 84.8006 147.614C85.0619 147.782 85.3886 147.866 85.7806 147.866C86.1539 147.866 86.4573 147.791 86.6906 147.642C86.9239 147.483 87.0406 147.287 87.0406 147.054C87.0406 146.839 86.9426 146.681 86.7466 146.578C86.5599 146.466 86.2519 146.349 85.8226 146.228L85.2906 146.06C84.8146 145.92 84.4133 145.771 84.0866 145.612C83.7599 145.453 83.4846 145.239 83.2606 144.968C83.0366 144.688 82.9246 144.333 82.9246 143.904C82.9246 143.251 83.1813 142.733 83.6946 142.35C84.2079 141.958 84.8846 141.762 85.7246 141.762C86.2939 141.762 86.7933 141.855 87.2226 142.042C87.6519 142.219 87.9833 142.471 88.2166 142.798C88.4499 143.115 88.5666 143.479 88.5666 143.89C88.5666 143.937 88.5479 143.979 88.5106 144.016C88.4826 144.044 88.4453 144.058 88.3986 144.058H87.2086C87.1619 144.058 87.1199 144.044 87.0826 144.016C87.0546 143.979 87.0406 143.937 87.0406 143.89C87.0406 143.647 86.9193 143.447 86.6766 143.288C86.4433 143.12 86.1213 143.036 85.7106 143.036C85.3466 143.036 85.0479 143.106 84.8146 143.246C84.5906 143.377 84.4786 143.563 84.4786 143.806C84.4786 144.03 84.5859 144.203 84.8006 144.324C85.0246 144.436 85.3933 144.562 85.9066 144.702L86.2146 144.786C86.7093 144.935 87.1246 145.089 87.4606 145.248C87.7966 145.397 88.0813 145.612 88.3146 145.892C88.5479 146.163 88.6646 146.517 88.6646 146.956C88.6646 147.619 88.4033 148.141 87.8806 148.524C87.3579 148.897 86.6626 149.084 85.7946 149.084ZM96.2716 141.734C97.0276 141.734 97.6296 141.958 98.0776 142.406C98.535 142.854 98.7636 143.465 98.7636 144.24V148.832C98.7636 148.879 98.745 148.921 98.7076 148.958C98.6796 148.986 98.6423 149 98.5956 149H97.3076C97.261 149 97.219 148.986 97.1816 148.958C97.1536 148.921 97.1396 148.879 97.1396 148.832V144.576C97.1396 144.147 97.0183 143.801 96.7756 143.54C96.533 143.269 96.211 143.134 95.8096 143.134C95.4083 143.134 95.0816 143.265 94.8296 143.526C94.587 143.787 94.4656 144.133 94.4656 144.562V148.832C94.4656 148.879 94.447 148.921 94.4096 148.958C94.3816 148.986 94.3443 149 94.2976 149H93.0096C92.963 149 92.921 148.986 92.8836 148.958C92.8556 148.921 92.8416 148.879 92.8416 148.832V142.014C92.8416 141.967 92.8556 141.93 92.8836 141.902C92.921 141.865 92.963 141.846 93.0096 141.846H94.2976C94.3443 141.846 94.3816 141.865 94.4096 141.902C94.447 141.93 94.4656 141.967 94.4656 142.014V142.462C94.4656 142.49 94.475 142.509 94.4936 142.518C94.5123 142.527 94.5263 142.518 94.5356 142.49C94.9183 141.986 95.497 141.734 96.2716 141.734ZM103.44 149.112C102.703 149.112 102.068 148.925 101.536 148.552C101.014 148.179 100.645 147.661 100.43 146.998C100.272 146.494 100.192 145.962 100.192 145.402C100.192 144.805 100.267 144.273 100.416 143.806C100.631 143.153 101.004 142.644 101.536 142.28C102.068 141.916 102.708 141.734 103.454 141.734C104.164 141.734 104.775 141.916 105.288 142.28C105.811 142.644 106.18 143.148 106.394 143.792C106.562 144.24 106.646 144.772 106.646 145.388C106.646 145.976 106.567 146.508 106.408 146.984C106.194 147.647 105.825 148.169 105.302 148.552C104.78 148.925 104.159 149.112 103.44 149.112ZM103.44 147.712C103.786 147.712 104.08 147.614 104.322 147.418C104.574 147.222 104.756 146.947 104.868 146.592C104.962 146.284 105.008 145.892 105.008 145.416C105.008 144.912 104.962 144.52 104.868 144.24C104.766 143.885 104.588 143.615 104.336 143.428C104.084 143.232 103.776 143.134 103.412 143.134C103.067 143.134 102.768 143.232 102.516 143.428C102.264 143.615 102.082 143.885 101.97 144.24C101.877 144.567 101.83 144.959 101.83 145.416C101.83 145.873 101.877 146.265 101.97 146.592C102.073 146.947 102.25 147.222 102.502 147.418C102.764 147.614 103.076 147.712 103.44 147.712ZM109.52 149C109.417 149 109.352 148.953 109.324 148.86L107.322 142.028L107.308 141.972C107.308 141.879 107.359 141.832 107.462 141.832H108.792C108.895 141.832 108.96 141.879 108.988 141.972L110.15 146.648C110.159 146.676 110.173 146.69 110.192 146.69C110.211 146.69 110.225 146.676 110.234 146.648L111.452 141.972C111.48 141.879 111.545 141.832 111.648 141.832H112.81C112.913 141.832 112.978 141.879 113.006 141.972L114.252 146.648C114.261 146.676 114.275 146.69 114.294 146.69C114.313 146.69 114.327 146.676 114.336 146.648L115.582 141.972C115.61 141.879 115.675 141.832 115.778 141.832L117.094 141.86C117.15 141.86 117.187 141.879 117.206 141.916C117.234 141.944 117.243 141.986 117.234 142.042L115.218 148.86C115.19 148.953 115.129 149 115.036 149H113.692C113.589 149 113.524 148.953 113.496 148.86L112.264 144.59C112.255 144.562 112.241 144.548 112.222 144.548C112.203 144.548 112.189 144.562 112.18 144.59L111.046 148.86C111.018 148.953 110.953 149 110.85 149H109.52Z" fill="#21202D"/>
</g>
</g>
<defs>
<filter id="filter0_d_2140_6805" x="228.655" y="64.9062" width="77.6109" height="80.0114" filterUnits="userSpaceOnUse" color-interpolation-filters="sRGB">
<feFlood flood-opacity="0" result="BackgroundImageFix"/>
<feColorMatrix in="SourceAlpha" type="matrix" values="0 0 0 0 0 0 0 0 0 0 0 0 0 0 0 0 0 0 127 0" result="hardAlpha"/>
<feOffset dx="-2.4" dy="4.8"/>
<feColorMatrix type="matrix" values="0 0 0 0 0 0 0 0 0 0 0 0 0 0 0 0 0 0 0.25 0"/>
<feBlend mode="normal" in2="BackgroundImageFix" result="effect1_dropShadow_2140_6805"/>
<feBlend mode="normal" in="SourceGraphic" in2="effect1_dropShadow_2140_6805" result="shape"/>
</filter>
<filter id="filter1_d_2140_6805" x="191.436" y="86.3984" width="67.6543" height="33.8464" filterUnits="userSpaceOnUse" color-interpolation-filters="sRGB">
<feFlood flood-opacity="0" result="BackgroundImageFix"/>
<feColorMatrix in="SourceAlpha" type="matrix" values="0 0 0 0 0 0 0 0 0 0 0 0 0 0 0 0 0 0 127 0" result="hardAlpha"/>
<feOffset dx="-6" dy="16"/>
<feColorMatrix type="matrix" values="0 0 0 0 0 0 0 0 0 0 0 0 0 0 0 0 0 0 0.25 0"/>
<feBlend mode="normal" in2="BackgroundImageFix" result="effect1_dropShadow_2140_6805"/>
<feBlend mode="normal" in="SourceGraphic" in2="effect1_dropShadow_2140_6805" result="shape"/>
</filter>
<filter id="filter2_d_2140_6805" x="204.02" y="112.538" width="65.8555" height="67.2302" filterUnits="userSpaceOnUse" color-interpolation-filters="sRGB">
<feFlood flood-opacity="0" result="BackgroundImageFix"/>
<feColorMatrix in="SourceAlpha" type="matrix" values="0 0 0 0 0 0 0 0 0 0 0 0 0 0 0 0 0 0 127 0" result="hardAlpha"/>
<feOffset dx="-1.375" dy="2.75"/>
<feColorMatrix type="matrix" values="0 0 0 0 0 0 0 0 0 0 0 0 0 0 0 0 0 0 0.25 0"/>
<feBlend mode="normal" in2="BackgroundImageFix" result="effect1_dropShadow_2140_6805"/>
<feBlend mode="normal" in="SourceGraphic" in2="effect1_dropShadow_2140_6805" result="shape"/>
</filter>
<filter id="filter3_d_2140_6805" x="285.053" y="105.148" width="50.4629" height="51.8386" filterUnits="userSpaceOnUse" color-interpolation-filters="sRGB">
<feFlood flood-opacity="0" result="BackgroundImageFix"/>
<feColorMatrix in="SourceAlpha" type="matrix" values="0 0 0 0 0 0 0 0 0 0 0 0 0 0 0 0 0 0 127 0" result="hardAlpha"/>
<feOffset dx="-1.375" dy="2.75"/>
<feColorMatrix type="matrix" values="0 0 0 0 0 0 0 0 0 0 0 0 0 0 0 0 0 0 0.25 0"/>
<feBlend mode="normal" in2="BackgroundImageFix" result="effect1_dropShadow_2140_6805"/>
<feBlend mode="normal" in="SourceGraphic" in2="effect1_dropShadow_2140_6805" result="shape"/>
</filter>
<filter id="filter4_d_2140_6805" x="277.98" y="29.8113" width="66.168" height="67.314" filterUnits="userSpaceOnUse" color-interpolation-filters="sRGB">
<feFlood flood-opacity="0" result="BackgroundImageFix"/>
<feColorMatrix in="SourceAlpha" type="matrix" values="0 0 0 0 0 0 0 0 0 0 0 0 0 0 0 0 0 0 127 0" result="hardAlpha"/>
<feOffset dx="-1.375" dy="2.75"/>
<feColorMatrix type="matrix" values="0 0 0 0 0 0 0 0 0 0 0 0 0 0 0 0 0 0 0.25 0"/>
<feBlend mode="normal" in2="BackgroundImageFix" result="effect1_dropShadow_2140_6805"/>
<feBlend mode="normal" in="SourceGraphic" in2="effect1_dropShadow_2140_6805" result="shape"/>
</filter>
<filter id="filter5_d_2140_6805" x="214.266" y="25.9062" width="56.6445" height="58.0188" filterUnits="userSpaceOnUse" color-interpolation-filters="sRGB">
<feFlood flood-opacity="0" result="BackgroundImageFix"/>
<feColorMatrix in="SourceAlpha" type="matrix" values="0 0 0 0 0 0 0 0 0 0 0 0 0 0 0 0 0 0 127 0" result="hardAlpha"/>
<feOffset dx="-1.375" dy="2.75"/>
<feColorMatrix type="matrix" values="0 0 0 0 0 0 0 0 0 0 0 0 0 0 0 0 0 0 0.25 0"/>
<feBlend mode="normal" in2="BackgroundImageFix" result="effect1_dropShadow_2140_6805"/>
<feBlend mode="normal" in="SourceGraphic" in2="effect1_dropShadow_2140_6805" result="shape"/>
</filter>
<clipPath id="clip0_2140_6805">
<path d="M0 16C0 7.16344 7.16344 0 16 0H327C335.837 0 343 7.16344 343 16V160C343 168.837 335.837 176 327 176H16C7.16345 176 0 168.837 0 160V16Z" fill="white"/>
</clipPath>
<clipPath id="clip1_2140_6805">
<rect width="52.6479" height="52.6479" fill="white" transform="translate(205.395 126.165) rotate(-15)"/>
</clipPath>
<clipPath id="clip2_2140_6805">
<rect width="40.0807" height="40.0807" fill="white" transform="translate(296.801 105.148) rotate(15)"/>
</clipPath>
<clipPath id="clip3_2140_6805">
<rect width="52.6479" height="52.6479" fill="white" transform="translate(279.355 43.5212) rotate(-15)"/>
</clipPath>
<clipPath id="clip4_2140_6805">
<rect width="45.1268" height="45.1268" fill="white" transform="translate(227.32 25.9062) rotate(15)"/>
</clipPath>
<clipPath id="clip5_2140_6805">
<path d="M16 136C16 131.582 19.5817 128 24 128H126C130.418 128 134 131.582 134 136V152C134 156.418 130.418 160 126 160H24C19.5817 160 16 156.418 16 152V136Z" fill="white"/>
</clipPath>
</defs>
</svg>
