<svg width="343" height="176" viewBox="0 0 343 176" fill="none" xmlns="http://www.w3.org/2000/svg">
<g clip-path="url(#clip0_1070_148121)">
<path d="M0 16C0 7.16344 7.16344 0 16 0H327C335.837 0 343 7.16344 343 16V160C343 168.837 335.837 176 327 176H16C7.16345 176 0 168.837 0 160V16Z" fill="#28265B"/>
<g filter="url(#filter0_d_1070_148121)">
<circle cx="268.66" cy="102.512" r="37.6057" fill="#6ED8CF"/>
<path d="M299.996 102.5C299.996 119.806 285.965 133.838 268.658 133.838C251.352 133.838 237.32 119.806 237.32 102.5C237.32 85.1931 251.352 71.1615 268.658 71.1615C285.965 71.1615 299.996 85.1931 299.996 102.5Z" fill="#23B3A7"/>
<path d="M268.66 127.576C282.506 127.576 293.731 116.351 293.731 102.505C293.731 88.6594 282.506 77.4349 268.66 77.4349C254.814 77.4349 243.59 88.6594 243.59 102.505C243.59 116.351 254.814 127.576 268.66 127.576Z" fill="#6ED8CF"/>
<path d="M287.463 102.503C287.463 112.887 279.044 121.306 268.66 121.306C258.276 121.306 249.857 112.887 249.857 102.503C249.857 92.1195 258.276 83.7006 268.66 83.7006C279.044 83.7006 287.463 92.1195 287.463 102.503Z" fill="#23B3A7"/>
<path d="M268.658 115.044C275.581 115.044 281.193 109.432 281.193 102.509C281.193 95.5862 275.581 89.974 268.658 89.974C261.735 89.974 256.123 95.5862 256.123 102.509C256.123 109.432 261.735 115.044 268.658 115.044Z" fill="#6ED8CF"/>
<path d="M274.928 102.499C274.928 105.961 272.121 108.767 268.66 108.767C265.199 108.767 262.393 105.961 262.393 102.499C262.393 99.0381 265.199 96.2318 268.66 96.2318C272.121 96.2318 274.928 99.0381 274.928 102.499Z" fill="#23B3A7"/>
</g>
<path d="M196.257 97.5859C196.257 97.5859 93.3358 109.691 24.2109 155.875" stroke="#3A3885" stroke-width="5" stroke-dasharray="8 8"/>
<g filter="url(#filter1_d_1070_148121)">
<path d="M201.503 99.5058L248.463 97.3907L248.167 90.8164L201.207 92.9315L201.503 99.5058Z" fill="#0069F1"/>
<path d="M198.139 104.245L211.535 103.641L214.313 95.6739L210.83 87.9884L197.434 88.5918L200.918 96.2772L198.139 104.245Z" fill="#0069F1"/>
<path d="M259.087 93.006L242.569 102.365L244.088 94.2969L241.85 86.3984L259.087 93.006Z" fill="#0069F1"/>
</g>
<g filter="url(#filter2_d_1070_148121)">
<g clip-path="url(#clip1_1070_148121)">
<path d="M232.808 126.781L239.074 167.117L247.55 164.846L232.808 126.781Z" fill="#FD7A7C"/>
<path d="M236.215 139.487L231.448 140.764C229.403 141.312 227.294 140.095 226.746 138.05L225.895 134.871L229.073 134.02L229.925 137.198C230.003 137.49 230.305 137.664 230.596 137.586L235.364 136.309L236.215 139.487Z" fill="#FD7A7C"/>
<path d="M244.881 148.523L240.643 149.658L239.791 146.48L244.029 145.344C244.905 145.11 245.427 144.206 245.192 143.329L244.341 140.151L247.519 139.299L248.371 142.478C249.075 145.106 247.509 147.819 244.881 148.523Z" fill="#FD7A7C"/>
<path d="M239.376 153.405L233.02 155.108C230.391 155.812 227.679 154.247 226.975 151.618L226.123 148.44L229.301 147.588L230.153 150.766C230.388 151.643 231.292 152.165 232.168 151.93L238.525 150.227L239.376 153.405Z" fill="#FD7A7C"/>
<path d="M250.688 129.919L217.845 138.72C216.747 134.624 219.178 130.414 223.274 129.316L241.284 124.49C245.38 123.393 249.59 125.823 250.688 129.919Z" fill="#23B3A7"/>
<path d="M235.599 133.972L232.81 126.77L233.995 134.401L235.599 133.972Z" fill="#156C65"/>
<path d="M228.932 133.497L225.754 134.349L226.322 136.468L229.5 135.616L228.932 133.497Z" fill="#156C65"/>
<path d="M233.964 148.036L217.013 152.578C216.229 149.653 217.966 146.645 220.891 145.861L227.248 144.158C230.173 143.374 233.181 145.111 233.964 148.036Z" fill="#23B3A7"/>
<path d="M258.541 138.036L241.589 142.578C240.806 139.653 242.542 136.645 245.467 135.861L251.824 134.158C254.749 133.374 257.757 135.111 258.541 138.036Z" fill="#23B3A7"/>
<path d="M229.159 147.043L225.98 147.894L226.548 150.013L229.727 149.161L229.159 147.043Z" fill="#156C65"/>
<path d="M247.378 138.77L244.199 139.621L244.767 141.74L247.945 140.889L247.378 138.77Z" fill="#156C65"/>
</g>
</g>
<g clip-path="url(#clip2_1070_148121)" filter="url(#filter3_d_1070_148121)">
<path d="M321.383 148.916L292.347 141.136L298.386 118.597L315.844 111.516L327.429 126.353L321.383 148.916Z" fill="#27C5B8"/>
<path d="M294.507 125.57L292.608 120.934L315.845 111.508L331.265 131.256L327.336 134.366L314.247 117.54L294.507 125.57Z" fill="#FD7A7C"/>
<path d="M296.762 124.66L314.246 117.548L325.807 132.408L327.429 126.353L315.844 111.516L298.386 118.597L296.762 124.66Z" fill="#DB3041"/>
<path d="M320.001 134.696L310.322 132.103L306.864 145.008L316.543 147.601L320.001 134.696Z" fill="#0069F1"/>
<path d="M308.15 127.184L300.891 125.239L298.733 133.292L305.992 135.237L308.15 127.184Z" fill="#0069F1"/>
</g>
<g filter="url(#filter4_d_1070_148121)">
<g clip-path="url(#clip3_1070_148121)">
<path d="M287.023 72.1311L287.744 67.0495C287.212 66.8036 286.789 66.3334 286.625 65.7232C286.435 65.0112 286.591 64.3017 287.063 63.8039L283.851 51.8193L285.971 51.2513L289.182 63.2348C289.84 63.431 290.383 63.9542 290.574 64.6641C290.737 65.2733 290.607 65.893 290.268 66.372L293.22 70.4694L287.023 72.1311Z" fill="#23B3A7"/>
<path d="M309.628 46.3115L313.376 60.3006L303.91 65.2329L293.246 65.6943L289.498 51.7052L309.628 46.3115Z" fill="#0069F1"/>
<path d="M314.47 43.2L283.746 51.4325L284.598 54.6109L315.322 46.3783L314.47 43.2Z" fill="#0069F1"/>
<path d="M309.173 44.6297L289.043 50.0234L289.895 53.2018L310.024 47.8081L309.173 44.6297Z" fill="#09489A"/>
<path d="M332.536 63.952L295.439 73.8921L297.843 82.8636L334.94 72.9235L332.536 63.952Z" fill="#FD7A7C"/>
<path d="M327.48 65.2645L323.018 66.4602L325.431 75.4656L329.893 74.2699L327.48 65.2645Z" fill="#DB3041"/>
<path d="M303.916 71.6201L299.678 72.7556L302.082 81.7271L306.319 80.5916L303.916 71.6201Z" fill="#DB3041"/>
<path d="M330.118 54.9293L293.021 64.8694L295.439 73.8928L332.536 63.9527L330.118 54.9293Z" fill="#23B3A7"/>
<path d="M325.025 56.2645L320.562 57.4602L322.975 66.4656L327.438 65.2699L325.025 56.2645Z" fill="#1C8C83"/>
<path d="M301.494 62.5747L297.256 63.7102L299.674 72.7336L303.912 71.5981L301.494 62.5747Z" fill="#1C8C83"/>
<path d="M334.511 79.8376L328.585 74.6521L328.436 74.0938L336.901 71.8255L337.05 72.3839L334.511 79.8376Z" fill="#FD7A7C"/>
<path d="M332.205 77.7983L334.511 79.8454L335.485 76.9194L332.205 77.7983Z" fill="#09489A"/>
<path d="M320.52 44.5938L328.982 42.3261L337.031 72.3617L328.568 74.6294L320.52 44.5938Z" fill="#09489A"/>
<path d="M319.768 41.7756L328.223 39.51L329.596 44.6346L321.141 46.9002L319.768 41.7756Z" fill="#FD7A7C"/>
<path d="M321.663 48.6844L324.284 47.9821L331.232 73.9113L328.61 74.6139L321.663 48.6844Z" fill="#0069F1"/>
<path d="M327.488 47.1165L330.109 46.4141L337.057 72.3444L334.436 73.0467L327.488 47.1165Z" fill="#0069F1"/>
<path d="M321.754 49.204L320.902 46.0256L329.358 43.76L330.21 46.9384L321.754 49.204Z" fill="#DB3041"/>
</g>
</g>
<g clip-path="url(#clip4_1070_148121)" filter="url(#filter5_d_1070_148121)">
<path d="M258.778 53.8015L251.572 51.8704C250.955 48.8213 248.675 46.2276 245.465 45.3677C242.256 44.5078 238.984 45.6138 236.926 47.9461L229.719 46.015L227.772 53.2799L234.979 55.2109C235.345 57.02 236.297 58.6689 237.681 59.8903L235.506 68.0052L242.771 69.9518L244.946 61.8369C246.755 61.471 248.403 60.52 249.625 59.1353L256.832 61.0663L258.778 53.8015Z" fill="#0069F1"/>
<path d="M238.408 71.7036C228.393 69.0202 222.429 58.6896 225.112 48.675C227.795 38.6604 238.126 32.6959 248.141 35.3793C258.155 38.0628 264.12 48.3934 261.436 58.408C258.753 68.4226 248.422 74.387 238.408 71.7036ZM247.167 39.0118C239.156 36.8651 230.891 41.6369 228.744 49.6483C226.598 57.6596 231.37 65.9246 239.381 68.0712C247.392 70.2178 255.657 65.446 257.804 57.4347C259.95 49.4234 255.179 41.1584 247.167 39.0118Z" fill="#0069F1"/>
<path d="M257.805 57.4374C257.469 58.6915 256.983 59.8656 256.372 60.9467L260.099 61.9454C260.653 60.8354 261.104 59.6539 261.437 58.4107C261.77 57.1675 261.97 55.9189 262.045 54.6805L258.318 53.6819C258.307 54.9237 258.141 56.1833 257.805 57.4374Z" fill="#042E67"/>
<path d="M228.745 49.6554C229.081 48.4013 229.567 47.2273 230.178 46.1461L226.451 45.1475C225.897 46.2574 225.446 47.4389 225.113 48.6821C224.78 49.9253 224.579 51.1739 224.504 52.4124L228.231 53.411C228.243 52.1692 228.409 50.9095 228.745 49.6554Z" fill="#042E67"/>
<path d="M242.139 72.3078L243.138 68.5809C241.896 68.5694 240.636 68.4031 239.382 68.0671C238.128 67.7311 236.954 67.2452 235.873 66.6343L234.874 70.3611C235.984 70.9155 237.165 71.3662 238.409 71.6995C239.653 72.0329 240.901 72.2329 242.139 72.3078Z" fill="#042E67"/>
<path d="M242.058 58.0938C244.566 58.7658 247.144 57.2776 247.816 54.7699C248.488 52.2623 246.999 49.6847 244.492 49.0128C241.984 48.3408 239.406 49.829 238.735 52.3367C238.063 54.8443 239.551 57.4219 242.058 58.0938Z" fill="#042E67"/>
</g>
<path d="M17.7 36C17.6333 36 17.5733 35.98 17.52 35.94C17.48 35.8867 17.46 35.8267 17.46 35.76V22.24C17.46 22.1733 17.48 22.12 17.52 22.08C17.5733 22.0267 17.6333 22 17.7 22H19.54C19.6067 22 19.66 22.0267 19.7 22.08C19.7533 22.12 19.78 22.1733 19.78 22.24V33.9C19.78 33.9667 19.8133 34 19.88 34H26.58C26.6467 34 26.7 34.0267 26.74 34.08C26.7933 34.12 26.82 34.1733 26.82 34.24V35.76C26.82 35.8267 26.7933 35.8867 26.74 35.94C26.7 35.98 26.6467 36 26.58 36H17.7ZM37.2858 29.74C37.3391 30.0733 37.3658 30.4467 37.3658 30.86L37.3458 31.48C37.3458 31.64 37.2658 31.72 37.1058 31.72H30.8458C30.7791 31.72 30.7458 31.7533 30.7458 31.82C30.7858 32.26 30.8458 32.56 30.9258 32.72C31.2458 33.68 32.0258 34.1667 33.2658 34.18C34.1724 34.18 34.8924 33.8067 35.4258 33.06C35.4791 32.98 35.5458 32.94 35.6258 32.94C35.6791 32.94 35.7258 32.96 35.7658 33L37.0058 34.02C37.1258 34.1133 37.1458 34.22 37.0658 34.34C36.6524 34.9267 36.0991 35.38 35.4058 35.7C34.7258 36.02 33.9658 36.18 33.1258 36.18C32.0858 36.18 31.1991 35.9467 30.4658 35.48C29.7458 35.0133 29.2191 34.36 28.8858 33.52C28.5791 32.8 28.4258 31.8 28.4258 30.52C28.4258 29.7467 28.5058 29.12 28.6658 28.64C28.9324 27.7067 29.4324 26.9733 30.1658 26.44C30.9124 25.8933 31.8058 25.62 32.8458 25.62C35.4724 25.62 36.9524 26.9933 37.2858 29.74ZM32.8458 27.62C32.3524 27.62 31.9391 27.7467 31.6058 28C31.2858 28.24 31.0591 28.58 30.9258 29.02C30.8458 29.2467 30.7924 29.54 30.7658 29.9C30.7391 29.9667 30.7658 30 30.8458 30H34.9058C34.9724 30 35.0058 29.9667 35.0058 29.9C34.9791 29.5667 34.9391 29.3133 34.8858 29.14C34.7658 28.66 34.5258 28.2867 34.1658 28.02C33.8191 27.7533 33.3791 27.62 32.8458 27.62ZM44.7108 27.42C44.7108 27.4867 44.6841 27.5467 44.6308 27.6C44.5908 27.64 44.5374 27.66 44.4708 27.66H42.4308C42.3641 27.66 42.3308 27.6933 42.3308 27.76V32.58C42.3308 33.0867 42.4374 33.4533 42.6508 33.68C42.8774 33.9067 43.2308 34.02 43.7108 34.02H44.3108C44.3774 34.02 44.4308 34.0467 44.4708 34.1C44.5241 34.14 44.5508 34.1933 44.5508 34.26V35.76C44.5508 35.9067 44.4708 35.9933 44.3108 36.02L43.2708 36.04C42.2174 36.04 41.4308 35.86 40.9108 35.5C40.3908 35.14 40.1241 34.46 40.1108 33.46V27.76C40.1108 27.6933 40.0774 27.66 40.0108 27.66H38.8708C38.8041 27.66 38.7441 27.64 38.6908 27.6C38.6508 27.5467 38.6308 27.4867 38.6308 27.42V26.02C38.6308 25.9533 38.6508 25.9 38.6908 25.86C38.7441 25.8067 38.8041 25.78 38.8708 25.78H40.0108C40.0774 25.78 40.1108 25.7467 40.1108 25.68V23.34C40.1108 23.2733 40.1308 23.22 40.1708 23.18C40.2241 23.1267 40.2841 23.1 40.3508 23.1H42.0908C42.1574 23.1 42.2108 23.1267 42.2508 23.18C42.3041 23.22 42.3308 23.2733 42.3308 23.34V25.68C42.3308 25.7467 42.3641 25.78 42.4308 25.78H44.4708C44.5374 25.78 44.5908 25.8067 44.6308 25.86C44.6841 25.9 44.7108 25.9533 44.7108 26.02V27.42ZM56.8152 26.02C56.8152 25.9533 56.8352 25.9 56.8752 25.86C56.9285 25.8067 56.9885 25.78 57.0552 25.78H58.8752C58.9418 25.78 58.9952 25.8067 59.0352 25.86C59.0885 25.9 59.1152 25.9533 59.1152 26.02V35.76C59.1152 35.8267 59.0885 35.8867 59.0352 35.94C58.9952 35.98 58.9418 36 58.8752 36H57.0552C56.9885 36 56.9285 35.98 56.8752 35.94C56.8352 35.8867 56.8152 35.8267 56.8152 35.76V35.12C56.8152 35.08 56.8018 35.0533 56.7752 35.04C56.7485 35.0267 56.7218 35.04 56.6952 35.08C56.1485 35.7867 55.3285 36.14 54.2352 36.14C53.2218 36.14 52.3685 35.8467 51.6752 35.26C50.9952 34.6733 50.6552 33.84 50.6552 32.76V26.02C50.6552 25.9533 50.6752 25.9 50.7152 25.86C50.7685 25.8067 50.8285 25.78 50.8952 25.78H52.7352C52.8018 25.78 52.8552 25.8067 52.8952 25.86C52.9485 25.9 52.9752 25.9533 52.9752 26.02V32.1C52.9752 32.7267 53.1352 33.2267 53.4552 33.6C53.7885 33.9733 54.2485 34.16 54.8352 34.16C55.4352 34.16 55.9152 33.9733 56.2752 33.6C56.6352 33.2267 56.8152 32.7267 56.8152 32.1V26.02ZM65.3955 36.12C64.5555 36.12 63.8155 36 63.1755 35.76C62.5488 35.5067 62.0621 35.1667 61.7155 34.74C61.3688 34.3 61.1955 33.8133 61.1955 33.28V33.1C61.1955 33.0333 61.2155 32.98 61.2555 32.94C61.3088 32.8867 61.3688 32.86 61.4355 32.86H63.1955C63.2621 32.86 63.3155 32.8867 63.3555 32.94C63.4088 32.98 63.4355 33.0333 63.4355 33.1V33.14C63.4355 33.4733 63.6155 33.7667 63.9755 34.02C64.3488 34.26 64.8155 34.38 65.3755 34.38C65.9088 34.38 66.3421 34.2733 66.6755 34.06C67.0088 33.8333 67.1755 33.5533 67.1755 33.22C67.1755 32.9133 67.0355 32.6867 66.7555 32.54C66.4888 32.38 66.0488 32.2133 65.4355 32.04L64.6755 31.8C63.9955 31.6 63.4221 31.3867 62.9555 31.16C62.4888 30.9333 62.0955 30.6267 61.7755 30.24C61.4555 29.84 61.2955 29.3333 61.2955 28.72C61.2955 27.7867 61.6621 27.0467 62.3955 26.5C63.1288 25.94 64.0955 25.66 65.2955 25.66C66.1088 25.66 66.8221 25.7933 67.4355 26.06C68.0488 26.3133 68.5221 26.6733 68.8555 27.14C69.1888 27.5933 69.3555 28.1133 69.3555 28.7C69.3555 28.7667 69.3288 28.8267 69.2755 28.88C69.2355 28.92 69.1821 28.94 69.1155 28.94H67.4155C67.3488 28.94 67.2888 28.92 67.2355 28.88C67.1955 28.8267 67.1755 28.7667 67.1755 28.7C67.1755 28.3533 67.0021 28.0667 66.6555 27.84C66.3221 27.6 65.8621 27.48 65.2755 27.48C64.7555 27.48 64.3288 27.58 63.9955 27.78C63.6755 27.9667 63.5155 28.2333 63.5155 28.58C63.5155 28.9 63.6688 29.1467 63.9755 29.32C64.2955 29.48 64.8221 29.66 65.5555 29.86L65.9955 29.98C66.7021 30.1933 67.2955 30.4133 67.7755 30.64C68.2555 30.8533 68.6621 31.16 68.9955 31.56C69.3288 31.9467 69.4955 32.4533 69.4955 33.08C69.4955 34.0267 69.1221 34.7733 68.3755 35.32C67.6288 35.8533 66.6355 36.12 65.3955 36.12ZM80.3627 25.62C81.4427 25.62 82.3027 25.94 82.9427 26.58C83.596 27.22 83.9227 28.0933 83.9227 29.2V35.76C83.9227 35.8267 83.896 35.8867 83.8427 35.94C83.8027 35.98 83.7493 36 83.6827 36H81.8427C81.776 36 81.716 35.98 81.6627 35.94C81.6227 35.8867 81.6027 35.8267 81.6027 35.76V29.68C81.6027 29.0667 81.4293 28.5733 81.0827 28.2C80.736 27.8133 80.276 27.62 79.7027 27.62C79.1293 27.62 78.6627 27.8067 78.3027 28.18C77.956 28.5533 77.7827 29.0467 77.7827 29.66V35.76C77.7827 35.8267 77.756 35.8867 77.7027 35.94C77.6627 35.98 77.6093 36 77.5427 36H75.7027C75.636 36 75.576 35.98 75.5227 35.94C75.4827 35.8867 75.4627 35.8267 75.4627 35.76V22.24C75.4627 22.1733 75.4827 22.12 75.5227 22.08C75.576 22.0267 75.636 22 75.7027 22H77.5427C77.6093 22 77.6627 22.0267 77.7027 22.08C77.756 22.12 77.7827 22.1733 77.7827 22.24V26.66C77.7827 26.7 77.796 26.7267 77.8227 26.74C77.8493 26.7533 77.8693 26.74 77.8827 26.7C78.4293 25.98 79.256 25.62 80.3627 25.62ZM94.8834 29.74C94.9368 30.0733 94.9634 30.4467 94.9634 30.86L94.9434 31.48C94.9434 31.64 94.8634 31.72 94.7034 31.72H88.4434C88.3768 31.72 88.3434 31.7533 88.3434 31.82C88.3834 32.26 88.4434 32.56 88.5234 32.72C88.8434 33.68 89.6234 34.1667 90.8634 34.18C91.7701 34.18 92.4901 33.8067 93.0234 33.06C93.0768 32.98 93.1434 32.94 93.2234 32.94C93.2768 32.94 93.3234 32.96 93.3634 33L94.6034 34.02C94.7234 34.1133 94.7434 34.22 94.6634 34.34C94.2501 34.9267 93.6968 35.38 93.0034 35.7C92.3234 36.02 91.5634 36.18 90.7234 36.18C89.6834 36.18 88.7968 35.9467 88.0634 35.48C87.3434 35.0133 86.8168 34.36 86.4834 33.52C86.1768 32.8 86.0234 31.8 86.0234 30.52C86.0234 29.7467 86.1034 29.12 86.2634 28.64C86.5301 27.7067 87.0301 26.9733 87.7634 26.44C88.5101 25.8933 89.4034 25.62 90.4434 25.62C93.0701 25.62 94.5501 26.9933 94.8834 29.74ZM90.4434 27.62C89.9501 27.62 89.5368 27.7467 89.2034 28C88.8834 28.24 88.6568 28.58 88.5234 29.02C88.4434 29.2467 88.3901 29.54 88.3634 29.9C88.3368 29.9667 88.3634 30 88.4434 30H92.5034C92.5701 30 92.6034 29.9667 92.6034 29.9C92.5768 29.5667 92.5368 29.3133 92.4834 29.14C92.3634 28.66 92.1234 28.2867 91.7634 28.02C91.4168 27.7533 90.9768 27.62 90.4434 27.62ZM97.3238 36C97.2571 36 97.1971 35.98 97.1438 35.94C97.1038 35.8867 97.0838 35.8267 97.0838 35.76V22.24C97.0838 22.1733 97.1038 22.12 97.1438 22.08C97.1971 22.0267 97.2571 22 97.3238 22H99.1638C99.2304 22 99.2838 22.0267 99.3238 22.08C99.3771 22.12 99.4038 22.1733 99.4038 22.24V35.76C99.4038 35.8267 99.3771 35.8867 99.3238 35.94C99.2838 35.98 99.2304 36 99.1638 36H97.3238ZM110.529 28.42C110.769 29.1 110.889 29.9333 110.889 30.92C110.889 31.8667 110.776 32.68 110.549 33.36C110.256 34.24 109.782 34.9267 109.129 35.42C108.489 35.9133 107.676 36.16 106.689 36.16C105.742 36.16 104.982 35.82 104.409 35.14C104.382 35.1133 104.356 35.1067 104.329 35.12C104.302 35.1333 104.289 35.16 104.289 35.2V39.54C104.289 39.6067 104.262 39.66 104.209 39.7C104.169 39.7533 104.116 39.78 104.049 39.78H102.209C102.142 39.78 102.082 39.7533 102.029 39.7C101.989 39.66 101.969 39.6067 101.969 39.54V26.02C101.969 25.9533 101.989 25.9 102.029 25.86C102.082 25.8067 102.142 25.78 102.209 25.78H104.049C104.116 25.78 104.169 25.8067 104.209 25.86C104.262 25.9 104.289 25.9533 104.289 26.02V26.62C104.289 26.66 104.302 26.6867 104.329 26.7C104.356 26.7133 104.382 26.7 104.409 26.66C104.996 25.9667 105.762 25.62 106.709 25.62C107.656 25.62 108.456 25.8667 109.109 26.36C109.762 26.8533 110.236 27.54 110.529 28.42ZM107.929 33.32C108.329 32.7067 108.529 31.8933 108.529 30.88C108.529 29.9067 108.369 29.14 108.049 28.58C107.676 27.9267 107.109 27.6 106.349 27.6C105.656 27.6 105.136 27.92 104.789 28.56C104.482 29.08 104.329 29.8533 104.329 30.88C104.329 31.9333 104.496 32.7333 104.829 33.28C105.176 33.8667 105.676 34.16 106.329 34.16C107.036 34.16 107.569 33.88 107.929 33.32ZM116.942 39.98C116.902 39.98 116.869 39.9533 116.842 39.9C116.816 39.86 116.802 39.8067 116.802 39.74V38.3C116.802 38.2333 116.822 38.1733 116.862 38.12C116.916 38.08 116.976 38.06 117.042 38.06H117.062C117.609 38.0467 118.036 37.9867 118.342 37.88C118.649 37.7867 118.902 37.6 119.102 37.32C119.302 37.04 119.482 36.62 119.642 36.06C119.656 36.0333 119.656 35.9933 119.642 35.94L116.342 26.04C116.329 26.0133 116.322 25.98 116.322 25.94C116.322 25.82 116.389 25.76 116.522 25.76H118.482C118.629 25.76 118.722 25.8267 118.762 25.96L120.762 33C120.776 33.04 120.796 33.06 120.822 33.06C120.849 33.06 120.869 33.04 120.882 33L122.882 25.96C122.922 25.8267 123.016 25.76 123.162 25.76H125.062C125.142 25.76 125.196 25.7867 125.222 25.84C125.262 25.88 125.269 25.9467 125.242 26.04L121.722 36.56C121.389 37.5067 121.062 38.2133 120.742 38.68C120.422 39.1467 119.982 39.48 119.422 39.68C118.876 39.88 118.096 39.98 117.082 39.98H116.942ZM130.721 36.16C129.667 36.16 128.761 35.8933 128.001 35.36C127.254 34.8267 126.727 34.0867 126.421 33.14C126.194 32.42 126.081 31.66 126.081 30.86C126.081 30.0067 126.187 29.2467 126.401 28.58C126.707 27.6467 127.241 26.92 128.001 26.4C128.761 25.88 129.674 25.62 130.741 25.62C131.754 25.62 132.627 25.88 133.361 26.4C134.107 26.92 134.634 27.64 134.941 28.56C135.181 29.2 135.301 29.96 135.301 30.84C135.301 31.68 135.187 32.44 134.961 33.12C134.654 34.0667 134.127 34.8133 133.381 35.36C132.634 35.8933 131.747 36.16 130.721 36.16ZM130.721 34.16C131.214 34.16 131.634 34.02 131.981 33.74C132.341 33.46 132.601 33.0667 132.761 32.56C132.894 32.12 132.961 31.56 132.961 30.88C132.961 30.16 132.894 29.6 132.761 29.2C132.614 28.6933 132.361 28.3067 132.001 28.04C131.641 27.76 131.201 27.62 130.681 27.62C130.187 27.62 129.761 27.76 129.401 28.04C129.041 28.3067 128.781 28.6933 128.621 29.2C128.487 29.6667 128.421 30.2267 128.421 30.88C128.421 31.5333 128.487 32.0933 128.621 32.56C128.767 33.0667 129.021 33.46 129.381 33.74C129.754 34.02 130.201 34.16 130.721 34.16ZM143.534 26.02C143.534 25.9533 143.554 25.9 143.594 25.86C143.647 25.8067 143.707 25.78 143.774 25.78H145.594C145.661 25.78 145.714 25.8067 145.754 25.86C145.807 25.9 145.834 25.9533 145.834 26.02V35.76C145.834 35.8267 145.807 35.8867 145.754 35.94C145.714 35.98 145.661 36 145.594 36H143.774C143.707 36 143.647 35.98 143.594 35.94C143.554 35.8867 143.534 35.8267 143.534 35.76V35.12C143.534 35.08 143.521 35.0533 143.494 35.04C143.467 35.0267 143.441 35.04 143.414 35.08C142.867 35.7867 142.047 36.14 140.954 36.14C139.941 36.14 139.087 35.8467 138.394 35.26C137.714 34.6733 137.374 33.84 137.374 32.76V26.02C137.374 25.9533 137.394 25.9 137.434 25.86C137.487 25.8067 137.547 25.78 137.614 25.78H139.454C139.521 25.78 139.574 25.8067 139.614 25.86C139.667 25.9 139.694 25.9533 139.694 26.02V32.1C139.694 32.7267 139.854 33.2267 140.174 33.6C140.507 33.9733 140.967 34.16 141.554 34.16C142.154 34.16 142.634 33.9733 142.994 33.6C143.354 33.2267 143.534 32.7267 143.534 32.1V26.02ZM156.578 36.16C155.551 36.16 154.665 35.9 153.918 35.38C153.171 34.8467 152.651 34.1333 152.358 33.24C152.145 32.64 152.038 31.84 152.038 30.84C152.038 29.88 152.145 29.0933 152.358 28.48C152.638 27.6 153.151 26.9067 153.898 26.4C154.658 25.88 155.551 25.62 156.578 25.62C157.618 25.62 158.525 25.88 159.298 26.4C160.071 26.92 160.585 27.5733 160.838 28.36C160.905 28.5733 160.951 28.7867 160.978 29V29.04C160.978 29.1733 160.905 29.2533 160.758 29.28L158.958 29.54H158.918C158.798 29.54 158.718 29.4733 158.678 29.34C158.678 29.2733 158.671 29.22 158.658 29.18C158.631 29.0733 158.605 28.98 158.578 28.9C158.458 28.5267 158.218 28.22 157.858 27.98C157.498 27.74 157.071 27.62 156.578 27.62C156.071 27.62 155.638 27.7533 155.278 28.02C154.931 28.2733 154.698 28.6267 154.578 29.08C154.445 29.5067 154.378 30.1 154.378 30.86C154.378 31.5933 154.438 32.1867 154.558 32.64C154.691 33.1067 154.931 33.48 155.278 33.76C155.625 34.0267 156.058 34.16 156.578 34.16C157.085 34.16 157.518 34.0333 157.878 33.78C158.251 33.5133 158.491 33.16 158.598 32.72C158.611 32.6933 158.618 32.66 158.618 32.62C158.631 32.6067 158.638 32.5867 158.638 32.56C158.678 32.4 158.771 32.3333 158.918 32.36L160.718 32.64C160.785 32.6533 160.838 32.6867 160.878 32.74C160.931 32.78 160.951 32.84 160.938 32.92C160.898 33.1333 160.865 33.2867 160.838 33.38C160.585 34.2333 160.071 34.9133 159.298 35.42C158.525 35.9133 157.618 36.16 156.578 36.16ZM167.843 25.62C168.923 25.62 169.783 25.94 170.423 26.58C171.076 27.22 171.403 28.0933 171.403 29.2V35.76C171.403 35.8267 171.376 35.8867 171.323 35.94C171.283 35.98 171.23 36 171.163 36H169.323C169.256 36 169.196 35.98 169.143 35.94C169.103 35.8867 169.083 35.8267 169.083 35.76V29.68C169.083 29.0667 168.91 28.5733 168.563 28.2C168.216 27.8133 167.756 27.62 167.183 27.62C166.61 27.62 166.143 27.8067 165.783 28.18C165.436 28.5533 165.263 29.0467 165.263 29.66V35.76C165.263 35.8267 165.236 35.8867 165.183 35.94C165.143 35.98 165.09 36 165.023 36H163.183C163.116 36 163.056 35.98 163.003 35.94C162.963 35.8867 162.943 35.8267 162.943 35.76V22.24C162.943 22.1733 162.963 22.12 163.003 22.08C163.056 22.0267 163.116 22 163.183 22H165.023C165.09 22 165.143 22.0267 165.183 22.08C165.236 22.12 165.263 22.1733 165.263 22.24V26.66C165.263 26.7 165.276 26.7267 165.303 26.74C165.33 26.7533 165.35 26.74 165.363 26.7C165.91 25.98 166.736 25.62 167.843 25.62ZM178.084 36.16C177.031 36.16 176.124 35.8933 175.364 35.36C174.617 34.8267 174.091 34.0867 173.784 33.14C173.557 32.42 173.444 31.66 173.444 30.86C173.444 30.0067 173.551 29.2467 173.764 28.58C174.071 27.6467 174.604 26.92 175.364 26.4C176.124 25.88 177.037 25.62 178.104 25.62C179.117 25.62 179.991 25.88 180.724 26.4C181.471 26.92 181.997 27.64 182.304 28.56C182.544 29.2 182.664 29.96 182.664 30.84C182.664 31.68 182.551 32.44 182.324 33.12C182.017 34.0667 181.491 34.8133 180.744 35.36C179.997 35.8933 179.111 36.16 178.084 36.16ZM178.084 34.16C178.577 34.16 178.997 34.02 179.344 33.74C179.704 33.46 179.964 33.0667 180.124 32.56C180.257 32.12 180.324 31.56 180.324 30.88C180.324 30.16 180.257 29.6 180.124 29.2C179.977 28.6933 179.724 28.3067 179.364 28.04C179.004 27.76 178.564 27.62 178.044 27.62C177.551 27.62 177.124 27.76 176.764 28.04C176.404 28.3067 176.144 28.6933 175.984 29.2C175.851 29.6667 175.784 30.2267 175.784 30.88C175.784 31.5333 175.851 32.0933 175.984 32.56C176.131 33.0667 176.384 33.46 176.744 33.74C177.117 34.02 177.564 34.16 178.084 34.16ZM189.197 36.16C188.144 36.16 187.237 35.8933 186.477 35.36C185.731 34.8267 185.204 34.0867 184.897 33.14C184.671 32.42 184.557 31.66 184.557 30.86C184.557 30.0067 184.664 29.2467 184.877 28.58C185.184 27.6467 185.717 26.92 186.477 26.4C187.237 25.88 188.151 25.62 189.217 25.62C190.231 25.62 191.104 25.88 191.837 26.4C192.584 26.92 193.111 27.64 193.417 28.56C193.657 29.2 193.777 29.96 193.777 30.84C193.777 31.68 193.664 32.44 193.437 33.12C193.131 34.0667 192.604 34.8133 191.857 35.36C191.111 35.8933 190.224 36.16 189.197 36.16ZM189.197 34.16C189.691 34.16 190.111 34.02 190.457 33.74C190.817 33.46 191.077 33.0667 191.237 32.56C191.371 32.12 191.437 31.56 191.437 30.88C191.437 30.16 191.371 29.6 191.237 29.2C191.091 28.6933 190.837 28.3067 190.477 28.04C190.117 27.76 189.677 27.62 189.157 27.62C188.664 27.62 188.237 27.76 187.877 28.04C187.517 28.3067 187.257 28.6933 187.097 29.2C186.964 29.6667 186.897 30.2267 186.897 30.88C186.897 31.5333 186.964 32.0933 187.097 32.56C187.244 33.0667 187.497 33.46 187.857 33.74C188.231 34.02 188.677 34.16 189.197 34.16ZM199.77 36.12C198.93 36.12 198.19 36 197.55 35.76C196.924 35.5067 196.437 35.1667 196.09 34.74C195.744 34.3 195.57 33.8133 195.57 33.28V33.1C195.57 33.0333 195.59 32.98 195.63 32.94C195.684 32.8867 195.744 32.86 195.81 32.86H197.57C197.637 32.86 197.69 32.8867 197.73 32.94C197.784 32.98 197.81 33.0333 197.81 33.1V33.14C197.81 33.4733 197.99 33.7667 198.35 34.02C198.724 34.26 199.19 34.38 199.75 34.38C200.284 34.38 200.717 34.2733 201.05 34.06C201.384 33.8333 201.55 33.5533 201.55 33.22C201.55 32.9133 201.41 32.6867 201.13 32.54C200.864 32.38 200.424 32.2133 199.81 32.04L199.05 31.8C198.37 31.6 197.797 31.3867 197.33 31.16C196.864 30.9333 196.47 30.6267 196.15 30.24C195.83 29.84 195.67 29.3333 195.67 28.72C195.67 27.7867 196.037 27.0467 196.77 26.5C197.504 25.94 198.47 25.66 199.67 25.66C200.484 25.66 201.197 25.7933 201.81 26.06C202.424 26.3133 202.897 26.6733 203.23 27.14C203.564 27.5933 203.73 28.1133 203.73 28.7C203.73 28.7667 203.704 28.8267 203.65 28.88C203.61 28.92 203.557 28.94 203.49 28.94H201.79C201.724 28.94 201.664 28.92 201.61 28.88C201.57 28.8267 201.55 28.7667 201.55 28.7C201.55 28.3533 201.377 28.0667 201.03 27.84C200.697 27.6 200.237 27.48 199.65 27.48C199.13 27.48 198.704 27.58 198.37 27.78C198.05 27.9667 197.89 28.2333 197.89 28.58C197.89 28.9 198.044 29.1467 198.35 29.32C198.67 29.48 199.197 29.66 199.93 29.86L200.37 29.98C201.077 30.1933 201.67 30.4133 202.15 30.64C202.63 30.8533 203.037 31.16 203.37 31.56C203.704 31.9467 203.87 32.4533 203.87 33.08C203.87 34.0267 203.497 34.7733 202.75 35.32C202.004 35.8533 201.01 36.12 199.77 36.12ZM214.454 29.74C214.507 30.0733 214.534 30.4467 214.534 30.86L214.514 31.48C214.514 31.64 214.434 31.72 214.274 31.72H208.014C207.947 31.72 207.914 31.7533 207.914 31.82C207.954 32.26 208.014 32.56 208.094 32.72C208.414 33.68 209.194 34.1667 210.434 34.18C211.34 34.18 212.06 33.8067 212.594 33.06C212.647 32.98 212.714 32.94 212.794 32.94C212.847 32.94 212.894 32.96 212.934 33L214.174 34.02C214.294 34.1133 214.314 34.22 214.234 34.34C213.82 34.9267 213.267 35.38 212.574 35.7C211.894 36.02 211.134 36.18 210.294 36.18C209.254 36.18 208.367 35.9467 207.634 35.48C206.914 35.0133 206.387 34.36 206.054 33.52C205.747 32.8 205.594 31.8 205.594 30.52C205.594 29.7467 205.674 29.12 205.834 28.64C206.1 27.7067 206.6 26.9733 207.334 26.44C208.08 25.8933 208.974 25.62 210.014 25.62C212.64 25.62 214.12 26.9933 214.454 29.74ZM210.014 27.62C209.52 27.62 209.107 27.7467 208.774 28C208.454 28.24 208.227 28.58 208.094 29.02C208.014 29.2467 207.96 29.54 207.934 29.9C207.907 29.9667 207.934 30 208.014 30H212.074C212.14 30 212.174 29.9667 212.174 29.9C212.147 29.5667 212.107 29.3133 212.054 29.14C211.934 28.66 211.694 28.2867 211.334 28.02C210.987 27.7533 210.547 27.62 210.014 27.62ZM22.66 51.42C22.66 51.4867 22.6333 51.5467 22.58 51.6C22.54 51.64 22.4867 51.66 22.42 51.66H20.38C20.3133 51.66 20.28 51.6933 20.28 51.76V56.58C20.28 57.0867 20.3867 57.4533 20.6 57.68C20.8267 57.9067 21.18 58.02 21.66 58.02H22.26C22.3267 58.02 22.38 58.0467 22.42 58.1C22.4733 58.14 22.5 58.1933 22.5 58.26V59.76C22.5 59.9067 22.42 59.9933 22.26 60.02L21.22 60.04C20.1667 60.04 19.38 59.86 18.86 59.5C18.34 59.14 18.0733 58.46 18.06 57.46V51.76C18.06 51.6933 18.0267 51.66 17.96 51.66H16.82C16.7533 51.66 16.6933 51.64 16.64 51.6C16.6 51.5467 16.58 51.4867 16.58 51.42V50.02C16.58 49.9533 16.6 49.9 16.64 49.86C16.6933 49.8067 16.7533 49.78 16.82 49.78H17.96C18.0267 49.78 18.06 49.7467 18.06 49.68V47.34C18.06 47.2733 18.08 47.22 18.12 47.18C18.1733 47.1267 18.2333 47.1 18.3 47.1H20.04C20.1067 47.1 20.16 47.1267 20.2 47.18C20.2533 47.22 20.28 47.2733 20.28 47.34V49.68C20.28 49.7467 20.3133 49.78 20.38 49.78H22.42C22.4867 49.78 22.54 49.8067 22.58 49.86C22.6333 49.9 22.66 49.9533 22.66 50.02V51.42ZM29.6205 49.62C30.7005 49.62 31.5605 49.94 32.2005 50.58C32.8538 51.22 33.1805 52.0933 33.1805 53.2V59.76C33.1805 59.8267 33.1538 59.8867 33.1005 59.94C33.0605 59.98 33.0071 60 32.9405 60H31.1005C31.0338 60 30.9738 59.98 30.9205 59.94C30.8805 59.8867 30.8605 59.8267 30.8605 59.76V53.68C30.8605 53.0667 30.6871 52.5733 30.3405 52.2C29.9938 51.8133 29.5338 51.62 28.9605 51.62C28.3871 51.62 27.9205 51.8067 27.5605 52.18C27.2138 52.5533 27.0405 53.0467 27.0405 53.66V59.76C27.0405 59.8267 27.0138 59.8867 26.9605 59.94C26.9205 59.98 26.8671 60 26.8005 60H24.9605C24.8938 60 24.8338 59.98 24.7805 59.94C24.7405 59.8867 24.7205 59.8267 24.7205 59.76V46.24C24.7205 46.1733 24.7405 46.12 24.7805 46.08C24.8338 46.0267 24.8938 46 24.9605 46H26.8005C26.8671 46 26.9205 46.0267 26.9605 46.08C27.0138 46.12 27.0405 46.1733 27.0405 46.24V50.66C27.0405 50.7 27.0538 50.7267 27.0805 50.74C27.1071 50.7533 27.1271 50.74 27.1405 50.7C27.6871 49.98 28.5138 49.62 29.6205 49.62ZM44.1413 53.74C44.1946 54.0733 44.2213 54.4467 44.2213 54.86L44.2013 55.48C44.2013 55.64 44.1213 55.72 43.9613 55.72H37.7013C37.6346 55.72 37.6013 55.7533 37.6013 55.82C37.6413 56.26 37.7013 56.56 37.7813 56.72C38.1013 57.68 38.8813 58.1667 40.1213 58.18C41.0279 58.18 41.7479 57.8067 42.2813 57.06C42.3346 56.98 42.4013 56.94 42.4813 56.94C42.5346 56.94 42.5813 56.96 42.6213 57L43.8613 58.02C43.9813 58.1133 44.0013 58.22 43.9213 58.34C43.5079 58.9267 42.9546 59.38 42.2613 59.7C41.5813 60.02 40.8213 60.18 39.9813 60.18C38.9413 60.18 38.0546 59.9467 37.3213 59.48C36.6013 59.0133 36.0746 58.36 35.7413 57.52C35.4346 56.8 35.2813 55.8 35.2813 54.52C35.2813 53.7467 35.3613 53.12 35.5213 52.64C35.7879 51.7067 36.2879 50.9733 37.0213 50.44C37.7679 49.8933 38.6613 49.62 39.7013 49.62C42.3279 49.62 43.8079 50.9933 44.1413 53.74ZM39.7013 51.62C39.2079 51.62 38.7946 51.7467 38.4613 52C38.1413 52.24 37.9146 52.58 37.7813 53.02C37.7013 53.2467 37.6479 53.54 37.6213 53.9C37.5946 53.9667 37.6213 54 37.7013 54H41.7613C41.8279 54 41.8613 53.9667 41.8613 53.9C41.8346 53.5667 41.7946 53.3133 41.7413 53.14C41.6213 52.66 41.3813 52.2867 41.0213 52.02C40.6746 51.7533 40.2346 51.62 39.7013 51.62ZM55.1055 49.66C55.5321 49.66 55.9055 49.7467 56.2255 49.92C56.3321 49.9733 56.3721 50.0733 56.3455 50.22L56.0055 52.02C55.9921 52.18 55.8988 52.2267 55.7255 52.16C55.5255 52.0933 55.2921 52.06 55.0255 52.06C54.8521 52.06 54.7188 52.0667 54.6255 52.08C54.0655 52.1067 53.5988 52.3067 53.2255 52.68C52.8521 53.04 52.6655 53.5133 52.6655 54.1V59.76C52.6655 59.8267 52.6388 59.8867 52.5855 59.94C52.5455 59.98 52.4921 60 52.4255 60H50.5855C50.5188 60 50.4588 59.98 50.4055 59.94C50.3655 59.8867 50.3455 59.8267 50.3455 59.76V50.02C50.3455 49.9533 50.3655 49.9 50.4055 49.86C50.4588 49.8067 50.5188 49.78 50.5855 49.78H52.4255C52.4921 49.78 52.5455 49.8067 52.5855 49.86C52.6388 49.9 52.6655 49.9533 52.6655 50.02V50.92C52.6655 50.9733 52.6721 51.0067 52.6855 51.02C52.7121 51.02 52.7388 51 52.7655 50.96C53.3255 50.0933 54.1055 49.66 55.1055 49.66ZM59.185 48.38C58.7717 48.38 58.4317 48.2467 58.165 47.98C57.8983 47.7133 57.765 47.3733 57.765 46.96C57.765 46.5467 57.8983 46.2067 58.165 45.94C58.4317 45.6733 58.7717 45.54 59.185 45.54C59.5983 45.54 59.9383 45.6733 60.205 45.94C60.4717 46.2067 60.605 46.5467 60.605 46.96C60.605 47.3733 60.4717 47.7133 60.205 47.98C59.9383 48.2467 59.5983 48.38 59.185 48.38ZM58.225 60C58.1583 60 58.0983 59.98 58.045 59.94C58.005 59.8867 57.985 59.8267 57.985 59.76V50C57.985 49.9333 58.005 49.88 58.045 49.84C58.0983 49.7867 58.1583 49.76 58.225 49.76H60.065C60.1317 49.76 60.185 49.7867 60.225 49.84C60.2783 49.88 60.305 49.9333 60.305 50V59.76C60.305 59.8267 60.2783 59.8867 60.225 59.94C60.185 59.98 60.1317 60 60.065 60H58.225ZM69.2227 50.02C69.2227 49.9533 69.2427 49.9 69.2827 49.86C69.336 49.8067 69.396 49.78 69.4627 49.78H71.3027C71.3693 49.78 71.4227 49.8067 71.4627 49.86C71.516 49.9 71.5427 49.9533 71.5427 50.02V59.32C71.5427 60.9867 71.0627 62.1733 70.1027 62.88C69.156 63.6 67.9093 63.96 66.3627 63.96C65.9493 63.96 65.5427 63.94 65.1427 63.9C64.996 63.8867 64.9227 63.8 64.9227 63.64L64.9827 62C64.9827 61.8533 65.076 61.78 65.2627 61.78C65.6493 61.82 65.996 61.84 66.3027 61.84C67.3027 61.84 68.036 61.64 68.5027 61.24C68.9827 60.8533 69.2227 60.1933 69.2227 59.26V59.1C69.2227 59.06 69.2093 59.04 69.1827 59.04C69.156 59.0267 69.1293 59.0333 69.1027 59.06C68.556 59.6467 67.7827 59.94 66.7827 59.94C65.916 59.94 65.1227 59.72 64.4027 59.28C63.6827 58.84 63.1827 58.1667 62.9027 57.26C62.7293 56.6333 62.6427 55.8267 62.6427 54.84C62.6427 53.7333 62.7493 52.8867 62.9627 52.3C63.2293 51.4867 63.6893 50.84 64.3427 50.36C64.996 49.8667 65.7627 49.62 66.6427 49.62C67.696 49.62 68.516 49.9267 69.1027 50.54C69.1293 50.58 69.156 50.5933 69.1827 50.58C69.2093 50.5667 69.2227 50.54 69.2227 50.5V50.02ZM69.0827 56.6C69.136 56.4 69.1693 56.1867 69.1827 55.96C69.2093 55.72 69.2227 55.34 69.2227 54.82C69.2227 54.3133 69.2093 53.9533 69.1827 53.74C69.1693 53.5133 69.1293 53.2933 69.0627 53.08C68.956 52.64 68.736 52.2867 68.4027 52.02C68.0827 51.7533 67.6693 51.62 67.1627 51.62C66.6827 51.62 66.276 51.7533 65.9427 52.02C65.6093 52.2867 65.3693 52.64 65.2227 53.08C65.0627 53.4533 64.9827 54.04 64.9827 54.84C64.9827 55.6667 65.0493 56.2467 65.1827 56.58C65.316 57.0067 65.556 57.36 65.9027 57.64C66.2627 57.9067 66.6893 58.04 67.1827 58.04C67.7027 58.04 68.1227 57.9067 68.4427 57.64C68.7627 57.3733 68.976 57.0267 69.0827 56.6ZM78.8392 49.62C79.9192 49.62 80.7792 49.94 81.4192 50.58C82.0726 51.22 82.3992 52.0933 82.3992 53.2V59.76C82.3992 59.8267 82.3726 59.8867 82.3192 59.94C82.2792 59.98 82.2259 60 82.1592 60H80.3192C80.2526 60 80.1926 59.98 80.1392 59.94C80.0992 59.8867 80.0792 59.8267 80.0792 59.76V53.68C80.0792 53.0667 79.9059 52.5733 79.5592 52.2C79.2126 51.8133 78.7526 51.62 78.1792 51.62C77.6059 51.62 77.1392 51.8067 76.7792 52.18C76.4326 52.5533 76.2592 53.0467 76.2592 53.66V59.76C76.2592 59.8267 76.2326 59.8867 76.1792 59.94C76.1392 59.98 76.0859 60 76.0192 60H74.1792C74.1126 60 74.0526 59.98 73.9992 59.94C73.9592 59.8867 73.9392 59.8267 73.9392 59.76V46.24C73.9392 46.1733 73.9592 46.12 73.9992 46.08C74.0526 46.0267 74.1126 46 74.1792 46H76.0192C76.0859 46 76.1392 46.0267 76.1792 46.08C76.2326 46.12 76.2592 46.1733 76.2592 46.24V50.66C76.2592 50.7 76.2726 50.7267 76.2992 50.74C76.3259 50.7533 76.3459 50.74 76.3592 50.7C76.9059 49.98 77.7326 49.62 78.8392 49.62ZM90.2381 51.42C90.2381 51.4867 90.2115 51.5467 90.1581 51.6C90.1181 51.64 90.0648 51.66 89.9981 51.66H87.9581C87.8915 51.66 87.8581 51.6933 87.8581 51.76V56.58C87.8581 57.0867 87.9648 57.4533 88.1781 57.68C88.4048 57.9067 88.7581 58.02 89.2381 58.02H89.8381C89.9048 58.02 89.9581 58.0467 89.9981 58.1C90.0515 58.14 90.0781 58.1933 90.0781 58.26V59.76C90.0781 59.9067 89.9981 59.9933 89.8381 60.02L88.7981 60.04C87.7448 60.04 86.9581 59.86 86.4381 59.5C85.9181 59.14 85.6515 58.46 85.6381 57.46V51.76C85.6381 51.6933 85.6048 51.66 85.5381 51.66H84.3981C84.3315 51.66 84.2715 51.64 84.2181 51.6C84.1781 51.5467 84.1581 51.4867 84.1581 51.42V50.02C84.1581 49.9533 84.1781 49.9 84.2181 49.86C84.2715 49.8067 84.3315 49.78 84.3981 49.78H85.5381C85.6048 49.78 85.6381 49.7467 85.6381 49.68V47.34C85.6381 47.2733 85.6581 47.22 85.6981 47.18C85.7515 47.1267 85.8115 47.1 85.8781 47.1H87.6181C87.6848 47.1 87.7381 47.1267 87.7781 47.18C87.8315 47.22 87.8581 47.2733 87.8581 47.34V49.68C87.8581 49.7467 87.8915 49.78 87.9581 49.78H89.9981C90.0648 49.78 90.1181 49.8067 90.1581 49.86C90.2115 49.9 90.2381 49.9533 90.2381 50.02V51.42ZM97.6225 48.38C97.2092 48.38 96.8692 48.2467 96.6025 47.98C96.3358 47.7133 96.2025 47.3733 96.2025 46.96C96.2025 46.5467 96.3358 46.2067 96.6025 45.94C96.8692 45.6733 97.2092 45.54 97.6225 45.54C98.0358 45.54 98.3758 45.6733 98.6425 45.94C98.9092 46.2067 99.0425 46.5467 99.0425 46.96C99.0425 47.3733 98.9092 47.7133 98.6425 47.98C98.3758 48.2467 98.0358 48.38 97.6225 48.38ZM96.6625 60C96.5958 60 96.5358 59.98 96.4825 59.94C96.4425 59.8867 96.4225 59.8267 96.4225 59.76V50C96.4225 49.9333 96.4425 49.88 96.4825 49.84C96.5358 49.7867 96.5958 49.76 96.6625 49.76H98.5025C98.5692 49.76 98.6225 49.7867 98.6625 49.84C98.7158 49.88 98.7425 49.9333 98.7425 50V59.76C98.7425 59.8267 98.7158 59.8867 98.6625 59.94C98.6225 59.98 98.5692 60 98.5025 60H96.6625ZM106.3 49.62C107.38 49.62 108.24 49.94 108.88 50.58C109.533 51.22 109.86 52.0933 109.86 53.2V59.76C109.86 59.8267 109.833 59.8867 109.78 59.94C109.74 59.98 109.687 60 109.62 60H107.78C107.713 60 107.653 59.98 107.6 59.94C107.56 59.8867 107.54 59.8267 107.54 59.76V53.68C107.54 53.0667 107.367 52.5733 107.02 52.2C106.673 51.8133 106.213 51.62 105.64 51.62C105.067 51.62 104.6 51.8067 104.24 52.18C103.893 52.5533 103.72 53.0467 103.72 53.66V59.76C103.72 59.8267 103.693 59.8867 103.64 59.94C103.6 59.98 103.547 60 103.48 60H101.64C101.573 60 101.513 59.98 101.46 59.94C101.42 59.8867 101.4 59.8267 101.4 59.76V50.02C101.4 49.9533 101.42 49.9 101.46 49.86C101.513 49.8067 101.573 49.78 101.64 49.78H103.48C103.547 49.78 103.6 49.8067 103.64 49.86C103.693 49.9 103.72 49.9533 103.72 50.02V50.66C103.72 50.7 103.733 50.7267 103.76 50.74C103.787 50.7533 103.807 50.74 103.82 50.7C104.367 49.98 105.193 49.62 106.3 49.62ZM114.688 60C114.554 60 114.468 59.9333 114.428 59.8L111.208 50.04C111.194 50.0133 111.188 49.98 111.188 49.94C111.188 49.82 111.261 49.76 111.408 49.76H113.448C113.594 49.76 113.688 49.8267 113.728 49.96L115.668 56.64C115.681 56.68 115.701 56.7 115.728 56.7C115.754 56.7 115.774 56.68 115.788 56.64L117.728 49.96C117.768 49.8267 117.861 49.76 118.008 49.76L120.048 49.8C120.128 49.8 120.188 49.8267 120.228 49.88C120.268 49.92 120.274 49.9867 120.248 50.08L117.048 59.8C117.008 59.9333 116.921 60 116.788 60H114.688ZM130.079 53.74C130.132 54.0733 130.159 54.4467 130.159 54.86L130.139 55.48C130.139 55.64 130.059 55.72 129.899 55.72H123.639C123.572 55.72 123.539 55.7533 123.539 55.82C123.579 56.26 123.639 56.56 123.719 56.72C124.039 57.68 124.819 58.1667 126.059 58.18C126.965 58.18 127.685 57.8067 128.219 57.06C128.272 56.98 128.339 56.94 128.419 56.94C128.472 56.94 128.519 56.96 128.559 57L129.799 58.02C129.919 58.1133 129.939 58.22 129.859 58.34C129.445 58.9267 128.892 59.38 128.199 59.7C127.519 60.02 126.759 60.18 125.919 60.18C124.879 60.18 123.992 59.9467 123.259 59.48C122.539 59.0133 122.012 58.36 121.679 57.52C121.372 56.8 121.219 55.8 121.219 54.52C121.219 53.7467 121.299 53.12 121.459 52.64C121.725 51.7067 122.225 50.9733 122.959 50.44C123.705 49.8933 124.599 49.62 125.639 49.62C128.265 49.62 129.745 50.9933 130.079 53.74ZM125.639 51.62C125.145 51.62 124.732 51.7467 124.399 52C124.079 52.24 123.852 52.58 123.719 53.02C123.639 53.2467 123.585 53.54 123.559 53.9C123.532 53.9667 123.559 54 123.639 54H127.699C127.765 54 127.799 53.9667 127.799 53.9C127.772 53.5667 127.732 53.3133 127.679 53.14C127.559 52.66 127.319 52.2867 126.959 52.02C126.612 51.7533 126.172 51.62 125.639 51.62ZM135.923 60.12C135.083 60.12 134.343 60 133.703 59.76C133.076 59.5067 132.589 59.1667 132.243 58.74C131.896 58.3 131.723 57.8133 131.723 57.28V57.1C131.723 57.0333 131.743 56.98 131.783 56.94C131.836 56.8867 131.896 56.86 131.963 56.86H133.723C133.789 56.86 133.843 56.8867 133.883 56.94C133.936 56.98 133.963 57.0333 133.963 57.1V57.14C133.963 57.4733 134.143 57.7667 134.503 58.02C134.876 58.26 135.343 58.38 135.903 58.38C136.436 58.38 136.869 58.2733 137.203 58.06C137.536 57.8333 137.703 57.5533 137.703 57.22C137.703 56.9133 137.563 56.6867 137.283 56.54C137.016 56.38 136.576 56.2133 135.963 56.04L135.203 55.8C134.523 55.6 133.949 55.3867 133.483 55.16C133.016 54.9333 132.623 54.6267 132.303 54.24C131.983 53.84 131.823 53.3333 131.823 52.72C131.823 51.7867 132.189 51.0467 132.923 50.5C133.656 49.94 134.623 49.66 135.823 49.66C136.636 49.66 137.349 49.7933 137.963 50.06C138.576 50.3133 139.049 50.6733 139.383 51.14C139.716 51.5933 139.883 52.1133 139.883 52.7C139.883 52.7667 139.856 52.8267 139.803 52.88C139.763 52.92 139.709 52.94 139.643 52.94H137.943C137.876 52.94 137.816 52.92 137.763 52.88C137.723 52.8267 137.703 52.7667 137.703 52.7C137.703 52.3533 137.529 52.0667 137.183 51.84C136.849 51.6 136.389 51.48 135.803 51.48C135.283 51.48 134.856 51.58 134.523 51.78C134.203 51.9667 134.043 52.2333 134.043 52.58C134.043 52.9 134.196 53.1467 134.503 53.32C134.823 53.48 135.349 53.66 136.083 53.86L136.523 53.98C137.229 54.1933 137.823 54.4133 138.303 54.64C138.783 54.8533 139.189 55.16 139.523 55.56C139.856 55.9467 140.023 56.4533 140.023 57.08C140.023 58.0267 139.649 58.7733 138.903 59.32C138.156 59.8533 137.163 60.12 135.923 60.12ZM147.387 51.42C147.387 51.4867 147.36 51.5467 147.307 51.6C147.267 51.64 147.213 51.66 147.147 51.66H145.107C145.04 51.66 145.007 51.6933 145.007 51.76V56.58C145.007 57.0867 145.113 57.4533 145.327 57.68C145.553 57.9067 145.907 58.02 146.387 58.02H146.987C147.053 58.02 147.107 58.0467 147.147 58.1C147.2 58.14 147.227 58.1933 147.227 58.26V59.76C147.227 59.9067 147.147 59.9933 146.987 60.02L145.947 60.04C144.893 60.04 144.107 59.86 143.587 59.5C143.067 59.14 142.8 58.46 142.787 57.46V51.76C142.787 51.6933 142.753 51.66 142.687 51.66H141.547C141.48 51.66 141.42 51.64 141.367 51.6C141.327 51.5467 141.307 51.4867 141.307 51.42V50.02C141.307 49.9533 141.327 49.9 141.367 49.86C141.42 49.8067 141.48 49.78 141.547 49.78H142.687C142.753 49.78 142.787 49.7467 142.787 49.68V47.34C142.787 47.2733 142.807 47.22 142.847 47.18C142.9 47.1267 142.96 47.1 143.027 47.1H144.767C144.833 47.1 144.887 47.1267 144.927 47.18C144.98 47.22 145.007 47.2733 145.007 47.34V49.68C145.007 49.7467 145.04 49.78 145.107 49.78H147.147C147.213 49.78 147.267 49.8067 147.307 49.86C147.36 49.9 147.387 49.9533 147.387 50.02V51.42ZM160.387 49.62C161.414 49.62 162.214 49.9333 162.787 50.56C163.374 51.1733 163.667 52.0333 163.667 53.14V59.76C163.667 59.8267 163.64 59.8867 163.587 59.94C163.547 59.98 163.494 60 163.427 60H161.607C161.54 60 161.48 59.98 161.427 59.94C161.387 59.8867 161.367 59.8267 161.367 59.76V53.62C161.367 53.0067 161.2 52.52 160.867 52.16C160.547 51.8 160.114 51.62 159.567 51.62C159.02 51.62 158.574 51.8 158.227 52.16C157.88 52.52 157.707 53 157.707 53.6V59.76C157.707 59.8267 157.68 59.8867 157.627 59.94C157.587 59.98 157.534 60 157.467 60H155.647C155.58 60 155.52 59.98 155.467 59.94C155.427 59.8867 155.407 59.8267 155.407 59.76V53.62C155.407 53.0067 155.24 52.52 154.907 52.16C154.574 51.8 154.134 51.62 153.587 51.62C153.08 51.62 152.66 51.7667 152.327 52.06C152.007 52.3533 151.82 52.7533 151.767 53.26V59.76C151.767 59.8267 151.74 59.8867 151.687 59.94C151.647 59.98 151.594 60 151.527 60H149.687C149.62 60 149.56 59.98 149.507 59.94C149.467 59.8867 149.447 59.8267 149.447 59.76V50.02C149.447 49.9533 149.467 49.9 149.507 49.86C149.56 49.8067 149.62 49.78 149.687 49.78H151.527C151.594 49.78 151.647 49.8067 151.687 49.86C151.74 49.9 151.767 49.9533 151.767 50.02V50.68C151.767 50.72 151.78 50.7467 151.807 50.76C151.834 50.7733 151.86 50.76 151.887 50.72C152.18 50.3467 152.54 50.0733 152.967 49.9C153.407 49.7133 153.894 49.62 154.427 49.62C155.08 49.62 155.654 49.7533 156.147 50.02C156.64 50.2867 157.02 50.6733 157.287 51.18C157.327 51.2333 157.374 51.2333 157.427 51.18C157.72 50.6467 158.127 50.2533 158.647 50C159.167 49.7467 159.747 49.62 160.387 49.62ZM174.571 53.74C174.624 54.0733 174.651 54.4467 174.651 54.86L174.631 55.48C174.631 55.64 174.551 55.72 174.391 55.72H168.131C168.064 55.72 168.031 55.7533 168.031 55.82C168.071 56.26 168.131 56.56 168.211 56.72C168.531 57.68 169.311 58.1667 170.551 58.18C171.458 58.18 172.178 57.8067 172.711 57.06C172.764 56.98 172.831 56.94 172.911 56.94C172.964 56.94 173.011 56.96 173.051 57L174.291 58.02C174.411 58.1133 174.431 58.22 174.351 58.34C173.938 58.9267 173.384 59.38 172.691 59.7C172.011 60.02 171.251 60.18 170.411 60.18C169.371 60.18 168.484 59.9467 167.751 59.48C167.031 59.0133 166.504 58.36 166.171 57.52C165.864 56.8 165.711 55.8 165.711 54.52C165.711 53.7467 165.791 53.12 165.951 52.64C166.218 51.7067 166.718 50.9733 167.451 50.44C168.198 49.8933 169.091 49.62 170.131 49.62C172.758 49.62 174.238 50.9933 174.571 53.74ZM170.131 51.62C169.638 51.62 169.224 51.7467 168.891 52C168.571 52.24 168.344 52.58 168.211 53.02C168.131 53.2467 168.078 53.54 168.051 53.9C168.024 53.9667 168.051 54 168.131 54H172.191C172.258 54 172.291 53.9667 172.291 53.9C172.264 53.5667 172.224 53.3133 172.171 53.14C172.051 52.66 171.811 52.2867 171.451 52.02C171.104 51.7533 170.664 51.62 170.131 51.62ZM181.671 49.62C182.751 49.62 183.611 49.94 184.251 50.58C184.905 51.22 185.231 52.0933 185.231 53.2V59.76C185.231 59.8267 185.205 59.8867 185.151 59.94C185.111 59.98 185.058 60 184.991 60H183.151C183.085 60 183.025 59.98 182.971 59.94C182.931 59.8867 182.911 59.8267 182.911 59.76V53.68C182.911 53.0667 182.738 52.5733 182.391 52.2C182.045 51.8133 181.585 51.62 181.011 51.62C180.438 51.62 179.971 51.8067 179.611 52.18C179.265 52.5533 179.091 53.0467 179.091 53.66V59.76C179.091 59.8267 179.065 59.8867 179.011 59.94C178.971 59.98 178.918 60 178.851 60H177.011C176.945 60 176.885 59.98 176.831 59.94C176.791 59.8867 176.771 59.8267 176.771 59.76V50.02C176.771 49.9533 176.791 49.9 176.831 49.86C176.885 49.8067 176.945 49.78 177.011 49.78H178.851C178.918 49.78 178.971 49.8067 179.011 49.86C179.065 49.9 179.091 49.9533 179.091 50.02V50.66C179.091 50.7 179.105 50.7267 179.131 50.74C179.158 50.7533 179.178 50.74 179.191 50.7C179.738 49.98 180.565 49.62 181.671 49.62ZM193.07 51.42C193.07 51.4867 193.043 51.5467 192.99 51.6C192.95 51.64 192.897 51.66 192.83 51.66H190.79C190.723 51.66 190.69 51.6933 190.69 51.76V56.58C190.69 57.0867 190.797 57.4533 191.01 57.68C191.237 57.9067 191.59 58.02 192.07 58.02H192.67C192.737 58.02 192.79 58.0467 192.83 58.1C192.883 58.14 192.91 58.1933 192.91 58.26V59.76C192.91 59.9067 192.83 59.9933 192.67 60.02L191.63 60.04C190.577 60.04 189.79 59.86 189.27 59.5C188.75 59.14 188.483 58.46 188.47 57.46V51.76C188.47 51.6933 188.437 51.66 188.37 51.66H187.23C187.163 51.66 187.103 51.64 187.05 51.6C187.01 51.5467 186.99 51.4867 186.99 51.42V50.02C186.99 49.9533 187.01 49.9 187.05 49.86C187.103 49.8067 187.163 49.78 187.23 49.78H188.37C188.437 49.78 188.47 49.7467 188.47 49.68V47.34C188.47 47.2733 188.49 47.22 188.53 47.18C188.583 47.1267 188.643 47.1 188.71 47.1H190.45C190.517 47.1 190.57 47.1267 190.61 47.18C190.663 47.22 190.69 47.2733 190.69 47.34V49.68C190.69 49.7467 190.723 49.78 190.79 49.78H192.83C192.897 49.78 192.95 49.8067 192.99 49.86C193.043 49.9 193.07 49.9533 193.07 50.02V51.42ZM198.931 60.12C198.091 60.12 197.351 60 196.711 59.76C196.084 59.5067 195.597 59.1667 195.251 58.74C194.904 58.3 194.731 57.8133 194.731 57.28V57.1C194.731 57.0333 194.751 56.98 194.791 56.94C194.844 56.8867 194.904 56.86 194.971 56.86H196.731C196.797 56.86 196.851 56.8867 196.891 56.94C196.944 56.98 196.971 57.0333 196.971 57.1V57.14C196.971 57.4733 197.151 57.7667 197.511 58.02C197.884 58.26 198.351 58.38 198.911 58.38C199.444 58.38 199.877 58.2733 200.211 58.06C200.544 57.8333 200.711 57.5533 200.711 57.22C200.711 56.9133 200.571 56.6867 200.291 56.54C200.024 56.38 199.584 56.2133 198.971 56.04L198.211 55.8C197.531 55.6 196.957 55.3867 196.491 55.16C196.024 54.9333 195.631 54.6267 195.311 54.24C194.991 53.84 194.831 53.3333 194.831 52.72C194.831 51.7867 195.197 51.0467 195.931 50.5C196.664 49.94 197.631 49.66 198.831 49.66C199.644 49.66 200.357 49.7933 200.971 50.06C201.584 50.3133 202.057 50.6733 202.391 51.14C202.724 51.5933 202.891 52.1133 202.891 52.7C202.891 52.7667 202.864 52.8267 202.811 52.88C202.771 52.92 202.717 52.94 202.651 52.94H200.951C200.884 52.94 200.824 52.92 200.771 52.88C200.731 52.8267 200.711 52.7667 200.711 52.7C200.711 52.3533 200.537 52.0667 200.191 51.84C199.857 51.6 199.397 51.48 198.811 51.48C198.291 51.48 197.864 51.58 197.531 51.78C197.211 51.9667 197.051 52.2333 197.051 52.58C197.051 52.9 197.204 53.1467 197.511 53.32C197.831 53.48 198.357 53.66 199.091 53.86L199.531 53.98C200.237 54.1933 200.831 54.4133 201.311 54.64C201.791 54.8533 202.197 55.16 202.531 55.56C202.864 55.9467 203.031 56.4533 203.031 57.08C203.031 58.0267 202.657 58.7733 201.911 59.32C201.164 59.8533 200.171 60.12 198.931 60.12ZM22.56 73.76C22.6267 73.76 22.68 73.7867 22.72 73.84C22.7733 73.88 22.8 73.9333 22.8 74V75.58C22.8 75.6467 22.7733 75.7067 22.72 75.76C22.68 75.8 22.6267 75.82 22.56 75.82H20.58C20.5133 75.82 20.48 75.8533 20.48 75.92V83.76C20.48 83.8267 20.4533 83.8867 20.4 83.94C20.36 83.98 20.3067 84 20.24 84H18.4C18.3333 84 18.2733 83.98 18.22 83.94C18.18 83.8867 18.16 83.8267 18.16 83.76V75.92C18.16 75.8533 18.1267 75.82 18.06 75.82H16.82C16.7533 75.82 16.6933 75.8 16.64 75.76C16.6 75.7067 16.58 75.6467 16.58 75.58V74C16.58 73.9333 16.6 73.88 16.64 73.84C16.6933 73.7867 16.7533 73.76 16.82 73.76H18.06C18.1267 73.76 18.16 73.7267 18.16 73.66V73.3C18.16 72.4333 18.2733 71.7667 18.5 71.3C18.7267 70.82 19.1 70.48 19.62 70.28C20.14 70.08 20.8733 69.9867 21.82 70H22.52C22.5867 70 22.64 70.0267 22.68 70.08C22.7333 70.12 22.76 70.1733 22.76 70.24V71.64C22.76 71.7067 22.7333 71.7667 22.68 71.82C22.64 71.86 22.5867 71.88 22.52 71.88H22C21.4267 71.88 21.0267 71.9933 20.8 72.22C20.5867 72.4467 20.48 72.86 20.48 73.46V73.66C20.48 73.7267 20.5133 73.76 20.58 73.76H22.56ZM28.3769 84.16C27.3235 84.16 26.4169 83.8933 25.6569 83.36C24.9102 82.8267 24.3835 82.0867 24.0769 81.14C23.8502 80.42 23.7369 79.66 23.7369 78.86C23.7369 78.0067 23.8435 77.2467 24.0569 76.58C24.3635 75.6467 24.8969 74.92 25.6569 74.4C26.4169 73.88 27.3302 73.62 28.3969 73.62C29.4102 73.62 30.2835 73.88 31.0169 74.4C31.7635 74.92 32.2902 75.64 32.5969 76.56C32.8369 77.2 32.9569 77.96 32.9569 78.84C32.9569 79.68 32.8435 80.44 32.6169 81.12C32.3102 82.0667 31.7835 82.8133 31.0369 83.36C30.2902 83.8933 29.4035 84.16 28.3769 84.16ZM28.3769 82.16C28.8702 82.16 29.2902 82.02 29.6369 81.74C29.9969 81.46 30.2569 81.0667 30.4169 80.56C30.5502 80.12 30.6169 79.56 30.6169 78.88C30.6169 78.16 30.5502 77.6 30.4169 77.2C30.2702 76.6933 30.0169 76.3067 29.6569 76.04C29.2969 75.76 28.8569 75.62 28.3369 75.62C27.8435 75.62 27.4169 75.76 27.0569 76.04C26.6969 76.3067 26.4369 76.6933 26.2769 77.2C26.1435 77.6667 26.0769 78.2267 26.0769 78.88C26.0769 79.5333 26.1435 80.0933 26.2769 80.56C26.4235 81.0667 26.6769 81.46 27.0369 81.74C27.4102 82.02 27.8569 82.16 28.3769 82.16ZM39.9102 73.66C40.3368 73.66 40.7102 73.7467 41.0302 73.92C41.1368 73.9733 41.1768 74.0733 41.1502 74.22L40.8102 76.02C40.7968 76.18 40.7035 76.2267 40.5302 76.16C40.3302 76.0933 40.0968 76.06 39.8302 76.06C39.6568 76.06 39.5235 76.0667 39.4302 76.08C38.8702 76.1067 38.4035 76.3067 38.0302 76.68C37.6568 77.04 37.4702 77.5133 37.4702 78.1V83.76C37.4702 83.8267 37.4435 83.8867 37.3902 83.94C37.3502 83.98 37.2968 84 37.2302 84H35.3902C35.3235 84 35.2635 83.98 35.2102 83.94C35.1702 83.8867 35.1502 83.8267 35.1502 83.76V74.02C35.1502 73.9533 35.1702 73.9 35.2102 73.86C35.2635 73.8067 35.3235 73.78 35.3902 73.78H37.2302C37.2968 73.78 37.3502 73.8067 37.3902 73.86C37.4435 73.9 37.4702 73.9533 37.4702 74.02V74.92C37.4702 74.9733 37.4768 75.0067 37.4902 75.02C37.5168 75.02 37.5435 75 37.5702 74.96C38.1302 74.0933 38.9102 73.66 39.9102 73.66ZM46.4736 87.98C46.4336 87.98 46.4003 87.9533 46.3736 87.9C46.3469 87.86 46.3336 87.8067 46.3336 87.74V86.3C46.3336 86.2333 46.3536 86.1733 46.3936 86.12C46.4469 86.08 46.5069 86.06 46.5736 86.06H46.5936C47.1403 86.0467 47.5669 85.9867 47.8736 85.88C48.1803 85.7867 48.4336 85.6 48.6336 85.32C48.8336 85.04 49.0136 84.62 49.1736 84.06C49.1869 84.0333 49.1869 83.9933 49.1736 83.94L45.8736 74.04C45.8603 74.0133 45.8536 73.98 45.8536 73.94C45.8536 73.82 45.9203 73.76 46.0536 73.76H48.0136C48.1603 73.76 48.2536 73.8267 48.2936 73.96L50.2936 81C50.3069 81.04 50.3269 81.06 50.3536 81.06C50.3803 81.06 50.4003 81.04 50.4136 81L52.4136 73.96C52.4536 73.8267 52.5469 73.76 52.6936 73.76H54.5936C54.6736 73.76 54.7269 73.7867 54.7536 73.84C54.7936 73.88 54.8003 73.9467 54.7736 74.04L51.2536 84.56C50.9203 85.5067 50.5936 86.2133 50.2736 86.68C49.9536 87.1467 49.5136 87.48 48.9536 87.68C48.4069 87.88 47.6269 87.98 46.6136 87.98H46.4736ZM60.2519 84.16C59.1985 84.16 58.2919 83.8933 57.5319 83.36C56.7852 82.8267 56.2585 82.0867 55.9519 81.14C55.7252 80.42 55.6119 79.66 55.6119 78.86C55.6119 78.0067 55.7185 77.2467 55.9319 76.58C56.2385 75.6467 56.7719 74.92 57.5319 74.4C58.2919 73.88 59.2052 73.62 60.2719 73.62C61.2852 73.62 62.1585 73.88 62.8919 74.4C63.6385 74.92 64.1652 75.64 64.4719 76.56C64.7119 77.2 64.8319 77.96 64.8319 78.84C64.8319 79.68 64.7185 80.44 64.4919 81.12C64.1852 82.0667 63.6585 82.8133 62.9119 83.36C62.1652 83.8933 61.2785 84.16 60.2519 84.16ZM60.2519 82.16C60.7452 82.16 61.1652 82.02 61.5119 81.74C61.8719 81.46 62.1319 81.0667 62.2919 80.56C62.4252 80.12 62.4919 79.56 62.4919 78.88C62.4919 78.16 62.4252 77.6 62.2919 77.2C62.1452 76.6933 61.8919 76.3067 61.5319 76.04C61.1719 75.76 60.7319 75.62 60.2119 75.62C59.7185 75.62 59.2919 75.76 58.9319 76.04C58.5719 76.3067 58.3119 76.6933 58.1519 77.2C58.0185 77.6667 57.9519 78.2267 57.9519 78.88C57.9519 79.5333 58.0185 80.0933 58.1519 80.56C58.2985 81.0667 58.5519 81.46 58.9119 81.74C59.2852 82.02 59.7319 82.16 60.2519 82.16ZM73.0652 74.02C73.0652 73.9533 73.0852 73.9 73.1252 73.86C73.1785 73.8067 73.2385 73.78 73.3052 73.78H75.1252C75.1918 73.78 75.2452 73.8067 75.2852 73.86C75.3385 73.9 75.3652 73.9533 75.3652 74.02V83.76C75.3652 83.8267 75.3385 83.8867 75.2852 83.94C75.2452 83.98 75.1918 84 75.1252 84H73.3052C73.2385 84 73.1785 83.98 73.1252 83.94C73.0852 83.8867 73.0652 83.8267 73.0652 83.76V83.12C73.0652 83.08 73.0518 83.0533 73.0252 83.04C72.9985 83.0267 72.9718 83.04 72.9452 83.08C72.3985 83.7867 71.5785 84.14 70.4852 84.14C69.4718 84.14 68.6185 83.8467 67.9252 83.26C67.2452 82.6733 66.9052 81.84 66.9052 80.76V74.02C66.9052 73.9533 66.9252 73.9 66.9652 73.86C67.0185 73.8067 67.0785 73.78 67.1452 73.78H68.9852C69.0518 73.78 69.1052 73.8067 69.1452 73.86C69.1985 73.9 69.2252 73.9533 69.2252 74.02V80.1C69.2252 80.7267 69.3852 81.2267 69.7052 81.6C70.0385 81.9733 70.4985 82.16 71.0852 82.16C71.6852 82.16 72.1652 81.9733 72.5252 81.6C72.8852 81.2267 73.0652 80.7267 73.0652 80.1V74.02ZM82.6055 73.66C83.0321 73.66 83.4055 73.7467 83.7255 73.92C83.8321 73.9733 83.8721 74.0733 83.8455 74.22L83.5055 76.02C83.4921 76.18 83.3988 76.2267 83.2255 76.16C83.0255 76.0933 82.7921 76.06 82.5255 76.06C82.3521 76.06 82.2188 76.0667 82.1255 76.08C81.5655 76.1067 81.0988 76.3067 80.7255 76.68C80.3521 77.04 80.1655 77.5133 80.1655 78.1V83.76C80.1655 83.8267 80.1388 83.8867 80.0855 83.94C80.0455 83.98 79.9921 84 79.9255 84H78.0855C78.0188 84 77.9588 83.98 77.9055 83.94C77.8655 83.8867 77.8455 83.8267 77.8455 83.76V74.02C77.8455 73.9533 77.8655 73.9 77.9055 73.86C77.9588 73.8067 78.0188 73.78 78.0855 73.78H79.9255C79.9921 73.78 80.0455 73.8067 80.0855 73.86C80.1388 73.9 80.1655 73.9533 80.1655 74.02V74.92C80.1655 74.9733 80.1721 75.0067 80.1855 75.02C80.2121 75.02 80.2388 75 80.2655 74.96C80.8255 74.0933 81.6055 73.66 82.6055 73.66ZM95.6289 74.02C95.6289 73.9533 95.6489 73.9 95.6889 73.86C95.7422 73.8067 95.8022 73.78 95.8689 73.78H97.7089C97.7756 73.78 97.8289 73.8067 97.8689 73.86C97.9222 73.9 97.9489 73.9533 97.9489 74.02V83.32C97.9489 84.9867 97.4689 86.1733 96.5089 86.88C95.5622 87.6 94.3156 87.96 92.7689 87.96C92.3556 87.96 91.9489 87.94 91.5489 87.9C91.4022 87.8867 91.3289 87.8 91.3289 87.64L91.3889 86C91.3889 85.8533 91.4822 85.78 91.6689 85.78C92.0556 85.82 92.4022 85.84 92.7089 85.84C93.7089 85.84 94.4422 85.64 94.9089 85.24C95.3889 84.8533 95.6289 84.1933 95.6289 83.26V83.1C95.6289 83.06 95.6156 83.04 95.5889 83.04C95.5622 83.0267 95.5356 83.0333 95.5089 83.06C94.9622 83.6467 94.1889 83.94 93.1889 83.94C92.3222 83.94 91.5289 83.72 90.8089 83.28C90.0889 82.84 89.5889 82.1667 89.3089 81.26C89.1356 80.6333 89.0489 79.8267 89.0489 78.84C89.0489 77.7333 89.1556 76.8867 89.3689 76.3C89.6356 75.4867 90.0956 74.84 90.7489 74.36C91.4022 73.8667 92.1689 73.62 93.0489 73.62C94.1022 73.62 94.9222 73.9267 95.5089 74.54C95.5356 74.58 95.5622 74.5933 95.5889 74.58C95.6156 74.5667 95.6289 74.54 95.6289 74.5V74.02ZM95.4889 80.6C95.5422 80.4 95.5756 80.1867 95.5889 79.96C95.6156 79.72 95.6289 79.34 95.6289 78.82C95.6289 78.3133 95.6156 77.9533 95.5889 77.74C95.5756 77.5133 95.5356 77.2933 95.4689 77.08C95.3622 76.64 95.1422 76.2867 94.8089 76.02C94.4889 75.7533 94.0756 75.62 93.5689 75.62C93.0889 75.62 92.6822 75.7533 92.3489 76.02C92.0156 76.2867 91.7756 76.64 91.6289 77.08C91.4689 77.4533 91.3889 78.04 91.3889 78.84C91.3889 79.6667 91.4556 80.2467 91.5889 80.58C91.7222 81.0067 91.9622 81.36 92.3089 81.64C92.6689 81.9067 93.0956 82.04 93.5889 82.04C94.1089 82.04 94.5289 81.9067 94.8489 81.64C95.1689 81.3733 95.3822 81.0267 95.4889 80.6ZM104.685 84.16C103.632 84.16 102.725 83.8933 101.965 83.36C101.219 82.8267 100.692 82.0867 100.385 81.14C100.159 80.42 100.045 79.66 100.045 78.86C100.045 78.0067 100.152 77.2467 100.365 76.58C100.672 75.6467 101.205 74.92 101.965 74.4C102.725 73.88 103.639 73.62 104.705 73.62C105.719 73.62 106.592 73.88 107.325 74.4C108.072 74.92 108.599 75.64 108.905 76.56C109.145 77.2 109.265 77.96 109.265 78.84C109.265 79.68 109.152 80.44 108.925 81.12C108.619 82.0667 108.092 82.8133 107.345 83.36C106.599 83.8933 105.712 84.16 104.685 84.16ZM104.685 82.16C105.179 82.16 105.599 82.02 105.945 81.74C106.305 81.46 106.565 81.0667 106.725 80.56C106.859 80.12 106.925 79.56 106.925 78.88C106.925 78.16 106.859 77.6 106.725 77.2C106.579 76.6933 106.325 76.3067 105.965 76.04C105.605 75.76 105.165 75.62 104.645 75.62C104.152 75.62 103.725 75.76 103.365 76.04C103.005 76.3067 102.745 76.6933 102.585 77.2C102.452 77.6667 102.385 78.2267 102.385 78.88C102.385 79.5333 102.452 80.0933 102.585 80.56C102.732 81.0667 102.985 81.46 103.345 81.74C103.719 82.02 104.165 82.16 104.685 82.16ZM115.359 73.62C116.199 73.62 116.939 73.7667 117.579 74.06C118.219 74.3533 118.712 74.76 119.059 75.28C119.405 75.7867 119.579 76.3667 119.579 77.02V83.76C119.579 83.8267 119.552 83.8867 119.499 83.94C119.459 83.98 119.405 84 119.339 84H117.499C117.432 84 117.372 83.98 117.319 83.94C117.279 83.8867 117.259 83.8267 117.259 83.76V83.12C117.259 83.08 117.245 83.06 117.219 83.06C117.192 83.0467 117.165 83.0533 117.139 83.08C116.485 83.8 115.539 84.16 114.299 84.16C113.299 84.16 112.472 83.9067 111.819 83.4C111.179 82.8933 110.859 82.14 110.859 81.14C110.859 80.1 111.219 79.2933 111.939 78.72C112.672 78.1333 113.699 77.84 115.019 77.84H117.159C117.225 77.84 117.259 77.8067 117.259 77.74V77.26C117.259 76.74 117.105 76.34 116.799 76.06C116.492 75.7667 116.032 75.62 115.419 75.62C114.912 75.62 114.499 75.7133 114.179 75.9C113.872 76.0733 113.679 76.32 113.599 76.64C113.559 76.8 113.465 76.8667 113.319 76.84L111.379 76.6C111.312 76.5867 111.252 76.5667 111.199 76.54C111.159 76.5 111.145 76.4533 111.159 76.4C111.265 75.5867 111.699 74.92 112.459 74.4C113.232 73.88 114.199 73.62 115.359 73.62ZM114.879 82.32C115.532 82.32 116.092 82.1467 116.559 81.8C117.025 81.4533 117.259 81.0133 117.259 80.48V79.54C117.259 79.4733 117.225 79.44 117.159 79.44H115.479C114.772 79.44 114.212 79.5733 113.799 79.84C113.399 80.1067 113.199 80.4867 113.199 80.98C113.199 81.4067 113.352 81.74 113.659 81.98C113.979 82.2067 114.385 82.32 114.879 82.32ZM122.148 84C122.081 84 122.021 83.98 121.968 83.94C121.928 83.8867 121.908 83.8267 121.908 83.76V70.24C121.908 70.1733 121.928 70.12 121.968 70.08C122.021 70.0267 122.081 70 122.148 70H123.988C124.055 70 124.108 70.0267 124.148 70.08C124.201 70.12 124.228 70.1733 124.228 70.24V83.76C124.228 83.8267 124.201 83.8867 124.148 83.94C124.108 83.98 124.055 84 123.988 84H122.148ZM130.493 84.12C129.653 84.12 128.913 84 128.273 83.76C127.646 83.5067 127.16 83.1667 126.813 82.74C126.466 82.3 126.293 81.8133 126.293 81.28V81.1C126.293 81.0333 126.313 80.98 126.353 80.94C126.406 80.8867 126.466 80.86 126.533 80.86H128.293C128.36 80.86 128.413 80.8867 128.453 80.94C128.506 80.98 128.533 81.0333 128.533 81.1V81.14C128.533 81.4733 128.713 81.7667 129.073 82.02C129.446 82.26 129.913 82.38 130.473 82.38C131.006 82.38 131.44 82.2733 131.773 82.06C132.106 81.8333 132.273 81.5533 132.273 81.22C132.273 80.9133 132.133 80.6867 131.853 80.54C131.586 80.38 131.146 80.2133 130.533 80.04L129.773 79.8C129.093 79.6 128.52 79.3867 128.053 79.16C127.586 78.9333 127.193 78.6267 126.873 78.24C126.553 77.84 126.393 77.3333 126.393 76.72C126.393 75.7867 126.76 75.0467 127.493 74.5C128.226 73.94 129.193 73.66 130.393 73.66C131.206 73.66 131.92 73.7933 132.533 74.06C133.146 74.3133 133.62 74.6733 133.953 75.14C134.286 75.5933 134.453 76.1133 134.453 76.7C134.453 76.7667 134.426 76.8267 134.373 76.88C134.333 76.92 134.28 76.94 134.213 76.94H132.513C132.446 76.94 132.386 76.92 132.333 76.88C132.293 76.8267 132.273 76.7667 132.273 76.7C132.273 76.3533 132.1 76.0667 131.753 75.84C131.42 75.6 130.96 75.48 130.373 75.48C129.853 75.48 129.426 75.58 129.093 75.78C128.773 75.9667 128.613 76.2333 128.613 76.58C128.613 76.9 128.766 77.1467 129.073 77.32C129.393 77.48 129.92 77.66 130.653 77.86L131.093 77.98C131.8 78.1933 132.393 78.4133 132.873 78.64C133.353 78.8533 133.76 79.16 134.093 79.56C134.426 79.9467 134.593 80.4533 134.593 81.08C134.593 82.0267 134.22 82.7733 133.473 83.32C132.726 83.8533 131.733 84.12 130.493 84.12Z" fill="white"/>
<g clip-path="url(#clip5_1070_148121)">
<path d="M16 136C16 131.582 19.5817 128 24 128H103C107.418 128 111 131.582 111 136V152C111 156.418 107.418 160 103 160H24C19.5817 160 16 156.418 16 152V136Z" fill="#FFF203"/>
<path d="M36.644 149.112C35.916 149.112 35.2813 148.995 34.74 148.762C34.1987 148.529 33.7787 148.202 33.48 147.782C33.1907 147.362 33.046 146.867 33.046 146.298V145.948C33.046 145.901 33.06 145.864 33.088 145.836C33.1253 145.799 33.1673 145.78 33.214 145.78H34.46C34.5067 145.78 34.544 145.799 34.572 145.836C34.6093 145.864 34.628 145.901 34.628 145.948V146.214C34.628 146.643 34.8193 147.003 35.202 147.292C35.5847 147.572 36.1073 147.712 36.77 147.712C37.3393 147.712 37.7687 147.591 38.058 147.348C38.3473 147.105 38.492 146.793 38.492 146.41C38.492 146.149 38.4127 145.929 38.254 145.752C38.0953 145.565 37.8667 145.397 37.568 145.248C37.2787 145.099 36.84 144.912 36.252 144.688C35.5893 144.445 35.0527 144.217 34.642 144.002C34.2313 143.787 33.886 143.498 33.606 143.134C33.3353 142.761 33.2 142.299 33.2 141.748C33.2 140.927 33.4987 140.278 34.096 139.802C34.6933 139.326 35.4913 139.088 36.49 139.088C37.19 139.088 37.806 139.209 38.338 139.452C38.8793 139.695 39.2993 140.035 39.598 140.474C39.8967 140.903 40.046 141.403 40.046 141.972V142.21C40.046 142.257 40.0273 142.299 39.99 142.336C39.962 142.364 39.9247 142.378 39.878 142.378H38.618C38.5713 142.378 38.5293 142.364 38.492 142.336C38.464 142.299 38.45 142.257 38.45 142.21V142.056C38.45 141.617 38.268 141.249 37.904 140.95C37.5493 140.642 37.0547 140.488 36.42 140.488C35.9067 140.488 35.5053 140.595 35.216 140.81C34.936 141.025 34.796 141.328 34.796 141.72C34.796 142 34.8707 142.229 35.02 142.406C35.1693 142.583 35.3933 142.747 35.692 142.896C35.9907 143.036 36.4527 143.218 37.078 143.442C37.7407 143.694 38.268 143.923 38.66 144.128C39.0613 144.333 39.402 144.623 39.682 144.996C39.9713 145.36 40.116 145.817 40.116 146.368C40.116 147.208 39.8033 147.875 39.178 148.37C38.562 148.865 37.7173 149.112 36.644 149.112ZM45.3915 142.994C45.3915 143.041 45.3728 143.083 45.3355 143.12C45.3075 143.148 45.2702 143.162 45.2235 143.162H43.7955C43.7488 143.162 43.7255 143.185 43.7255 143.232V146.606C43.7255 146.961 43.8002 147.217 43.9495 147.376C44.1082 147.535 44.3555 147.614 44.6915 147.614H45.1115C45.1582 147.614 45.1955 147.633 45.2235 147.67C45.2608 147.698 45.2795 147.735 45.2795 147.782V148.832C45.2795 148.935 45.2235 148.995 45.1115 149.014L44.3835 149.028C43.6462 149.028 43.0955 148.902 42.7315 148.65C42.3675 148.398 42.1808 147.922 42.1715 147.222V143.232C42.1715 143.185 42.1482 143.162 42.1015 143.162H41.3035C41.2568 143.162 41.2148 143.148 41.1775 143.12C41.1495 143.083 41.1355 143.041 41.1355 142.994V142.014C41.1355 141.967 41.1495 141.93 41.1775 141.902C41.2148 141.865 41.2568 141.846 41.3035 141.846H42.1015C42.1482 141.846 42.1715 141.823 42.1715 141.776V140.138C42.1715 140.091 42.1855 140.054 42.2135 140.026C42.2508 139.989 42.2928 139.97 42.3395 139.97H43.5575C43.6042 139.97 43.6415 139.989 43.6695 140.026C43.7068 140.054 43.7255 140.091 43.7255 140.138V141.776C43.7255 141.823 43.7488 141.846 43.7955 141.846H45.2235C45.2702 141.846 45.3075 141.865 45.3355 141.902C45.3728 141.93 45.3915 141.967 45.3915 142.014V142.994ZM49.5638 141.734C50.1518 141.734 50.6698 141.837 51.1178 142.042C51.5658 142.247 51.9112 142.532 52.1538 142.896C52.3965 143.251 52.5178 143.657 52.5178 144.114V148.832C52.5178 148.879 52.4992 148.921 52.4618 148.958C52.4338 148.986 52.3965 149 52.3498 149H51.0618C51.0152 149 50.9732 148.986 50.9358 148.958C50.9078 148.921 50.8938 148.879 50.8938 148.832V148.384C50.8938 148.356 50.8845 148.342 50.8658 148.342C50.8472 148.333 50.8285 148.337 50.8098 148.356C50.3525 148.86 49.6898 149.112 48.8218 149.112C48.1218 149.112 47.5432 148.935 47.0858 148.58C46.6378 148.225 46.4138 147.698 46.4138 146.998C46.4138 146.27 46.6658 145.705 47.1698 145.304C47.6832 144.893 48.4018 144.688 49.3258 144.688H50.8238C50.8705 144.688 50.8938 144.665 50.8938 144.618V144.282C50.8938 143.918 50.7865 143.638 50.5718 143.442C50.3572 143.237 50.0352 143.134 49.6058 143.134C49.2512 143.134 48.9618 143.199 48.7378 143.33C48.5232 143.451 48.3878 143.624 48.3318 143.848C48.3038 143.96 48.2385 144.007 48.1358 143.988L46.7778 143.82C46.7312 143.811 46.6892 143.797 46.6518 143.778C46.6238 143.75 46.6145 143.717 46.6238 143.68C46.6985 143.111 47.0018 142.644 47.5338 142.28C48.0752 141.916 48.7518 141.734 49.5638 141.734ZM49.2278 147.824C49.6852 147.824 50.0772 147.703 50.4038 147.46C50.7305 147.217 50.8938 146.909 50.8938 146.536V145.878C50.8938 145.831 50.8705 145.808 50.8238 145.808H49.6478C49.1532 145.808 48.7612 145.901 48.4718 146.088C48.1918 146.275 48.0518 146.541 48.0518 146.886C48.0518 147.185 48.1592 147.418 48.3738 147.586C48.5978 147.745 48.8825 147.824 49.2278 147.824ZM57.4803 141.762C57.7789 141.762 58.0403 141.823 58.2643 141.944C58.3389 141.981 58.3669 142.051 58.3483 142.154L58.1103 143.414C58.1009 143.526 58.0356 143.559 57.9143 143.512C57.7743 143.465 57.6109 143.442 57.4243 143.442C57.3029 143.442 57.2096 143.447 57.1443 143.456C56.7523 143.475 56.4256 143.615 56.1643 143.876C55.9029 144.128 55.7723 144.459 55.7723 144.87V148.832C55.7723 148.879 55.7536 148.921 55.7163 148.958C55.6883 148.986 55.6509 149 55.6043 149H54.3163C54.2696 149 54.2276 148.986 54.1903 148.958C54.1623 148.921 54.1483 148.879 54.1483 148.832V142.014C54.1483 141.967 54.1623 141.93 54.1903 141.902C54.2276 141.865 54.2696 141.846 54.3163 141.846H55.6043C55.6509 141.846 55.6883 141.865 55.7163 141.902C55.7536 141.93 55.7723 141.967 55.7723 142.014V142.644C55.7723 142.681 55.7769 142.705 55.7863 142.714C55.8049 142.714 55.8236 142.7 55.8423 142.672C56.2343 142.065 56.7803 141.762 57.4803 141.762ZM63.329 142.994C63.329 143.041 63.3103 143.083 63.273 143.12C63.245 143.148 63.2077 143.162 63.161 143.162H61.733C61.6863 143.162 61.663 143.185 61.663 143.232V146.606C61.663 146.961 61.7377 147.217 61.887 147.376C62.0457 147.535 62.293 147.614 62.629 147.614H63.049C63.0957 147.614 63.133 147.633 63.161 147.67C63.1983 147.698 63.217 147.735 63.217 147.782V148.832C63.217 148.935 63.161 148.995 63.049 149.014L62.321 149.028C61.5837 149.028 61.033 148.902 60.669 148.65C60.305 148.398 60.1183 147.922 60.109 147.222V143.232C60.109 143.185 60.0857 143.162 60.039 143.162H59.241C59.1943 143.162 59.1523 143.148 59.115 143.12C59.087 143.083 59.073 143.041 59.073 142.994V142.014C59.073 141.967 59.087 141.93 59.115 141.902C59.1523 141.865 59.1943 141.846 59.241 141.846H60.039C60.0857 141.846 60.109 141.823 60.109 141.776V140.138C60.109 140.091 60.123 140.054 60.151 140.026C60.1883 139.989 60.2303 139.97 60.277 139.97H61.495C61.5417 139.97 61.579 139.989 61.607 140.026C61.6443 140.054 61.663 140.091 61.663 140.138V141.776C61.663 141.823 61.6863 141.846 61.733 141.846H63.161C63.2077 141.846 63.245 141.865 63.273 141.902C63.3103 141.93 63.329 141.967 63.329 142.014V142.994ZM71.0041 141.734C71.7601 141.734 72.3621 141.958 72.8101 142.406C73.2674 142.854 73.4961 143.465 73.4961 144.24V148.832C73.4961 148.879 73.4774 148.921 73.4401 148.958C73.4121 148.986 73.3747 149 73.3281 149H72.0401C71.9934 149 71.9514 148.986 71.9141 148.958C71.8861 148.921 71.8721 148.879 71.8721 148.832V144.576C71.8721 144.147 71.7507 143.801 71.5081 143.54C71.2654 143.269 70.9434 143.134 70.5421 143.134C70.1407 143.134 69.8141 143.265 69.5621 143.526C69.3194 143.787 69.1981 144.133 69.1981 144.562V148.832C69.1981 148.879 69.1794 148.921 69.1421 148.958C69.1141 148.986 69.0767 149 69.0301 149H67.7421C67.6954 149 67.6534 148.986 67.6161 148.958C67.5881 148.921 67.5741 148.879 67.5741 148.832V139.368C67.5741 139.321 67.5881 139.284 67.6161 139.256C67.6534 139.219 67.6954 139.2 67.7421 139.2H69.0301C69.0767 139.2 69.1141 139.219 69.1421 139.256C69.1794 139.284 69.1981 139.321 69.1981 139.368V142.462C69.1981 142.49 69.2074 142.509 69.2261 142.518C69.2447 142.527 69.2587 142.518 69.2681 142.49C69.6507 141.986 70.2294 141.734 71.0041 141.734ZM81.1686 144.618C81.2059 144.851 81.2246 145.113 81.2246 145.402L81.2106 145.836C81.2106 145.948 81.1546 146.004 81.0426 146.004H76.6606C76.6139 146.004 76.5906 146.027 76.5906 146.074C76.6186 146.382 76.6606 146.592 76.7166 146.704C76.9406 147.376 77.4866 147.717 78.3546 147.726C78.9893 147.726 79.4933 147.465 79.8666 146.942C79.9039 146.886 79.9506 146.858 80.0066 146.858C80.0439 146.858 80.0766 146.872 80.1046 146.9L80.9726 147.614C81.0566 147.679 81.0706 147.754 81.0146 147.838C80.7253 148.249 80.3379 148.566 79.8526 148.79C79.3766 149.014 78.8446 149.126 78.2566 149.126C77.5286 149.126 76.9079 148.963 76.3946 148.636C75.8906 148.309 75.5219 147.852 75.2886 147.264C75.0739 146.76 74.9666 146.06 74.9666 145.164C74.9666 144.623 75.0226 144.184 75.1346 143.848C75.3213 143.195 75.6713 142.681 76.1846 142.308C76.7073 141.925 77.3326 141.734 78.0606 141.734C79.8993 141.734 80.9353 142.695 81.1686 144.618ZM78.0606 143.134C77.7153 143.134 77.4259 143.223 77.1926 143.4C76.9686 143.568 76.8099 143.806 76.7166 144.114C76.6606 144.273 76.6233 144.478 76.6046 144.73C76.5859 144.777 76.6046 144.8 76.6606 144.8H79.5026C79.5493 144.8 79.5726 144.777 79.5726 144.73C79.5539 144.497 79.5259 144.319 79.4886 144.198C79.4046 143.862 79.2366 143.601 78.9846 143.414C78.7419 143.227 78.4339 143.134 78.0606 143.134ZM86.0408 141.762C86.3395 141.762 86.6008 141.823 86.8248 141.944C86.8995 141.981 86.9275 142.051 86.9088 142.154L86.6708 143.414C86.6615 143.526 86.5962 143.559 86.4748 143.512C86.3348 143.465 86.1715 143.442 85.9848 143.442C85.8635 143.442 85.7702 143.447 85.7048 143.456C85.3128 143.475 84.9862 143.615 84.7248 143.876C84.4635 144.128 84.3328 144.459 84.3328 144.87V148.832C84.3328 148.879 84.3142 148.921 84.2768 148.958C84.2488 148.986 84.2115 149 84.1648 149H82.8768C82.8302 149 82.7882 148.986 82.7508 148.958C82.7228 148.921 82.7088 148.879 82.7088 148.832V142.014C82.7088 141.967 82.7228 141.93 82.7508 141.902C82.7882 141.865 82.8302 141.846 82.8768 141.846H84.1648C84.2115 141.846 84.2488 141.865 84.2768 141.902C84.3142 141.93 84.3328 141.967 84.3328 142.014V142.644C84.3328 142.681 84.3375 142.705 84.3468 142.714C84.3655 142.714 84.3842 142.7 84.4028 142.672C84.7948 142.065 85.3408 141.762 86.0408 141.762ZM93.8698 144.618C93.9071 144.851 93.9258 145.113 93.9258 145.402L93.9118 145.836C93.9118 145.948 93.8558 146.004 93.7438 146.004H89.3618C89.3151 146.004 89.2918 146.027 89.2918 146.074C89.3198 146.382 89.3618 146.592 89.4178 146.704C89.6418 147.376 90.1878 147.717 91.0558 147.726C91.6904 147.726 92.1944 147.465 92.5678 146.942C92.6051 146.886 92.6518 146.858 92.7078 146.858C92.7451 146.858 92.7778 146.872 92.8058 146.9L93.6738 147.614C93.7578 147.679 93.7718 147.754 93.7158 147.838C93.4264 148.249 93.0391 148.566 92.5538 148.79C92.0778 149.014 91.5458 149.126 90.9578 149.126C90.2298 149.126 89.6091 148.963 89.0958 148.636C88.5918 148.309 88.2231 147.852 87.9898 147.264C87.7751 146.76 87.6678 146.06 87.6678 145.164C87.6678 144.623 87.7238 144.184 87.8358 143.848C88.0224 143.195 88.3724 142.681 88.8858 142.308C89.4084 141.925 90.0338 141.734 90.7618 141.734C92.6004 141.734 93.6364 142.695 93.8698 144.618ZM90.7618 143.134C90.4164 143.134 90.1271 143.223 89.8938 143.4C89.6698 143.568 89.5111 143.806 89.4178 144.114C89.3618 144.273 89.3244 144.478 89.3058 144.73C89.2871 144.777 89.3058 144.8 89.3618 144.8H92.2038C92.2504 144.8 92.2738 144.777 92.2738 144.73C92.2551 144.497 92.2271 144.319 92.1898 144.198C92.1058 143.862 91.9378 143.601 91.6858 143.414C91.4431 143.227 91.1351 143.134 90.7618 143.134Z" fill="#21202D"/>
</g>
</g>
<defs>
<filter id="filter0_d_1070_148121" x="228.655" y="64.9062" width="77.6109" height="80.0113" filterUnits="userSpaceOnUse" color-interpolation-filters="sRGB">
<feFlood flood-opacity="0" result="BackgroundImageFix"/>
<feColorMatrix in="SourceAlpha" type="matrix" values="0 0 0 0 0 0 0 0 0 0 0 0 0 0 0 0 0 0 127 0" result="hardAlpha"/>
<feOffset dx="-2.4" dy="4.8"/>
<feColorMatrix type="matrix" values="0 0 0 0 0 0 0 0 0 0 0 0 0 0 0 0 0 0 0.25 0"/>
<feBlend mode="normal" in2="BackgroundImageFix" result="effect1_dropShadow_1070_148121"/>
<feBlend mode="normal" in="SourceGraphic" in2="effect1_dropShadow_1070_148121" result="shape"/>
</filter>
<filter id="filter1_d_1070_148121" x="191.434" y="86.3984" width="67.6543" height="33.8463" filterUnits="userSpaceOnUse" color-interpolation-filters="sRGB">
<feFlood flood-opacity="0" result="BackgroundImageFix"/>
<feColorMatrix in="SourceAlpha" type="matrix" values="0 0 0 0 0 0 0 0 0 0 0 0 0 0 0 0 0 0 127 0" result="hardAlpha"/>
<feOffset dx="-6" dy="16"/>
<feColorMatrix type="matrix" values="0 0 0 0 0 0 0 0 0 0 0 0 0 0 0 0 0 0 0.25 0"/>
<feBlend mode="normal" in2="BackgroundImageFix" result="effect1_dropShadow_1070_148121"/>
<feBlend mode="normal" in="SourceGraphic" in2="effect1_dropShadow_1070_148121" result="shape"/>
</filter>
<filter id="filter2_d_1070_148121" x="204.02" y="112.538" width="65.8555" height="67.2303" filterUnits="userSpaceOnUse" color-interpolation-filters="sRGB">
<feFlood flood-opacity="0" result="BackgroundImageFix"/>
<feColorMatrix in="SourceAlpha" type="matrix" values="0 0 0 0 0 0 0 0 0 0 0 0 0 0 0 0 0 0 127 0" result="hardAlpha"/>
<feOffset dx="-1.375" dy="2.75"/>
<feColorMatrix type="matrix" values="0 0 0 0 0 0 0 0 0 0 0 0 0 0 0 0 0 0 0.25 0"/>
<feBlend mode="normal" in2="BackgroundImageFix" result="effect1_dropShadow_1070_148121"/>
<feBlend mode="normal" in="SourceGraphic" in2="effect1_dropShadow_1070_148121" result="shape"/>
</filter>
<filter id="filter3_d_1070_148121" x="285.053" y="105.148" width="50.4629" height="51.8386" filterUnits="userSpaceOnUse" color-interpolation-filters="sRGB">
<feFlood flood-opacity="0" result="BackgroundImageFix"/>
<feColorMatrix in="SourceAlpha" type="matrix" values="0 0 0 0 0 0 0 0 0 0 0 0 0 0 0 0 0 0 127 0" result="hardAlpha"/>
<feOffset dx="-1.375" dy="2.75"/>
<feColorMatrix type="matrix" values="0 0 0 0 0 0 0 0 0 0 0 0 0 0 0 0 0 0 0.25 0"/>
<feBlend mode="normal" in2="BackgroundImageFix" result="effect1_dropShadow_1070_148121"/>
<feBlend mode="normal" in="SourceGraphic" in2="effect1_dropShadow_1070_148121" result="shape"/>
</filter>
<filter id="filter4_d_1070_148121" x="277.98" y="29.8112" width="66.168" height="67.3213" filterUnits="userSpaceOnUse" color-interpolation-filters="sRGB">
<feFlood flood-opacity="0" result="BackgroundImageFix"/>
<feColorMatrix in="SourceAlpha" type="matrix" values="0 0 0 0 0 0 0 0 0 0 0 0 0 0 0 0 0 0 127 0" result="hardAlpha"/>
<feOffset dx="-1.375" dy="2.75"/>
<feColorMatrix type="matrix" values="0 0 0 0 0 0 0 0 0 0 0 0 0 0 0 0 0 0 0.25 0"/>
<feBlend mode="normal" in2="BackgroundImageFix" result="effect1_dropShadow_1070_148121"/>
<feBlend mode="normal" in="SourceGraphic" in2="effect1_dropShadow_1070_148121" result="shape"/>
</filter>
<filter id="filter5_d_1070_148121" x="214.266" y="25.9062" width="56.6445" height="58.0188" filterUnits="userSpaceOnUse" color-interpolation-filters="sRGB">
<feFlood flood-opacity="0" result="BackgroundImageFix"/>
<feColorMatrix in="SourceAlpha" type="matrix" values="0 0 0 0 0 0 0 0 0 0 0 0 0 0 0 0 0 0 127 0" result="hardAlpha"/>
<feOffset dx="-1.375" dy="2.75"/>
<feColorMatrix type="matrix" values="0 0 0 0 0 0 0 0 0 0 0 0 0 0 0 0 0 0 0.25 0"/>
<feBlend mode="normal" in2="BackgroundImageFix" result="effect1_dropShadow_1070_148121"/>
<feBlend mode="normal" in="SourceGraphic" in2="effect1_dropShadow_1070_148121" result="shape"/>
</filter>
<clipPath id="clip0_1070_148121">
<path d="M0 16C0 7.16344 7.16344 0 16 0H327C335.837 0 343 7.16344 343 16V160C343 168.837 335.837 176 327 176H16C7.16345 176 0 168.837 0 160V16Z" fill="white"/>
</clipPath>
<clipPath id="clip1_1070_148121">
<rect width="52.6479" height="52.6479" fill="white" transform="translate(205.395 126.164) rotate(-15)"/>
</clipPath>
<clipPath id="clip2_1070_148121">
<rect width="40.0807" height="40.0807" fill="white" transform="translate(296.801 105.148) rotate(15)"/>
</clipPath>
<clipPath id="clip3_1070_148121">
<rect width="52.6479" height="52.6479" fill="white" transform="translate(279.355 43.5284) rotate(-15)"/>
</clipPath>
<clipPath id="clip4_1070_148121">
<rect width="45.1268" height="45.1268" fill="white" transform="translate(227.32 25.9062) rotate(15)"/>
</clipPath>
<clipPath id="clip5_1070_148121">
<path d="M16 136C16 131.582 19.5817 128 24 128H103C107.418 128 111 131.582 111 136V152C111 156.418 107.418 160 103 160H24C19.5817 160 16 156.418 16 152V136Z" fill="white"/>
</clipPath>
</defs>
</svg>
