<svg width="24" height="24" viewBox="0 0 24 24" fill="none" xmlns="http://www.w3.org/2000/svg">
<path fill-rule="evenodd" clip-rule="evenodd" d="M12.9998 4.00391H10.9998C10.4475 4.00391 9.99976 4.45162 9.99976 5.00391V19.0039C9.99976 19.5562 10.4475 20.0039 10.9998 20.0039H12.9998C13.552 20.0039 13.9998 19.5562 13.9998 19.0039V5.00391C13.9998 4.45162 13.552 4.00391 12.9998 4.00391ZM7.99976 13.0039V19.0039C7.99976 19.5562 7.55204 20.0039 6.99976 20.0039H4.99976C4.44747 20.0039 3.99976 19.5562 3.99976 19.0039V13.0039C3.99976 12.4516 4.44747 12.0039 4.99976 12.0039H6.99976C7.55204 12.0039 7.99976 12.4516 7.99976 13.0039ZM16.9998 8.00391H18.9998C19.552 8.00391 19.9998 8.45162 19.9998 9.00391V19.0039C19.9998 19.5562 19.552 20.0039 18.9998 20.0039H16.9998C16.4475 20.0039 15.9998 19.5562 15.9998 19.0039V9.00391C15.9998 8.45162 16.4475 8.00391 16.9998 8.00391Z" fill="#D5D3DF"/>
</svg>
