<svg width="16" height="16" viewBox="0 0 16 16" fill="none" xmlns="http://www.w3.org/2000/svg">
    <path fill-rule="evenodd" clip-rule="evenodd"
        d="M9 0H7C6.44772 0 6 0.447715 6 1V15C6 15.5523 6.44772 16 7 16H9C9.55229 16 10 15.5523 10 15V1C10 0.447715 9.55229 0 9 0ZM4 9V15C4 15.5523 3.55228 16 3 16H1C0.447715 16 0 15.5523 0 15V9C0 8.44771 0.447715 8 1 8H3C3.55228 8 4 8.44771 4 9ZM13 4H15C15.5523 4 16 4.44772 16 5V15C16 15.5523 15.5523 16 15 16H13C12.4477 16 12 15.5523 12 15V5C12 4.44772 12.4477 4 13 4Z"
        fill="#F1F2F3" />
</svg>
