<svg width="16" height="16" viewBox="0 0 16 16" fill="none" xmlns="http://www.w3.org/2000/svg">
<path fill-rule="evenodd" clip-rule="evenodd" d="M12.0044 4C12.0044 6.20914 10.2129 8 8.00293 8C5.79295 8 4.00142 6.20914 4.00142 4C4.00142 1.79086 5.79295 0 8.00293 0C10.2129 0 12.0044 1.79086 12.0044 4ZM10.0037 4C10.0037 2.89543 9.10792 2 8.00293 2C6.89794 2 6.00217 2.89543 6.00217 4C6.00217 5.10457 6.89794 6 8.00293 6C9.10792 6 10.0037 5.10457 10.0037 4ZM15.8959 14.5505L14.0052 10.6605C13.4883 9.62502 12.4217 8.97906 11.2642 9.00052H4.7417C3.60216 8.99828 2.55967 9.64136 2.05068 10.6605L0.109945 14.5505C-0.0460834 14.86 -0.0306536 15.2282 0.150723 15.5236C0.3321 15.819 0.653557 15.9995 1.00028 16.0005H15.0056C15.3523 15.9995 15.6738 15.819 15.8551 15.5236C16.0365 15.2282 16.0519 14.86 15.8959 14.5505ZM3.84136 11.55L2.62089 14H13.385L12.1645 11.55C11.9934 11.2105 11.6445 10.9974 11.2642 11H4.7417C4.3614 10.9974 4.01249 11.2105 3.84136 11.55Z" fill="#D5D3DF"/>
</svg>
