<svg width="18" height="20" viewBox="0 0 18 20" fill="none" xmlns="http://www.w3.org/2000/svg">
    <path fill-rule="evenodd" clip-rule="evenodd"
        d="M14 5H17C17.5523 5 18 5.44772 18 6V18C18 19.1046 17.1046 20 16 20H2C0.89543 20 0 19.1046 0 18V6C0 5.44772 0.447715 5 1 5H4C4 2.23858 6.23858 0 9 0C11.7614 0 14 2.23858 14 5ZM5.5 9C5.77614 9 6 8.77614 6 8.5V7.5C6 7.22386 5.77614 7 5.5 7H4.5C4.22386 7 4 7.22386 4 7.5V8.5C4 8.77614 4.22386 9 4.5 9H5.5ZM9 2C10.6569 2 12 3.34315 12 5H6C6 3.34315 7.34315 2 9 2ZM13.5 9C13.7761 9 14 8.77614 14 8.5V7.5C14 7.22386 13.7761 7 13.5 7H12.5C12.2239 7 12 7.22386 12 7.5V8.5C12 8.77614 12.2239 9 12.5 9H13.5Z"
        fill="#F1F2F3" />
</svg>
