<svg width="58" height="54" viewBox="0 0 58 54" fill="none" xmlns="http://www.w3.org/2000/svg">
    <path
        d="M24.1653 0.0585938C11.1577 0.0585938 0.613281 10.603 0.613281 23.6106C0.613281 29.1763 2.54837 34.2876 5.77671 38.3187L4.60779 45.4922L11.3026 43.3358C15.0009 45.7528 19.4174 47.1621 24.1653 47.1621C37.1728 47.1621 47.7173 36.6177 47.7173 23.6106C47.7173 10.603 37.1728 0.0585938 24.1653 0.0585938Z"
        fill="#FD9596" />
    <path fill-rule="evenodd" clip-rule="evenodd"
        d="M40.5391 23.611C40.5391 32.6547 33.207 39.9863 24.1628 39.9863C15.1187 39.9863 7.78662 32.6547 7.78662 23.611C7.78662 14.5665 15.1187 7.2348 24.1628 7.2348C33.207 7.2348 40.5391 14.5665 40.5391 23.611Z"
        fill="white" />
    <path fill-rule="evenodd" clip-rule="evenodd"
        d="M34.3906 23.6101C34.3906 29.2577 29.8123 33.8359 24.1648 33.8359C18.5173 33.8359 13.939 29.2577 13.939 23.6101C13.939 17.9626 18.5173 13.3843 24.1648 13.3843C29.8123 13.3843 34.3906 17.9626 34.3906 23.6101Z"
        fill="#27C5B8" />
    <path fill-rule="evenodd" clip-rule="evenodd"
        d="M29.3672 23.6108C29.3672 26.4849 27.0376 28.8145 24.1635 28.8145C21.2899 28.8145 18.9599 26.4849 18.9599 23.6108C18.9599 20.7367 21.2899 18.4071 24.1635 18.4071C27.0376 18.4071 29.3672 20.7367 29.3672 23.6108Z"
        fill="#072750" />
    <path fill-rule="evenodd" clip-rule="evenodd"
        d="M24.164 38.3477C16.0387 38.3477 9.42798 31.7369 9.42798 23.6112C9.42798 15.4855 16.0387 8.87479 24.164 8.87479C32.2892 8.87479 38.9 15.4855 38.9 23.6112C38.9 31.7369 32.2892 38.3477 24.164 38.3477ZM40.926 35.8791L39.9244 34.9766C38.9841 34.1096 39.2411 34.355 38.8848 33.9753C40.8729 31.0791 42.1795 27.3818 42.1795 23.6112C42.1795 13.6775 34.0977 5.5957 24.164 5.5957C14.2303 5.5957 6.14844 13.6775 6.14844 23.6112C6.14844 33.5449 14.2303 41.6268 24.164 41.6268C28.5919 41.6268 32.196 40.3686 35.3359 37.709C35.9594 38.3291 36.3471 38.6635 37.5665 39.7849L54.0268 53.9431L57.3864 50.0373L40.926 35.8791Z"
        fill="#0069F1" />
    <path
        d="M35.3047 37.6624C36.844 36.3325 37.5797 35.4956 38.8453 33.9395L43.037 37.6624C41.8011 39.248 41.0297 40.0789 39.5224 41.4634L35.3047 37.6624Z"
        fill="#09489A" />
</svg>
