<svg width="20" height="20" viewBox="0 0 20 20" fill="none" xmlns="http://www.w3.org/2000/svg">
    <path fill-rule="evenodd" clip-rule="evenodd"
        d="M18.2001 12.0741L19.0001 12.7354C19.3797 13.0439 19.4812 13.582 19.2401 14.008L18.0801 16.012C17.8402 16.4022 17.3666 16.5797 16.9301 16.4428L15.9301 16.0821C15.3399 15.8611 14.6804 15.9317 14.1501 16.2725C13.915 16.4352 13.6676 16.5793 13.4101 16.7034C12.8474 16.9925 12.4543 17.5313 12.3501 18.1562L12.1801 19.1582C12.1009 19.6483 11.6755 20.0063 11.1801 19.9999H8.88008C8.38469 20.0063 7.95931 19.6483 7.88008 19.1582L7.71008 18.1562C7.60585 17.5313 7.21278 16.9925 6.65008 16.7034C6.39258 16.5793 6.14516 16.4352 5.91008 16.2725C5.37979 15.9317 4.72022 15.8611 4.13008 16.0821L3.13008 16.4428C2.67584 16.6119 2.16595 16.4304 1.92008 16.012L0.760079 14.008C0.519004 13.582 0.620499 13.0439 1.00008 12.7354L1.80008 12.0741C2.28513 11.6707 2.55195 11.0617 2.52008 10.4309V10V9.56914C2.55195 8.9383 2.28513 8.32932 1.80008 7.92587L1.00008 7.26455C0.620499 6.95612 0.519004 6.41797 0.760079 5.99202L1.92008 3.98803C2.16411 3.57925 2.66163 3.39911 3.11008 3.55717L4.11008 3.91789C4.70022 4.13888 5.35979 4.06834 5.89008 3.72751C6.12516 3.56478 6.37258 3.42072 6.63008 3.29665C7.17743 2.99804 7.55457 2.46084 7.65008 1.84376L7.82008 0.84176C7.89931 0.351727 8.32469 -0.00630458 8.82008 8.41592e-05H11.1201C11.6155 -0.00630458 12.0409 0.351727 12.1201 0.84176L12.2901 1.84376C12.3943 2.46873 12.7874 3.0075 13.3501 3.29665C13.6076 3.42072 13.855 3.56478 14.0901 3.72751C14.6204 4.06834 15.2799 4.13888 15.8701 3.91789L16.8701 3.55717C17.3243 3.38806 17.8342 3.56962 18.0801 3.98803L19.2401 5.99202C19.4812 6.41797 19.3797 6.95612 19.0001 7.26455L18.2001 7.92587C17.715 8.32932 17.4482 8.9383 17.4801 9.56914V10V10.4309C17.4482 11.0617 17.715 11.6707 18.2001 12.0741ZM7 9.99817C7 11.6583 8.34315 13.0042 10 13.0042C10.7956 13.0042 11.5587 12.6875 12.1213 12.1237C12.6839 11.56 13 10.7954 13 9.99817C13 8.33801 11.6569 6.99219 10 6.99219C8.34315 6.99219 7 8.33801 7 9.99817Z"
        fill="#F1F2F3" />
</svg>
