<svg width="20" height="20" viewBox="0 0 20 20" fill="none" xmlns="http://www.w3.org/2000/svg">
<circle cx="10" cy="10" r="10" fill="#1C8C83"/>
<path d="M17.5 8.69027H14.617L13.75 6.19727L12.883 8.69027H10L12.2714 10.449L11.3635 13.0583H11.3785L13.75 11.5943L16.1215 13.0583H16.1365L15.229 10.449L17.5 8.69027Z" fill="#9CE4DE"/>
<path d="M13.375 16.375C9.85412 16.375 7 13.5209 7 10C7 6.47913 9.85412 3.625 13.375 3.625C13.582 3.625 13.786 3.63663 13.9877 3.65613C12.8316 2.92788 11.4674 2.5 10 2.5C5.85775 2.5 2.5 5.85775 2.5 10C2.5 14.1423 5.85775 17.5 10 17.5C11.4674 17.5 12.8316 17.0721 13.9877 16.3439C13.786 16.3634 13.582 16.375 13.375 16.375Z" fill="#9CE4DE"/>
<path d="M12.2715 10.4541L13.7501 11.5993L15.2291 10.4541L14.6171 8.69531H12.8831L12.2715 10.4541Z" fill="#9CE4DE"/>
</svg>
