<svg width="18" height="22" viewBox="0 0 18 22" fill="none" xmlns="http://www.w3.org/2000/svg">
<path fill-rule="evenodd" clip-rule="evenodd" d="M13.59 0.590001L17.12 4.12C17.6828 4.68207 17.9993 5.44462 18 6.24V12.09C17.9981 14.5573 16.8579 16.8857 14.91 18.4L10.83 21.58C10.4782 21.853 10.0453 22.0008 9.6 22H8.4C7.95467 22.0008 7.52181 21.853 7.17 21.58L3.09 18.4C1.14207 16.8857 0.00185209 14.5573 0 12.09V6.24C0.000700208 5.44462 0.31723 4.68207 0.88 4.12L4.41 0.590001C4.7858 0.211962 5.29696 -0.00042112 5.83 6.26926e-07H12.17C12.703 -0.00042112 13.2142 0.211962 13.59 0.590001ZM13.68 16.85C15.1497 15.7223 16.0079 13.9725 16 12.12V11H9V2H5.83L2.29 5.54C2.10526 5.72626 2.0011 5.97766 2 6.24V11H9V20H9.6L13.68 16.85Z" fill="#D5D3DF"/>
</svg>
