<svg width="121" height="120" viewBox="0 0 121 120" fill="none" xmlns="http://www.w3.org/2000/svg">
    <circle cx="60.5" cy="60.0005" r="60" fill="#6ED8CF" />
    <path
        d="M110.498 60.0034C110.498 87.6159 88.1105 110.003 60.498 110.003C32.8855 110.003 10.498 87.6159 10.498 60.0034C10.498 32.3909 32.8855 10.0034 60.498 10.0034C88.1105 10.0034 110.498 32.3909 110.498 60.0034Z"
        fill="#23B3A7" />
    <path
        d="M60.501 99.9976C82.5924 99.9976 100.501 82.089 100.501 59.9976C100.501 37.9062 82.5924 19.9976 60.501 19.9976C38.4096 19.9976 20.501 37.9062 20.501 59.9976C20.501 82.089 38.4096 99.9976 60.501 99.9976Z"
        fill="#6ED8CF" />
    <path
        d="M90.499 60.0005C90.499 76.568 77.0665 90.0005 60.499 90.0005C43.9315 90.0005 30.499 76.568 30.499 60.0005C30.499 43.433 43.9315 30.0005 60.499 30.0005C77.0665 30.0005 90.499 43.433 90.499 60.0005Z"
        fill="#23B3A7" />
    <path
        d="M60.498 80.0034C71.5437 80.0034 80.498 71.0491 80.498 60.0034C80.498 48.9577 71.5437 40.0034 60.498 40.0034C49.4524 40.0034 40.498 48.9577 40.498 60.0034C40.498 71.0491 49.4524 80.0034 60.498 80.0034Z"
        fill="#6ED8CF" />
    <path d="M104.585 8.84771L56.96 56.4727L64.031 63.5437L111.656 15.9187L104.585 8.84771Z"
        fill="#0069F1" />
    <path
        d="M92.068 35.4989L99.203 28.3639C97.088 25.7789 94.718 23.4089 92.133 21.2939L84.998 28.4264C87.6405 30.4814 90.0155 32.8539 92.068 35.4989Z"
        fill="#0455BE" />
    <path
        d="M70.501 59.9976C70.501 65.5201 66.0235 69.9976 60.501 69.9976C54.9785 69.9976 50.501 65.5201 50.501 59.9976C50.501 54.4751 54.9785 49.9976 60.501 49.9976C66.0235 49.9976 70.501 54.4751 70.501 59.9976Z"
        fill="#23B3A7" />
    <path
        d="M64.0339 63.5355L70.1264 57.443C69.2089 53.988 66.5089 51.2905 63.0564 50.373L56.9639 56.4655L64.0339 63.5355Z"
        fill="#0455BE" />
    <path
        d="M77.7126 49.8569L84.9326 42.6369C82.9851 39.9019 80.5976 37.5144 77.8626 35.5669L70.6426 42.7869C73.5576 44.5094 75.9901 46.9419 77.7126 49.8569Z"
        fill="#0455BE" />
    <path
        d="M102.82 0.000488281L87.6924 15.128L92.9949 27.503L105.37 32.8055L120.497 17.678L108.122 12.3755L102.82 0.000488281Z"
        fill="#0069F1" />
</svg>
