<svg width="24" height="24" viewBox="0 0 24 24" fill="none" xmlns="http://www.w3.org/2000/svg">
<path fill-rule="evenodd" clip-rule="evenodd" d="M11.5 5H12.5C12.7761 5 13 4.77614 13 4.5V2.5C13 2.22386 12.7761 2 12.5 2H11.5C11.2239 2 11 2.22386 11 2.5V4.5C11 4.77614 11.2239 5 11.5 5ZM7 12C7 9.23858 9.23858 7 12 7C14.7614 7 17 9.23858 17 12C17 14.7614 14.7614 17 12 17C9.23858 17 7 14.7614 7 12ZM9 12C9 13.6569 10.3431 15 12 15V9C10.3431 9 9 10.3431 9 12ZM11 19.5C11 19.2239 11.2239 19 11.5 19H12.5C12.7761 19 13 19.2239 13 19.5V21.5C13 21.7761 12.7761 22 12.5 22H11.5C11.2239 22 11 21.7761 11 21.5V19.5ZM21.5 11H19.5C19.2239 11 19 11.2239 19 11.5V12.5C19 12.7761 19.2239 13 19.5 13H21.5C21.7761 13 22 12.7761 22 12.5V11.5C22 11.2239 21.7761 11 21.5 11ZM5 11.5V12.5C5 12.7761 4.77614 13 4.5 13H2.5C2.22386 13 2 12.7761 2 12.5V11.5C2 11.2239 2.22386 11 2.5 11H4.5C4.77614 11 5 11.2239 5 11.5ZM17.3 7.39931C17.3939 7.49396 17.5217 7.5472 17.655 7.5472C17.7884 7.5472 17.9162 7.49396 18.01 7.39931L19.42 5.99931C19.5147 5.90542 19.5679 5.77762 19.5679 5.64431C19.5679 5.51099 19.5147 5.38319 19.42 5.28931L18.72 4.58931C18.6262 4.49465 18.4984 4.44141 18.365 4.44141C18.2317 4.44141 18.1039 4.49465 18.01 4.58931L16.6 5.99931C16.5054 6.09319 16.4521 6.22099 16.4521 6.35431C16.4521 6.48762 16.5054 6.61542 16.6 6.70931L17.3 7.39931ZM6.34503 16.4512C6.47835 16.4512 6.60614 16.5044 6.70003 16.5991L7.40003 17.2891C7.49468 17.383 7.54793 17.5108 7.54793 17.6441C7.54793 17.7774 7.49468 17.9052 7.40003 17.9991L5.99003 19.4091C5.89614 19.5037 5.76835 19.557 5.63503 19.557C5.50171 19.557 5.37391 19.5037 5.28003 19.4091L4.58003 18.7091C4.48537 18.6152 4.43213 18.4874 4.43213 18.3541C4.43213 18.2208 4.48537 18.093 4.58003 17.9991L5.99003 16.5991C6.08391 16.5044 6.21171 16.4512 6.34503 16.4512ZM18 16.5991C17.9062 16.5044 17.7784 16.4512 17.645 16.4512C17.5117 16.4512 17.3839 16.5044 17.29 16.5991L16.59 17.2991C16.4954 17.393 16.4421 17.5208 16.4421 17.6541C16.4421 17.7874 16.4954 17.9152 16.59 18.0091L18 19.4191C18.0939 19.5137 18.2217 19.567 18.355 19.567C18.4884 19.567 18.6162 19.5137 18.71 19.4191L19.41 18.7191C19.5047 18.6252 19.5579 18.4974 19.5579 18.3641C19.5579 18.2308 19.5047 18.103 19.41 18.0091L18 16.5991ZM6.35504 7.54744C6.22172 7.54744 6.09392 7.4942 6.00004 7.39954L4.59004 5.98954C4.49538 5.89566 4.44214 5.76786 4.44214 5.63454C4.44214 5.50122 4.49538 5.37342 4.59004 5.27954L5.29004 4.57954C5.38392 4.48488 5.51172 4.43164 5.64504 4.43164C5.77836 4.43164 5.90615 4.48488 6.00004 4.57954L7.40004 5.99954C7.59341 6.19123 7.59786 6.50241 7.41004 6.69954L6.71004 7.39954C6.61615 7.4942 6.48836 7.54744 6.35504 7.54744Z" fill="#D5D3DF"/>
</svg>
