<svg width="18" height="18" viewBox="0 0 18 18" fill="none" xmlns="http://www.w3.org/2000/svg">
<path fill-rule="evenodd" clip-rule="evenodd" d="M16 0H2C0.89543 0 0 0.89543 0 2V16C0 17.1046 0.89543 18 2 18H16C17.1046 18 18 17.1046 18 16V2C18 0.89543 17.1046 0 16 0ZM16 16H2V2H16V16ZM7.35007 12.5021C7.21748 12.5021 7.0908 12.4473 7.00007 12.3506L4.62007 9.98059C4.52541 9.8867 4.47217 9.7589 4.47217 9.62558C4.47217 9.49227 4.52541 9.36447 4.62007 9.27059L5.15007 8.74059C5.2408 8.64391 5.36748 8.58907 5.50007 8.58907C5.63265 8.58907 5.75933 8.64391 5.85007 8.74059L7.35007 10.2306L12.0901 5.49058C12.2845 5.30001 12.5956 5.30001 12.7901 5.49058L13.3201 6.02059C13.4147 6.11447 13.468 6.24227 13.468 6.37558C13.468 6.5089 13.4147 6.6367 13.3201 6.73059L7.70007 12.3506C7.60933 12.4473 7.48265 12.5021 7.35007 12.5021Z" fill="#F1F2F3"/>
</svg>
