<svg width="22" height="20" viewBox="0 0 22 20" fill="none" xmlns="http://www.w3.org/2000/svg">
<path fill-rule="evenodd" clip-rule="evenodd" d="M8.92982 6.26926e-07H16.8798C17.1446 0.00368475 17.3982 0.107268 17.5898 0.290001L17.7098 0.410001C17.8925 0.601635 17.9961 0.855234 17.9998 1.12V9.07C18.0002 9.60305 17.7879 10.1142 17.4098 10.49L10.1898 17.71C9.79978 18.0977 9.16985 18.0977 8.77982 17.71L0.289816 9.22C-0.0979075 8.82996 -0.0979075 8.20004 0.289816 7.81L7.50982 0.590001C7.88561 0.211962 8.39677 -0.00042112 8.92982 6.26926e-07ZM15.9998 9.07V2H8.92982L2.40982 8.51L9.48982 15.59L15.9998 9.07ZM13.9998 6C13.9998 4.89543 13.1044 4 11.9998 4C10.8952 4 9.99982 4.89543 9.99982 6C9.99982 7.10457 10.8952 8 11.9998 8C13.1044 8 13.9998 7.10457 13.9998 6ZM21.5898 4.29L21.7098 4.41C21.8925 4.60163 21.9961 4.85523 21.9998 5.12V9.9C22.0009 10.9858 21.5605 12.0254 20.7798 12.78L13.7798 19.78C13.487 20.0725 13.0126 20.0725 12.7198 19.78L11.8298 18.89L19.4098 11.32C19.7879 10.9442 20.0002 10.433 19.9998 9.9V4H20.8798C21.1446 4.00368 21.3982 4.10727 21.5898 4.29Z" fill="#D5D3DF"/>
</svg>
