<svg width="22" height="22" viewBox="0 0 22 22" fill="none" xmlns="http://www.w3.org/2000/svg">
<path fill-rule="evenodd" clip-rule="evenodd" d="M22 3.07V7.18C21.9927 7.69286 21.7886 8.18332 21.43 8.55L19.71 10.31C19.3261 10.7201 18.8724 11.0587 18.37 11.31L17.6 11.7C17.2125 11.8975 16.8975 12.2125 16.7 12.6L16.28 13.45C16.1089 13.7895 15.7602 14.0026 15.38 14H15C14.4477 14 14 13.5523 14 13V12.65C13.9997 12.218 14.0707 11.7889 14.21 11.38L15 9H11.5C10.6716 9 10 8.32843 10 7.5V4.94C10.007 4.31941 10.1612 3.70934 10.45 3.16L11.45 1.11C11.7877 0.430342 12.4811 0.000402725 13.24 0H18.09C18.683 0.00405458 19.2624 0.177537 19.76 0.5L21.11 1.41C21.665 1.78026 21.9988 2.40286 22 3.07ZM2.29 11.6603L0.570002 13.4203C0.204175 13.7944 -0.000456406 14.297 7.64381e-07 14.8203V18.9303C0.00123674 19.5974 0.335039 20.22 0.890002 20.5903L2.24 21.5003C2.73762 21.8227 3.31705 21.9962 3.91 22.0003H8.76C9.52973 22.0114 10.2375 21.5797 10.58 20.8903L11.58 18.8403C11.8584 18.2883 12.0023 17.6784 12 17.0603V14.5003C12 13.6718 11.3284 13.0003 10.5 13.0003H7L7.79 10.6203C7.92933 10.2113 8.00028 9.78225 8 9.35026V9.00026C8 8.44797 7.55229 8.00026 7 8.00026H6.62C6.24641 7.99181 5.89928 8.19238 5.72 8.52026L5.3 9.37026C5.10253 9.75774 4.78748 10.0728 4.4 10.2703L3.63 10.6603C3.12761 10.9116 2.67388 11.2502 2.29 11.6603Z" fill="#F1F2F3"/>
</svg>
