<svg width="16" height="16" viewBox="0 0 16 16" fill="none" xmlns="http://www.w3.org/2000/svg">
<path fill-rule="evenodd" clip-rule="evenodd" d="M9 0.00390625H7C6.44772 0.00390625 6 0.451621 6 1.00391V15.0039C6 15.5562 6.44772 16.0039 7 16.0039H9C9.55229 16.0039 10 15.5562 10 15.0039V1.00391C10 0.451621 9.55229 0.00390625 9 0.00390625ZM4 9.00391V15.0039C4 15.5562 3.55228 16.0039 3 16.0039H1C0.447715 16.0039 0 15.5562 0 15.0039V9.00391C0 8.45162 0.447715 8.00391 1 8.00391H3C3.55228 8.00391 4 8.45162 4 9.00391ZM13 4.00391H15C15.5523 4.00391 16 4.45162 16 5.00391V15.0039C16 15.5562 15.5523 16.0039 15 16.0039H13C12.4477 16.0039 12 15.5562 12 15.0039V5.00391C12 4.45162 12.4477 4.00391 13 4.00391Z" fill="#D5D3DF"/>
</svg>
