<svg width="20" height="20" viewBox="0 0 20 20" fill="none" xmlns="http://www.w3.org/2000/svg">
<path fill-rule="evenodd" clip-rule="evenodd" d="M19.0871 16.3582L10.6768 1.97484C10.5628 1.78418 10.3572 1.66718 10.135 1.6665H9.88493C9.66275 1.66718 9.45715 1.78418 9.34314 1.97484L0.916144 16.3582C0.8079 16.5554 0.8079 16.7943 0.916144 16.9915L1.03284 17.1832C1.14086 17.3809 1.34932 17.5027 1.57463 17.4998H18.4286C18.6539 17.5027 18.8624 17.3809 18.9704 17.1832L19.0871 16.9915C19.1954 16.7943 19.1954 16.5554 19.0871 16.3582ZM10.8354 13.7498C10.8354 13.98 10.6488 14.1665 10.4186 14.1665H9.58506C9.35489 14.1665 9.16829 13.98 9.16829 13.7498V12.9165C9.16829 12.6864 9.35489 12.4998 9.58506 12.4998H10.4186C10.6488 12.4998 10.8354 12.6864 10.8354 12.9165V13.7498ZM10.4437 10.8332C10.5496 10.8339 10.6393 10.755 10.652 10.6498L10.9854 7.96652C10.9998 7.84764 10.9623 7.72832 10.8826 7.639C10.8028 7.54968 10.6885 7.49898 10.5687 7.49985H9.43508C9.31531 7.49898 9.20096 7.54968 9.12119 7.639C9.04142 7.72832 9.00394 7.84764 9.01831 7.96652L9.35173 10.6498C9.36444 10.755 9.45412 10.8339 9.56011 10.8332H10.4437Z" fill="#FFF203"/>
</svg>
