<svg width="25" height="24" viewBox="0 0 25 24" fill="none" xmlns="http://www.w3.org/2000/svg">
<path fill-rule="evenodd" clip-rule="evenodd" d="M23.4053 19.63L13.3129 2.37C13.1761 2.14121 12.9293 2.00081 12.6627 2H12.3627C12.096 2.00081 11.8493 2.14121 11.7125 2.37L1.6001 19.63C1.47021 19.8667 1.47021 20.1533 1.6001 20.39L1.74014 20.62C1.86976 20.8573 2.11991 21.0035 2.39029 21H22.6151C22.8855 21.0035 23.1356 20.8573 23.2652 20.62L23.4053 20.39C23.5352 20.1533 23.5352 19.8667 23.4053 19.63ZM13.5029 16.5C13.5029 16.7761 13.279 17 13.0028 17H12.0026C11.7264 17 11.5024 16.7761 11.5024 16.5V15.5C11.5024 15.2239 11.7264 15 12.0026 15H13.0028C13.279 15 13.5029 15.2239 13.5029 15.5V16.5ZM13.0328 13C13.16 13.0009 13.2676 12.9062 13.2829 12.78L13.683 9.56C13.7002 9.41735 13.6552 9.27417 13.5595 9.16698C13.4638 9.05979 13.3266 8.99896 13.1828 9H11.8225C11.6788 8.99896 11.5416 9.05979 11.4459 9.16698C11.3501 9.27417 11.3052 9.41735 11.3224 9.56L11.7225 12.78C11.7378 12.9062 11.8454 13.0009 11.9726 13H13.0328Z" fill="#FFF203"/>
<path d="M13.0031 15C13.2792 15.0002 13.5031 15.224 13.5031 15.5V16.5C13.5031 16.7761 13.2792 16.9999 13.0031 17H12.0021C11.7261 16.9998 11.5021 16.776 11.5021 16.5V15.5C11.5021 15.224 11.7261 15.0003 12.0021 15H13.0031ZM13.1828 9.00001C13.3265 8.99897 13.464 9.05982 13.5597 9.16701C13.6553 9.27407 13.6999 9.41711 13.6828 9.55958L13.2834 12.7803C13.268 12.9064 13.1595 13.0009 13.0324 13H11.9728C11.8457 13.0009 11.7382 12.9064 11.7228 12.7803L11.3224 9.55958C11.3053 9.41716 11.35 9.27406 11.4455 9.16701C11.5412 9.05985 11.6787 8.99901 11.8224 9.00001H13.1828Z" fill="#21202D"/>
</svg>