<svg width="16" height="16" viewBox="0 0 16 16" fill="none" xmlns="http://www.w3.org/2000/svg">
<path fill-rule="evenodd" clip-rule="evenodd" d="M1.66663 6.66669H5.99996C6.12605 6.6667 6.24749 6.61908 6.33996 6.53335L6.51996 6.35335C6.61375 6.25968 6.66651 6.13258 6.66663 6.00002V1.66669C6.66663 1.48259 6.51739 1.33335 6.33329 1.33335H5.66663C5.48253 1.33335 5.33329 1.48259 5.33329 1.66669V4.39335L1.60663 0.666687C1.60663 0.666687 0.722385 1.60724 0.669132 1.61001L0.666626 1.6075C0.666626 1.60928 0.667478 1.6101 0.669132 1.61001L4.38663 5.33335H1.66663C1.48253 5.33335 1.33329 5.48259 1.33329 5.66669V6.33335C1.33329 6.51745 1.48253 6.66669 1.66663 6.66669ZM7.99996 14.6667C4.31807 14.6667 1.3333 11.6819 1.33329 8.00004H2.66646C2.66646 10.9456 5.05428 13.3334 7.9998 13.3334C9.41428 13.3334 10.7708 12.7715 11.771 11.7713C12.7712 10.7711 13.3331 9.41453 13.3331 8.00004C13.3331 5.05452 10.9453 2.66671 7.9998 2.66671L7.9998 1.33335H7.99996C9.76807 1.33335 11.4638 2.03573 12.714 3.28598C13.9642 4.53622 14.6666 6.23191 14.6666 8.00002C14.6666 11.6819 11.6819 14.6667 7.99996 14.6667Z" fill="#23B3A7"/>
</svg>
