<svg width="32" height="32" viewBox="0 0 32 32" fill="none" xmlns="http://www.w3.org/2000/svg">
<path d="M14.6667 28.9688C14.6667 24.0154 18.5833 20.0001 23.4147 20.0001H26V21.0314C26 25.9848 22.0833 30.0001 17.252 30.0001H14.6667V28.9688ZM17.3333 30.0001H14.748C9.91667 30.0001 6 25.9848 6 21.0314V20.0001H8.58533C13.4167 20.0001 17.3333 24.0154 17.3333 28.9688V30.0001Z" fill="#23B3A7"/>
<path d="M17.3334 9.33336H14.6667V30.0001H17.3334V9.33336Z" fill="#23B3A7"/>
<path d="M16.0001 24.2082C15.6227 23.5922 15.1747 23.0262 14.6667 22.5222V30.0002H17.3334V22.5222C16.8254 23.0256 16.3774 23.5916 16.0001 24.2082Z" fill="#156C65"/>
<path d="M15.9993 18.6661C20.4373 18.6661 23.9987 15.1041 23.9987 10.6667C24.058 6.22869 20.4373 2.66667 15.9993 2.66667C11.62 2.66667 8 6.22869 8 10.666C8 15.1041 11.62 18.6661 15.9993 18.6661Z" fill="#F75E61"/>
<path d="M17.2945 6.39024C17.7515 6.39024 18.1685 6.4985 18.5454 6.71501C18.9223 6.9235 19.219 7.21218 19.4355 7.58104C19.652 7.94991 19.7602 8.36288 19.7602 8.81996V9.50557C19.7602 10.099 19.6119 10.5961 19.3152 10.9971C19.0185 11.39 18.5815 11.6747 18.0041 11.8511L18.5454 12.5608L20.1812 14.9424H18.5574L16.5487 12.0315H14.7084V14.9424H13.3372V6.39024H17.2945ZM17.1261 10.7445C17.527 10.7445 17.8357 10.6322 18.0522 10.4077C18.2687 10.1751 18.377 9.85038 18.377 9.4334V9.00038C18.377 8.5834 18.2687 8.26265 18.0522 8.03812C17.8357 7.81359 17.523 7.70133 17.114 7.70133H14.7084V10.7445H17.1261Z" fill="#FEA6A7"/>
</svg>
