<svg width="32" height="32" viewBox="0 0 32 32" fill="none" xmlns="http://www.w3.org/2000/svg">
<path d="M26.7419 19.1734C26.2413 18.1888 25.0379 17.7961 24.0526 18.2961L18.0753 21.3334H10.6873V23.3334H22.9686L25.8639 21.8621C26.8493 21.3621 27.2419 20.1581 26.7419 19.1734Z" fill="#F75E61"/>
<path d="M6.66658 16.0001H1.33325V28.6668H6.66658V16.0001Z" fill="#0069F1"/>
<path d="M6.66675 17.3334H4.66675V27.3334H6.66675V17.3334Z" fill="#09489A"/>
<path d="M31.0421 19.3381L31.0367 19.3287C30.5121 18.3894 29.3254 18.0534 28.3861 18.5781L19.8727 23.3334H12.0001V21.3334H18.6667C19.7714 21.3334 20.6667 20.4381 20.6667 19.3334C20.6667 18.2287 19.7714 17.3334 18.6667 17.3334H6.66675V27.3334H20.0001C20.0027 27.3334 20.0054 27.3334 20.0081 27.3334C20.3901 27.3714 20.7867 27.2968 21.1474 27.0954L30.2907 21.9888C31.2301 21.4641 31.5661 20.2774 31.0421 19.3381Z" fill="#FEA6A7"/>
<path d="M16 14.6667C19.3133 14.6667 22 11.9801 22 8.66671C22 5.35336 19.3133 2.66669 16 2.66669C12.6867 2.66669 10 5.35336 10 8.66671C10 11.9807 12.686 14.6667 16 14.6667Z" fill="#23B3A7"/>
<path d="M16.6667 10.6667V5.33334H15.3333V6.66668H14V8.00002H15.3333V10.6667H14V12H18V10.6667H16.6667Z" fill="#9CE4DE"/>
<path d="M16.6666 6.66669H15.3333V8.00003H16.6666V6.66669Z" fill="#9CE4DE"/>
</svg>
