<svg width="32" height="32" viewBox="0 0 32 32" fill="none" xmlns="http://www.w3.org/2000/svg">
<path d="M29.3334 16.0001C29.3334 23.3634 23.3634 29.3335 16.0001 29.3335C8.63675 29.3335 2.66675 23.3634 2.66675 16.0001C2.66675 8.63671 8.63675 2.66669 16.0001 2.66669C23.3634 2.66669 29.3334 8.63671 29.3334 16.0001Z" fill="#0069F1"/>
<path d="M16.6667 22.0001H14V24.6668H16.6667V22.0001Z" fill="#9CE4DE"/>
<path d="M16.6667 15.3334H14V20.0001H16.6667V15.3334Z" fill="#9CE4DE"/>
<path d="M16.6667 18.0001H14V15.3334H16.6667C18.1373 15.3334 19.3333 14.1374 19.3333 12.6667C19.3333 11.1961 18.1373 10.0001 16.6667 10.0001H14V7.33337H16.6667C19.6073 7.33337 22 9.72605 22 12.6667C22 15.6074 19.6073 18.0001 16.6667 18.0001Z" fill="#9CE4DE"/>
<path d="M16.6667 15.3334H14V18.0001H16.6667V15.3334Z" fill="#52D1C6"/>
</svg>
