<svg width="32" height="32" viewBox="0 0 32 32" fill="none" xmlns="http://www.w3.org/2000/svg">
<path d="M1.99992 5.33334H15.3333V29.3333H1.99992V5.33334Z" fill="#27C5B8"/>
<path d="M4.66658 24H7.33325V26.6667H4.66658V24Z" fill="#9CE4DE"/>
<path d="M9.99984 24H12.6665V26.6667H9.99984V24Z" fill="#9CE4DE"/>
<path d="M4.66658 18.6667H7.33325V21.3334H4.66658V18.6667Z" fill="#9CE4DE"/>
<path d="M9.99984 18.6667H12.6665V21.3334H9.99984V18.6667Z" fill="#9CE4DE"/>
<path d="M4.66658 13.3333H7.33325V16H4.66658V13.3333Z" fill="#9CE4DE"/>
<path d="M9.99984 13.3333H12.6665V16H9.99984V13.3333Z" fill="#9CE4DE"/>
<path d="M4.66658 8H7.33325V10.6667H4.66658V8Z" fill="#9CE4DE"/>
<path d="M9.99984 8H12.6665V10.6667H9.99984V8Z" fill="#9CE4DE"/>
<path d="M15.3507 29.3333H28.6667V19.02L22.0087 14L15.3507 19.0087V29.3333Z" fill="#0069F1"/>
<path d="M29.7073 22.6667L31.0833 20.8587L22.0086 14L12.9333 20.8427L14.2893 22.6667L22.0006 16.8307L29.7073 22.6667Z" fill="#0069F1"/>
<path d="M28.6667 21.8787L22.0007 16.8307L15.3507 21.864V19.0207L22.0087 14L28.6667 19.032V21.8787Z" fill="#09489A"/>
</svg>
