<svg width="16" height="16" viewBox="0 0 16 16" fill="none" xmlns="http://www.w3.org/2000/svg">
<path fill-rule="evenodd" clip-rule="evenodd" d="M5.81324 8.10012L5.94657 8.23359C6.00967 8.29625 6.04517 8.38153 6.04517 8.4705C6.04517 8.55947 6.00967 8.64476 5.94657 8.70741L3.59324 11.0698C3.46136 11.1978 3.25178 11.1978 3.1199 11.0698L0.766568 8.70741C0.703464 8.64476 0.667969 8.55947 0.667969 8.4705C0.667969 8.38153 0.703464 8.29625 0.766568 8.23359L0.899902 8.10012C0.962619 8.03495 1.04951 7.99871 1.1399 8.00002H2.66657C2.66852 6.09363 3.68582 4.33293 5.3356 3.38058C6.98538 2.42823 9.01727 2.42875 10.6666 3.38195C10.7589 3.43349 10.8228 3.52441 10.8399 3.62887C10.8541 3.73175 10.8196 3.83536 10.7466 3.90916L10.2532 4.403C10.1487 4.50574 9.99025 4.52994 9.8599 4.46306C9.28861 4.15428 8.64915 3.99368 7.9999 3.99592C5.79076 3.99592 3.9999 5.78861 3.9999 8.00002H5.57324C5.66363 7.99871 5.75052 8.03495 5.81324 8.10012ZM15.0997 7.90034L15.233 7.76687C15.2961 7.70421 15.3316 7.61893 15.3316 7.52996C15.3316 7.44099 15.2961 7.3557 15.233 7.29305L12.8797 4.93063C12.7478 4.80264 12.5383 4.80264 12.4064 4.93063L10.053 7.29305C9.98994 7.3557 9.95444 7.44099 9.95444 7.52996C9.95444 7.61893 9.98994 7.70421 10.053 7.76687L10.1864 7.90034C10.2491 7.96551 10.336 8.00175 10.4264 8.00044H11.9997C11.9997 9.06239 11.5783 10.0809 10.8281 10.8318C10.078 11.5827 9.06058 12.0045 7.99971 12.0045C7.35366 12.0047 6.71738 11.8466 6.14638 11.5441C6.0164 11.475 5.85653 11.4994 5.75304 11.6041L5.26638 12.0913C5.19339 12.1651 5.15889 12.2687 5.17304 12.3716C5.18714 12.4736 5.24576 12.564 5.33304 12.6185C6.98234 13.5717 9.01423 13.5722 10.664 12.6199C12.3138 11.6675 13.3311 9.90683 13.333 8.00044H14.8597C14.9501 8.00175 15.037 7.96551 15.0997 7.90034Z" fill="#E6C700"/>
</svg>
