<svg width="32" height="32" viewBox="0 0 32 32" fill="none" xmlns="http://www.w3.org/2000/svg">
<path d="M17.3334 2.66669H14.6667V24.6668H17.3334V2.66669Z" fill="#27C5B8"/>
<path d="M30 11.3334C28.1293 7.47003 22.57 4.66669 16 4.66669C9.43 4.66669 3.87067 7.47003 2 11.3334H30Z" fill="#FEA6A7"/>
<path d="M9.33325 11.3334C9.33325 11.3334 10.9999 4.66669 15.9999 4.66669C20.9999 4.66669 22.6666 11.3334 22.6666 11.3334H9.33325Z" fill="#F75E61"/>
<path d="M16.0001 4.66669C15.5261 4.66669 15.0821 4.72735 14.6667 4.83535V11.3334H17.3334V4.83535C16.9181 4.72735 16.4741 4.66669 16.0001 4.66669Z" fill="#DB3041"/>
<path d="M19.9999 24.6668L24.9013 20.9428L21.2973 16.1667L15.3333 20.6668V24.6668H19.9999Z" fill="#09489A"/>
<path d="M15.3334 20.6667H4.66675V24.6668H15.3334V20.6667Z" fill="#0069F1"/>
<path d="M23.3333 16.0001C23.3333 17.4961 24.5039 18.6667 25.9999 18.6667C27.4959 18.6667 28.6666 17.4961 28.6666 16.0001C28.6666 14.504 27.4959 13.3334 25.9999 13.3334C24.5039 13.3334 23.3333 14.504 23.3333 16.0001Z" fill="#FEA6A7"/>
<path d="M20.4466 26.6668H3.33325V24.0001H19.5533L28.3632 17.3521L29.9699 19.4814L20.4466 26.6668Z" fill="#27C5B8"/>
<path d="M7.99992 25.3334H5.33325V29.3335H7.99992V25.3334Z" fill="#27C5B8"/>
<path d="M20.6667 25.3334H18V29.3335H20.6667V25.3334Z" fill="#27C5B8"/>
<path d="M27.3334 29.3334H24.6667V21.8121L27.3334 19.8V29.3334Z" fill="#27C5B8"/>
<path d="M7.99992 25.3334H5.33325V26.6668H7.99992V25.3334Z" fill="#156C65"/>
<path d="M20.6667 25.3334H18V26.6668H20.6667V25.3334Z" fill="#156C65"/>
<path d="M24.6667 23.4827L27.3334 21.4707V19.8L24.6667 21.8121V23.4827Z" fill="#156C65"/>
</svg>
