<svg width="20" height="20" viewBox="0 0 20 20" fill="none" xmlns="http://www.w3.org/2000/svg">
<path d="M10.0927 10.37C10.6552 10.37 11.1113 9.91404 11.1113 9.35153C11.1113 8.78901 10.6552 8.33301 10.0927 8.33301C9.53022 8.33301 9.07422 8.78901 9.07422 9.35153C9.07422 9.91404 9.53022 10.37 10.0927 10.37Z" stroke="#10534D" stroke-width="0.625" stroke-linecap="round" stroke-linejoin="round"/>
<path d="M9.07411 9.35156H6.01855M11.1111 9.35156H14.1667" stroke="#10534D" stroke-width="0.763889" stroke-linecap="round" stroke-linejoin="round"/>
<path d="M12.6387 17.5H7.54614" stroke="#10534D" stroke-width="0.625" stroke-linecap="round" stroke-linejoin="round"/>
<path d="M10.0925 10.3706V17.5002" stroke="#10534D" stroke-width="0.625" stroke-linecap="round" stroke-linejoin="round"/>
<path d="M15.1852 13.935C15.1852 14.7787 14.5012 15.4627 13.6574 15.4627C12.8136 15.4627 12.1296 14.7787 12.1296 13.935M15.1852 13.935L13.912 10.8794H13.4028L12.1296 13.935M15.1852 13.935H12.1296" stroke="#10534D" stroke-width="0.625" stroke-linecap="round" stroke-linejoin="round"/>
<path d="M8.05556 13.935C8.05556 14.7787 7.37154 15.4627 6.52778 15.4627C5.68401 15.4627 5 14.7787 5 13.935M8.05556 13.935L6.78241 10.8794H6.27315L5 13.935M8.05556 13.935H5" stroke="#10534D" stroke-width="0.625" stroke-linecap="round" stroke-linejoin="round"/>
<path d="M12.4621 4.36757L12.7065 4.86045C12.7398 4.92906 12.8287 4.99487 12.9037 5.00747L13.3467 5.08168C13.63 5.12929 13.6967 5.33652 13.4925 5.54095L13.1481 5.8882C13.0898 5.94701 13.0579 6.06042 13.0759 6.14164L13.1745 6.57151C13.2523 6.91176 13.0731 7.04338 12.7746 6.86555L12.3593 6.61771C12.2843 6.57291 12.1607 6.57291 12.0843 6.61771L11.6691 6.86555C11.3719 7.04338 11.1914 6.91035 11.2692 6.57151L11.3678 6.14164C11.3858 6.06042 11.3539 5.94701 11.2956 5.8882L10.9511 5.54095C10.7484 5.33652 10.8137 5.12929 11.097 5.08168L11.54 5.00747C11.6136 4.99487 11.7025 4.92906 11.7358 4.86045L11.9802 4.36757C12.1135 4.10013 12.3302 4.10013 12.4621 4.36757Z" stroke="#10534D" stroke-width="0.625" stroke-linecap="round" stroke-linejoin="round"/>
<path d="M11.1495 2.45661C10.0132 2.23108 8.86235 2.32254 7.95013 2.71086C7.03791 3.09918 6.43906 3.75256 6.2853 4.52725C6.13155 5.30195 6.43549 6.1345 7.13026 6.84176C7.82504 7.54903 8.85373 8.07306 9.99005 8.29859" stroke="#10534D" stroke-width="0.625" stroke-linecap="round" stroke-linejoin="round"/>
<path d="M11.324 2.50408C10.8401 2.40803 10.3774 2.74991 9.86673 3.08961C9.06658 3.62189 8.5107 4.27274 8.35945 5.03482C8.2082 5.7969 8.56786 6.43428 9.06021 7.15325C9.40674 7.65929 9.69948 8.15489 10.1834 8.25093" stroke="#10534D" stroke-width="0.625" stroke-linecap="round" stroke-linejoin="round"/>
</svg>
