<svg width="12" height="12" viewBox="0 0 12 12" fill="none" xmlns="http://www.w3.org/2000/svg">
<path d="M8 7C8 7.4142 8.3358 7.75 8.75 7.75C9.1642 7.75 9.5 7.4142 9.5 7C9.5 6.5858 9.1642 6.25 8.75 6.25C8.3358 6.25 8 6.5858 8 7Z" stroke="#042E67" stroke-width="0.75"/>
<path d="M2 10C1.44771 10 1 9.5523 1 9C1 8.4477 1.44771 8 2 8C2.55229 8 3 8.66665 3 9C3 9.33335 2.55229 10 2 10Z" stroke="#042E67" stroke-width="0.75"/>
<path d="M4 10C3.44771 10 3 9.25 3 9C3 8.75 3.44771 8 4 8C4.55229 8 5 8.4477 5 9C5 9.5523 4.55229 10 4 10Z" stroke="#042E67" stroke-width="0.75"/>
<path d="M6.5 10H8C9.4142 10 10.1213 10 10.5606 9.56065C11 9.1213 11 8.4142 11 7V6.5C11 5.0858 11 4.37868 10.5606 3.93934C10.24 3.61869 9.7767 3.53207 9 3.50866M9 3.50866C8.7125 3.5 8.38205 3.5 8 3.5H5M9 3.50866C9 3.03459 9 2.79755 8.92125 2.61104C8.81995 2.37105 8.62895 2.18007 8.38895 2.07874C8.20245 2 7.9654 2 7.49135 2H5C3.11438 2 2.17158 2 1.58579 2.58578C1 3.17157 1 3.61438 1 5.5V6.5" stroke="#042E67" stroke-width="0.75" stroke-linecap="round"/>
</svg>
