<svg width="121" height="120" viewBox="0 0 121 120" fill="none" xmlns="http://www.w3.org/2000/svg">
<circle cx="60.5" cy="60" r="60" fill="#6ED8CF"/>
<path d="M110.498 60.0029C110.498 87.6154 88.1105 110.003 60.498 110.003C32.8855 110.003 10.498 87.6154 10.498 60.0029C10.498 32.3904 32.8855 10.0029 60.498 10.0029C88.1105 10.0029 110.498 32.3904 110.498 60.0029Z" fill="#23B3A7"/>
<path d="M60.5 99.9976C82.5914 99.9976 100.5 82.089 100.5 59.9976C100.5 37.9062 82.5914 19.9976 60.5 19.9976C38.4086 19.9976 20.5 37.9062 20.5 59.9976C20.5 82.089 38.4086 99.9976 60.5 99.9976Z" fill="#6ED8CF"/>
<path d="M90.5 60C90.5 76.5675 77.0675 90 60.5 90C43.9325 90 30.5 76.5675 30.5 60C30.5 43.4325 43.9325 30 60.5 30C77.0675 30 90.5 43.4325 90.5 60Z" fill="#23B3A7"/>
<path d="M60.498 80.0029C71.5437 80.0029 80.498 71.0486 80.498 60.0029C80.498 48.9572 71.5437 40.0029 60.498 40.0029C49.4524 40.0029 40.498 48.9572 40.498 60.0029C40.498 71.0486 49.4524 80.0029 60.498 80.0029Z" fill="#6ED8CF"/>
<path d="M70.5 59.9976C70.5 65.5201 66.0225 69.9976 60.5 69.9976C54.9775 69.9976 50.5 65.5201 50.5 59.9976C50.5 54.4751 54.9775 49.9976 60.5 49.9976C66.0225 49.9976 70.5 54.4751 70.5 59.9976Z" fill="#23B3A7"/>
</svg>
