<svg width="16" height="16" viewBox="0 0 16 16" fill="none" xmlns="http://www.w3.org/2000/svg">
<path fill-rule="evenodd" clip-rule="evenodd" d="M12.5692 8.23936L14.5692 6.23936C14.6996 6.10485 14.6966 5.8902 14.5625 5.75936L12.5625 3.75936C12.4664 3.66516 12.3231 3.63798 12.1992 3.69047C12.0753 3.74295 11.9951 3.86479 11.9959 3.99936V5.3327H6.99585C6.81175 5.3327 6.66252 5.48193 6.66252 5.66603V6.3327C6.66252 6.51679 6.81175 6.66603 6.99585 6.66603H11.9959V7.99936C11.9922 8.13689 12.0735 8.26252 12.2004 8.31564C12.3273 8.36876 12.4738 8.33846 12.5692 8.23936ZM3.99581 9.3327H8.99581C9.17991 9.3327 9.32914 9.48193 9.32914 9.66603V10.3327C9.32914 10.5168 9.17991 10.666 8.99581 10.666H3.99581V11.9994C3.99394 12.1327 3.91275 12.2521 3.78943 12.3029C3.6661 12.3537 3.52438 12.3261 3.42914 12.2327L1.42914 10.2327C1.30129 10.1008 1.30129 9.89124 1.42914 9.75936L3.42914 7.75936C3.52524 7.66516 3.66856 7.63798 3.79248 7.69047C3.9164 7.74295 3.9966 7.86479 3.99581 7.99936V9.3327Z" fill="#75728E"/>
</svg>
