<svg width="24" height="24" viewBox="0 0 24 24" fill="none" xmlns="http://www.w3.org/2000/svg">
<g id="ico / 24 / user / user_big_outlined">
<path id="Icon color" fill-rule="evenodd" clip-rule="evenodd" d="M17.0045 7C17.0045 9.76142 14.7653 12 12.003 12C9.24077 12 7.00151 9.76142 7.00151 7C7.00151 4.23858 9.24077 2 12.003 2C14.7653 2 17.0045 4.23858 17.0045 7ZM15.0039 7C15.0039 5.34315 13.6604 4 12.003 4C10.3457 4 9.00212 5.34315 9.00212 7C9.00212 8.65685 10.3457 10 12.003 10C13.6604 10 15.0039 8.65685 15.0039 7ZM21.896 20.55L20.0054 16.76C19.1575 15.0683 17.4269 14.0001 15.5341 14H8.47196C6.57917 14.0001 4.84857 15.0683 4.0006 16.76L2.11003 20.55C1.95402 20.8595 1.96944 21.2277 2.15081 21.5231C2.33217 21.8185 2.6536 21.999 3.0003 22H21.0057C21.3524 21.999 21.6739 21.8185 21.8552 21.5231C22.0366 21.2277 22.052 20.8595 21.896 20.55ZM5.79115 17.66L4.62079 20H19.3853L18.2149 17.66C17.7076 16.6441 16.6699 16.0016 15.5341 16H8.47196C7.33611 16.0016 6.29849 16.6441 5.79115 17.66Z" fill="black"/>
</g>
</svg>
