<svg width="53" height="52" viewBox="0 0 53 52" fill="none" xmlns="http://www.w3.org/2000/svg">
    <path
        d="M33.8505 15.1982C29.9327 19.1413 27.4014 24.11 26.5 29.5046C25.5986 24.11 23.0673 19.1413 19.1495 15.1982C14.171 10.1876 7.54813 7.42847 0.5 7.42847V20.1421C8.07484 20.1421 14.2373 28.4578 14.2373 36.0815H38.7623C38.7623 28.4578 44.9252 20.1421 52.5 20.1421V7.42847C45.4523 7.42847 38.829 10.1876 33.8505 15.1982Z"
        fill="#FFF203" />
    <path
        d="M0.506836 40.8901H2.34291L4.77608 47.0171L5.8211 49.9311H5.46286L6.50772 47.0171L8.91106 40.8901H10.762L6.55248 51.515H4.73133L0.506836 40.8901Z"
        fill="#FFF203" />
    <path
        d="M14.8454 49.9309C15.1688 49.6619 15.3306 49.2683 15.3306 48.7503V48.0928H13.181C12.743 48.0928 12.3997 48.1952 12.1511 48.3991C11.9022 48.6035 11.7779 48.875 11.7779 49.2136C11.7779 49.5523 11.9022 49.824 12.1511 50.028C12.3997 50.2324 12.743 50.3345 13.181 50.3345H13.5989C14.1065 50.3345 14.5219 50.1999 14.8454 49.9309ZM11.4046 51.4103C10.9867 51.201 10.6632 50.9122 10.4344 50.5436C10.2052 50.175 10.0911 49.7466 10.0911 49.2584C10.0911 48.7704 10.2052 48.3445 10.4344 47.9807C10.6632 47.6171 10.9867 47.3333 11.4046 47.1291C11.8227 46.9248 12.3152 46.8226 12.8825 46.8226H15.3306V46.434C15.3306 46.0455 15.1963 45.7293 14.9276 45.4852C14.6589 45.2412 14.3055 45.119 13.8676 45.119H13.5094C13.1012 45.119 12.7653 45.2162 12.5018 45.4105C12.2381 45.6047 12.0763 45.8612 12.0167 46.1801H10.3449C10.484 45.343 10.8349 44.7154 11.3973 44.2971C11.9593 43.8787 12.6833 43.6694 13.5693 43.6694H13.7334C14.7982 43.6694 15.5968 43.9411 16.1292 44.4838C16.6614 45.027 16.9279 45.8015 16.9279 46.8077V49.1239C16.9279 49.4927 16.9749 49.7466 17.0697 49.8861C17.1641 50.0257 17.3257 50.0953 17.5549 50.0953H17.9131V51.5149H17.0771C16.6988 51.5149 16.3905 51.4328 16.1516 51.2683C15.9128 51.1039 15.7386 50.8824 15.6291 50.6033C15.44 50.972 15.1665 51.2512 14.8082 51.4402C14.4498 51.6293 14.0368 51.7241 13.5693 51.7241H12.8825C12.3152 51.7241 11.8227 51.6194 11.4046 51.4103Z"
        fill="#FFF203" />
    <path
        d="M20.0469 51.3508C19.5591 51.1018 19.1909 50.7333 18.9422 50.2449C18.6933 49.7569 18.5691 49.1592 18.5691 48.4518V43.864H20.2112V48.4218C20.2112 48.9699 20.3504 49.3909 20.6291 49.6846C20.9076 49.9786 21.3057 50.1255 21.8233 50.1255H22.107C22.6145 50.1255 23.01 49.9786 23.2936 49.6846C23.5773 49.3909 23.7191 48.9699 23.7191 48.4218V43.864H25.3612V48.4518C25.3612 49.1592 25.2367 49.7569 24.9879 50.2449C24.7391 50.7333 24.3708 51.1018 23.8834 51.3508C23.3956 51.5999 22.7984 51.7245 22.0919 51.7245H21.8382C21.1315 51.7245 20.5344 51.5999 20.0469 51.3508Z"
        fill="#FFF203" />
    <path
        d="M28.3628 40.8901V48.7505C28.3628 49.189 28.4723 49.5029 28.6912 49.6921C28.91 49.8812 29.2633 49.9759 29.751 49.9759H30.2586V51.515H29.3929C28.7858 51.515 28.2857 51.4206 27.8926 51.2313C27.4994 51.0421 27.206 50.7381 27.0119 50.3197C26.8178 49.9012 26.7207 49.3434 26.7207 48.6458V40.8901H28.3628Z"
        fill="#FFF203" />
    <path
        d="M31.5714 43.8631H34.7815V45.3424H31.5714V43.8631ZM32.4524 42.0698V48.391C32.4524 48.9789 32.6174 49.3949 32.9456 49.6387C33.2738 49.883 33.712 50.005 34.2585 50.005H34.9606V51.5142H34.0041C33.3476 51.5142 32.7807 51.4021 32.3033 51.178C31.8258 50.9538 31.4568 50.6202 31.1992 50.1767C30.9401 49.7337 30.8113 49.178 30.8113 48.5105V42.0698H32.4524Z"
        fill="#FFF203" />
    <path
        d="M35.8118 50.2442L40.2901 46.1198C40.678 45.7711 40.974 45.4798 41.1782 45.2455C41.382 45.0116 41.5388 44.7824 41.6484 44.5582C41.7578 44.334 41.8125 44.0973 41.8125 43.8483C41.8125 43.5397 41.7329 43.268 41.5738 43.0339C41.4145 42.7998 41.2006 42.6206 40.9319 42.4959C40.663 42.3714 40.3595 42.3091 40.0213 42.3091H39.6033C39.245 42.3091 38.9215 42.3714 38.633 42.4959C38.3442 42.6206 38.1204 42.8097 37.9613 43.0638C37.8019 43.3179 37.7224 43.6342 37.7224 44.0126V44.1323H36.0505V43.7438C36.0505 43.1161 36.1998 42.5706 36.4984 42.1074C36.7969 41.6441 37.215 41.2907 37.7523 41.0463C38.2897 40.8023 38.9017 40.6802 39.5884 40.6802H40.0959C40.7527 40.6802 41.3398 40.8023 41.8574 41.0463C42.3747 41.2907 42.7777 41.6441 43.0665 42.1074C43.355 42.5706 43.4994 43.1111 43.4994 43.7288C43.4994 44.1572 43.4221 44.5633 43.268 44.9466C43.1135 45.3303 42.88 45.7114 42.5665 46.09C42.253 46.4685 41.8425 46.8918 41.3349 47.3601L38.5284 49.9304L40.2004 49.8855H43.7382V51.5143H35.8118V50.2442Z"
        fill="#FFF203" />
    <path
        d="M44.5735 50.2442L49.0518 46.1198C49.4397 45.7711 49.7357 45.4798 49.9399 45.2455C50.1437 45.0116 50.3005 44.7824 50.4101 44.5582C50.5196 44.334 50.5742 44.0973 50.5742 43.8483C50.5742 43.5397 50.4946 43.268 50.3355 43.0339C50.1762 42.7998 49.9623 42.6206 49.6936 42.4959C49.4248 42.3714 49.1212 42.3091 48.7831 42.3091H48.365C48.0068 42.3091 47.6832 42.3714 47.3947 42.4959C47.1059 42.6206 46.8821 42.8097 46.723 43.0638C46.5636 43.3179 46.4842 43.6342 46.4842 44.0126V44.1323H44.8122V43.7438C44.8122 43.1161 44.9616 42.5706 45.2601 42.1074C45.5587 41.6441 45.9767 41.2907 46.514 41.0463C47.0514 40.8023 47.6634 40.6802 48.3501 40.6802H48.8577C49.5144 40.6802 50.1015 40.8023 50.6191 41.0463C51.1365 41.2907 51.5394 41.6441 51.8283 42.1074C52.1168 42.5706 52.2611 43.1111 52.2611 43.7288C52.2611 44.1572 52.1838 44.5633 52.0298 44.9466C51.8752 45.3303 51.6417 45.7114 51.3282 46.09C51.0147 46.4685 50.6042 46.8918 50.0966 47.3601L47.2901 49.9304L48.9621 49.8855H52.5V51.5143H44.5735V50.2442Z"
        fill="#FFF203" />
</svg>
