<svg width="53" height="52" viewBox="0 0 53 52" fill="none" xmlns="http://www.w3.org/2000/svg">
    <path
        d="M33.8505 15.1982C29.9327 19.1413 27.4014 24.11 26.5 29.5046C25.5986 24.11 23.0673 19.1413 19.1495 15.1982C14.171 10.1876 7.54813 7.42847 0.5 7.42847V20.1421C8.07484 20.1421 14.2373 28.4578 14.2373 36.0815H38.7623C38.7623 28.4578 44.9252 20.1421 52.5 20.1421V7.42847C45.4523 7.42847 38.829 10.1876 33.8505 15.1982Z"
        fill="black" />
    <path
        d="M0.506836 40.8901H2.34291L4.77608 47.0171L5.8211 49.9311H5.46286L6.50772 47.0171L8.91106 40.8901H10.762L6.55248 51.515H4.73133L0.506836 40.8901Z"
        fill="black" />
    <path
        d="M14.8452 49.9309C15.1686 49.6619 15.3303 49.2683 15.3303 48.7503V48.0928H13.1808C12.7428 48.0928 12.3995 48.1952 12.1508 48.3991C11.9019 48.6035 11.7777 48.875 11.7777 49.2136C11.7777 49.5523 11.9019 49.824 12.1508 50.028C12.3995 50.2324 12.7428 50.3345 13.1808 50.3345H13.5987C14.1063 50.3345 14.5217 50.1999 14.8452 49.9309ZM11.4044 51.4103C10.9865 51.201 10.663 50.9122 10.4341 50.5436C10.205 50.175 10.0908 49.7466 10.0908 49.2584C10.0908 48.7704 10.205 48.3445 10.4341 47.9807C10.663 47.6171 10.9865 47.3333 11.4044 47.1291C11.8225 46.9248 12.315 46.8226 12.8822 46.8226H15.3303V46.434C15.3303 46.0455 15.196 45.7293 14.9273 45.4852C14.6586 45.2412 14.3053 45.119 13.8674 45.119H13.5092C13.101 45.119 12.7651 45.2162 12.5015 45.4105C12.2379 45.6047 12.0761 45.8612 12.0164 46.1801H10.3446C10.4838 45.343 10.8346 44.7154 11.397 44.2971C11.9591 43.8787 12.6831 43.6694 13.569 43.6694H13.7331C14.7979 43.6694 15.5965 43.9411 16.1289 44.4838C16.6612 45.027 16.9277 45.8015 16.9277 46.8077V49.1239C16.9277 49.4927 16.9746 49.7466 17.0695 49.8861C17.1639 50.0257 17.3255 50.0953 17.5546 50.0953H17.9129V51.5149H17.0769C16.6985 51.5149 16.3903 51.4328 16.1514 51.2683C15.9125 51.1039 15.7383 50.8824 15.6289 50.6033C15.4398 50.972 15.1662 51.2512 14.808 51.4402C14.4496 51.6293 14.0365 51.7241 13.569 51.7241H12.8822C12.315 51.7241 11.8225 51.6194 11.4044 51.4103Z"
        fill="black" />
    <path
        d="M20.0472 51.3508C19.5594 51.1018 19.1911 50.7333 18.9425 50.2449C18.6936 49.7569 18.5693 49.1592 18.5693 48.4518V43.864H20.2115V48.4218C20.2115 48.9699 20.3506 49.3909 20.6294 49.6846C20.9078 49.9786 21.3059 50.1255 21.8236 50.1255H22.1072C22.6148 50.1255 23.0102 49.9786 23.2939 49.6846C23.5775 49.3909 23.7193 48.9699 23.7193 48.4218V43.864H25.3614V48.4518C25.3614 49.1592 25.2369 49.7569 24.9881 50.2449C24.7394 50.7333 24.3711 51.1018 23.8836 51.3508C23.3958 51.5999 22.7987 51.7245 22.0921 51.7245H21.8385C21.1318 51.7245 20.5347 51.5999 20.0472 51.3508Z"
        fill="black" />
    <path
        d="M28.3628 40.8901V48.7505C28.3628 49.189 28.4723 49.5029 28.6912 49.6921C28.91 49.8812 29.2633 49.9759 29.751 49.9759H30.2586V51.515H29.3929C28.7858 51.515 28.2857 51.4206 27.8926 51.2313C27.4994 51.0421 27.206 50.7381 27.0119 50.3197C26.8178 49.9012 26.7207 49.3434 26.7207 48.6458V40.8901H28.3628Z"
        fill="black" />
    <path
        d="M31.5716 43.8631H34.7818V45.3424H31.5716V43.8631ZM32.4527 42.0698V48.391C32.4527 48.9789 32.6176 49.3949 32.9458 49.6387C33.2741 49.883 33.7122 50.005 34.2588 50.005H34.9608V51.5142H34.0043C33.3479 51.5142 32.7809 51.4021 32.3035 51.178C31.8261 50.9538 31.457 50.6202 31.1994 50.1767C30.9403 49.7337 30.8115 49.178 30.8115 48.5105V42.0698H32.4527Z"
        fill="black" />
    <path
        d="M35.8115 50.2442L40.2898 46.1198C40.6777 45.7711 40.9738 45.4798 41.1779 45.2455C41.3818 45.0116 41.5385 44.7824 41.6481 44.5582C41.7576 44.334 41.8123 44.0973 41.8123 43.8483C41.8123 43.5397 41.7326 43.268 41.5735 43.0339C41.4143 42.7998 41.2004 42.6206 40.9317 42.4959C40.6628 42.3714 40.3592 42.3091 40.0211 42.3091H39.603C39.2448 42.3091 38.9213 42.3714 38.6328 42.4959C38.344 42.6206 38.1202 42.8097 37.9611 43.0638C37.8017 43.3179 37.7222 43.6342 37.7222 44.0126V44.1323H36.0502V43.7438C36.0502 43.1161 36.1996 42.5706 36.4981 42.1074C36.7967 41.6441 37.2148 41.2907 37.752 41.0463C38.2895 40.8023 38.9015 40.6802 39.5881 40.6802H40.0957C40.7525 40.6802 41.3395 40.8023 41.8572 41.0463C42.3745 41.2907 42.7775 41.6441 43.0663 42.1074C43.3548 42.5706 43.4991 43.1111 43.4991 43.7288C43.4991 44.1572 43.4219 44.5633 43.2678 44.9466C43.1133 45.3303 42.8797 45.7114 42.5662 46.09C42.2528 46.4685 41.8422 46.8918 41.3347 47.3601L38.5282 49.9304L40.2001 49.8855H43.738V51.5143H35.8115V50.2442Z"
        fill="black" />
    <path
        d="M44.5732 50.2442L49.0515 46.1198C49.4394 45.7711 49.7355 45.4798 49.9396 45.2455C50.1435 45.0116 50.3002 44.7824 50.4099 44.5582C50.5193 44.334 50.574 44.0973 50.574 43.8483C50.574 43.5397 50.4943 43.268 50.3353 43.0339C50.176 42.7998 49.9621 42.6206 49.6934 42.4959C49.4245 42.3714 49.1209 42.3091 48.7828 42.3091H48.3647C48.0065 42.3091 47.683 42.3714 47.3945 42.4959C47.1057 42.6206 46.8819 42.8097 46.7228 43.0638C46.5634 43.3179 46.4839 43.6342 46.4839 44.0126V44.1323H44.812V43.7438C44.812 43.1161 44.9613 42.5706 45.2599 42.1074C45.5584 41.6441 45.9765 41.2907 46.5138 41.0463C47.0512 40.8023 47.6632 40.6802 48.3498 40.6802H48.8574C49.5142 40.6802 50.1012 40.8023 50.6189 41.0463C51.1362 41.2907 51.5392 41.6441 51.828 42.1074C52.1165 42.5706 52.2608 43.1111 52.2608 43.7288C52.2608 44.1572 52.1836 44.5633 52.0295 44.9466C51.875 45.3303 51.6414 45.7114 51.328 46.09C51.0145 46.4685 50.604 46.8918 50.0964 47.3601L47.2899 49.9304L48.9619 49.8855H52.4997V51.5143H44.5732V50.2442Z"
        fill="black" />
</svg>
