<svg width="32" height="32" viewBox="0 0 32 32" fill="none" xmlns="http://www.w3.org/2000/svg">
<path d="M28 15.3334V16H4V15.3334L7.702 6H24.298L28 15.3334Z" fill="#52D1C6"/>
<path d="M32 15.3334H0V18.0001H32V15.3334Z" fill="#156C65"/>
<path d="M7.33333 26.0001H2V28.6668H7.33333V26.0001Z" fill="#09489A"/>
<path d="M30.0001 26.0001H24.6667V28.6668H30.0001V26.0001Z" fill="#09489A"/>
<path d="M30 15.3334H2V26.0001H30V15.3334Z" fill="#23B3A7"/>
<path d="M7.33333 24.6667H2V26.0001H7.33333V24.6667Z" fill="#156C65"/>
<path d="M30.0001 24.6667H24.6667V26.0001H30.0001V24.6667Z" fill="#156C65"/>
<path d="M7.33333 19.3334H2V22.0001H7.33333V19.3334Z" fill="#156C65"/>
<path d="M22 19.3334H10V22.0001H22V19.3334Z" fill="#156C65"/>
<path d="M30.0001 19.3334H24.6667V22.0001H30.0001V19.3334Z" fill="#156C65"/>
</svg>
